<?xml version="1.0" encoding="UTF-8" standalone="no"?><!DOCTYPE svg PUBLIC "-//W3C//DTD SVG 1.1//EN" "http://www.w3.org/Graphics/SVG/1.1/DTD/svg11.dtd"><svg width="100%" height="100%" viewBox="0 0 120 120" version="1.1" xmlns="http://www.w3.org/2000/svg" xmlns:xlink="http://www.w3.org/1999/xlink" xml:space="preserve" xmlns:serif="http://www.serif.com/" style="fill-rule:evenodd;clip-rule:evenodd;stroke-linejoin:round;stroke-miterlimit:2;"><g><path d="M117.702,107.576l-10.126,10.126c-2.794,2.794 -7.332,2.794 -10.126,-0l-95.354,-95.354c-2.794,-2.794 -2.794,-7.332 -0,-10.126l10.126,-10.126c2.794,-2.794 7.332,-2.794 10.126,0l95.354,95.354c2.794,2.794 2.794,7.332 0,10.126Z" style="fill:#e6136a;"/><path d="M107.576,2.096l10.126,10.126c2.794,2.794 2.794,7.332 -0,10.126l-95.354,95.354c-2.794,2.794 -7.332,2.794 -10.126,0l-10.126,-10.126c-2.794,-2.794 -2.794,-7.332 0,-10.126l95.354,-95.354c2.794,-2.794 7.332,-2.794 10.126,-0Z" style="fill:#e6136a;"/></g></svg>