<?xml version="1.0" encoding="UTF-8" standalone="no"?><!DOCTYPE svg PUBLIC "-//W3C//DTD SVG 1.1//EN" "http://www.w3.org/Graphics/SVG/1.1/DTD/svg11.dtd"><svg width="100%" height="100%" viewBox="0 0 851 597" version="1.1" xmlns="http://www.w3.org/2000/svg" xmlns:xlink="http://www.w3.org/1999/xlink" xml:space="preserve" xmlns:serif="http://www.serif.com/" style="fill-rule:evenodd;clip-rule:evenodd;stroke-linejoin:round;stroke-miterlimit:2;"><g><path d="M85.982,559.761c-30.593,-86.335 -30.242,-429.566 -0,-515.901c20.097,-57.372 148.992,-53.825 181.451,-2.108c33.559,53.468 65.27,218.477 99.794,218.828c34.524,0.352 60.272,-180.6 107.352,-216.72c46.411,-35.607 156.267,-55.556 175.126,0c29.188,85.984 29.715,429.39 0,515.901c-19.406,56.497 -148.574,35.153 -178.289,3.162c-29.715,-31.99 11.391,-182.392 0,-195.106c-11.391,-12.713 -46.392,99.023 -68.346,118.827c-15.727,14.187 -47.728,14.268 -63.382,0c-21.728,-19.804 -55.293,-131.364 -66.984,-118.827c-11.691,12.538 27.958,162.062 -3.162,194.052c-31.121,31.991 -163.02,55.856 -183.56,-2.108Z" style="fill:#f5e11b;fill-rule:nonzero;stroke:#332a32;stroke-width:3.79px;"/><path d="M107.169,540.56c-23.945,-79.204 -23.945,-396.021 0,-475.225c13.859,-45.842 113.605,-47.64 143.673,-0c31.086,49.253 68.87,191.576 108.012,191.576c39.142,0 81.752,-159.647 126.837,-191.576c39.083,-27.679 129.814,-45.842 143.673,-0c23.946,79.204 23.946,396.021 0,475.225c-13.859,45.841 -119.727,41.444 -143.673,-0c-23.945,-41.444 14.621,-234.85 0,-248.664c-14.62,-13.815 -63.317,138.146 -87.723,165.776c-12.956,14.667 -45.721,14.637 -58.712,-0c-24.521,-27.63 -73.678,-179.591 -88.414,-165.776c-14.736,13.814 23.945,207.22 -0,248.664c-23.946,41.444 -129.814,45.841 -143.673,-0Z" style="fill:#e6136a;fill-rule:nonzero;"/><g><path d="M315.726,335.277c-5.114,1.959 -7.646,5.401 -5.832,10.94" style="fill:none;stroke:#332a32;stroke-width:3.41px;stroke-linecap:round;stroke-miterlimit:1.5;"/><path d="M415.859,337.856c3.543,2.324 7.795,6.148 6.272,10.915" style="fill:none;stroke:#332a32;stroke-width:3.41px;stroke-linecap:round;stroke-miterlimit:1.5;"/></g><g><ellipse cx="309.979" cy="236.381" rx="59.411" ry="57.169" style="fill:#fcfbdb;"/><clipPath id="_clip1"><ellipse cx="309.979" cy="236.381" rx="59.411" ry="57.169"/></clipPath><g clip-path="url(#_clip1)"><path d="M296.805,292.686c0.598,-10.638 7.947,-93.013 17.49,-106.201c3.201,-4.424 7.962,-10.264 12.795,-12.095c15.168,-5.749 32.864,11.152 42.448,22.652c5.79,6.946 11.431,15.807 13.707,25.222c6.084,25.181 -3.449,57.156 -23.448,69.756c-7.948,5.007 -16.216,8.516 -25.336,8.344c-13.105,-0.247 -26.296,-3.252 -38.694,-8.143c-0.211,-0.083 1.038,0.465 1.038,0.465Z" style="fill:#332a32;"/></g><ellipse cx="309.979" cy="236.381" rx="59.411" ry="57.169" style="fill:none;stroke:#332a32;stroke-width:3.6px;stroke-linecap:round;stroke-miterlimit:1.5;"/><ellipse cx="325.813" cy="230.282" rx="7.346" ry="7.346" style="fill:#fcfbdb;stroke:#332a32;stroke-width:3.6px;stroke-linecap:round;stroke-miterlimit:1.5;"/><ellipse cx="320.443" cy="254.91" rx="4.898" ry="4.285" style="fill:#fcfbdb;stroke:#332a32;stroke-width:3.6px;stroke-linecap:round;stroke-miterlimit:1.5;"/></g><g><ellipse cx="415.126" cy="239.754" rx="59.411" ry="57.169" style="fill:#fcfbdb;"/><clipPath id="_clip2"><ellipse cx="415.126" cy="239.754" rx="59.411" ry="57.169"/></clipPath><g clip-path="url(#_clip2)"><path d="M403.294,295.612c0.598,-10.638 7.947,-93.013 17.49,-106.201c3.201,-4.424 7.962,-10.264 12.795,-12.095c15.168,-5.749 32.863,11.152 42.448,22.652c5.79,6.946 11.431,15.807 13.706,25.222c6.085,25.181 -3.448,57.156 -23.447,69.755c-7.948,5.008 -16.216,8.517 -25.337,8.345c-13.104,-0.247 -26.295,-3.252 -38.693,-8.143c-0.211,-0.083 1.038,0.465 1.038,0.465Z" style="fill:#332a32;"/></g><ellipse cx="415.126" cy="239.754" rx="59.411" ry="57.169" style="fill:none;stroke:#332a32;stroke-width:3.6px;stroke-linecap:round;stroke-miterlimit:1.5;"/><path d="M426.656,229.218c3.929,-1.004 7.933,1.37 8.937,5.298c1.004,3.929 -1.371,7.933 -5.299,8.937c-3.928,1.004 -7.933,-1.371 -8.937,-5.299c-1.003,-3.928 1.371,-7.933 5.299,-8.936Z" style="fill:#fcfbdb;stroke:#332a32;stroke-width:3.6px;stroke-linecap:round;stroke-miterlimit:1.5;"/><path d="M426.059,253.752c2.619,-0.67 5.221,0.648 5.806,2.939c0.586,2.292 -1.065,4.695 -3.684,5.364c-2.619,0.67 -5.221,-0.647 -5.806,-2.939c-0.586,-2.291 1.065,-4.695 3.684,-5.364Z" style="fill:#fcfbdb;stroke:#332a32;stroke-width:3.6px;stroke-linecap:round;stroke-miterlimit:1.5;"/></g><g><path d="M365.993,346.013c21.363,0 40.03,-4.994 40.03,3.029c0,8.022 -18.005,24.832 -39.368,24.832c-21.362,-0 -40.029,-16.81 -40.029,-24.832c-0,-8.023 18.005,-3.029 39.367,-3.029Z" style="fill:#fcfbdb;stroke:#332a32;stroke-width:3.6px;stroke-linecap:round;stroke-miterlimit:1.5;"/><path d="M342.982,344.436l-1.654,20.455" style="fill:none;stroke:#332a32;stroke-width:3.6px;stroke-linecap:round;stroke-miterlimit:1.5;"/><path d="M385.707,346.855l1.556,20.461" style="fill:none;stroke:#332a32;stroke-width:3.6px;stroke-linecap:round;stroke-miterlimit:1.5;"/><path d="M366.264,346.228l-0.717,25.346" style="fill:none;stroke:#332a32;stroke-width:3.6px;stroke-linecap:round;stroke-miterlimit:1.5;"/></g><g><path d="M661.788,335.895c10.245,-9.048 46.243,-14.676 58.88,-20.116c6.451,-2.778 13.08,-7.391 16.942,-12.527c3.861,-5.136 1.554,-13.86 6.229,-18.29c4.836,-4.581 18.499,-12.439 22.784,-9.197c4.284,3.242 5.386,19.371 2.924,28.649c-2.751,10.372 -9.226,25.638 -19.433,33.579c-14.964,11.641 -55.195,30.924 -70.348,36.269c-6.601,2.329 -17.603,2.139 -20.573,-4.199c-2.996,-6.395 -5.967,-26.608 2.595,-34.168Z" style="fill:#f5e11b;stroke:#332a32;stroke-width:2.69px;stroke-linecap:round;stroke-miterlimit:1.5;"/></g><g><path d="M739.201,208.139l-10.5,12.24l1.197,1.107c3.131,2.898 3.32,7.793 0.423,10.924l-1.167,1.261c-2.898,3.131 -7.792,3.32 -10.924,0.423l-37.421,-34.632c-3.131,-2.897 -3.32,-7.792 -0.423,-10.923l1.167,-1.261c2.898,-3.131 7.792,-3.32 10.923,-0.423l0.771,0.714l38.113,-44.429l-0.429,-0.398c-3.132,-2.898 -3.321,-7.792 -0.423,-10.923l1.166,-1.261c2.898,-3.131 7.793,-3.321 10.924,-0.423l37.421,34.631c3.131,2.898 3.321,7.792 0.423,10.924l-1.167,1.26c-2.897,3.131 -7.792,3.321 -10.923,0.423l-1.538,-1.423l-11.089,12.926c0.699,0.431 1.366,0.934 1.991,1.512l64.273,59.411c5.207,4.813 5.526,12.948 0.713,18.155c-4.813,5.207 -12.948,5.527 -18.155,0.714l-64.273,-59.411c-0.384,-0.355 -0.742,-0.729 -1.073,-1.118Z" style="fill:#1bcdf5;stroke:#332a32;stroke-width:3.31px;stroke-linecap:round;stroke-miterlimit:1.5;"/><path d="M692.173,186.609c3.086,2.559 11.633,10.535 14.768,13.035" style="fill:none;stroke:#332a32;stroke-width:3.31px;stroke-linecap:round;stroke-miterlimit:1.5;"/><path d="M730.416,142.185c3.086,2.559 4.248,3.922 7.383,6.423" style="fill:none;stroke:#332a32;stroke-width:3.31px;stroke-linecap:round;stroke-miterlimit:1.5;"/><path d="M728.44,220.076c-1.369,-2.187 -4.102,-3.947 -5.945,-5.755" style="fill:none;stroke:#332a32;stroke-width:3.31px;stroke-linecap:round;stroke-miterlimit:1.5;"/><path d="M766.683,175.652c-1.369,-2.187 -12.944,-12.507 -14.786,-14.315" style="fill:none;stroke:#332a32;stroke-width:3.31px;stroke-linecap:round;stroke-miterlimit:1.5;"/></g><g><g><path d="M775.577,304.287c10.776,2.726 22.58,2.749 32.685,-2.263c10.448,-5.182 19.198,-15.639 26.591,-24.366c5.612,-6.624 14.382,-14.399 13.664,-23.937c-0.894,-11.864 -11.157,-14.596 -21.054,-12.47c-0.278,0.06 -0.938,-4.643 -0.983,-4.963c-0.469,-3.382 -0.916,-6.717 -2.928,-9.577c-2.184,-3.105 -5.546,-4.91 -9.338,-5.256c-0.602,-0.054 -4.993,0.702 -5.059,0.639c-0.787,-0.753 -0.109,-4.757 -0.251,-5.921c-0.625,-5.165 -3.59,-8.436 -8.738,-9.521c-15.446,-3.257 -20.461,14.851 -28.051,23.755c-0.895,1.05 -7.495,0.009 -8.879,0.02c-6.049,0.049 -11.633,1.24 -15.858,5.857c-9.003,9.842 -2.267,25.615 -0.42,36.959c0.133,0.815 -15.055,0.391 -11.08,10.007c11.147,26.965 40.757,39.391 39.699,21.037Z" style="fill:#fcfbdb;stroke:#332a32;stroke-width:3.31px;stroke-linecap:round;stroke-miterlimit:1.5;"/><path d="M843.588,267.305c-3.338,3.376 -6.88,6.435 -10.584,9.396c-5.602,4.479 -12.099,9.073 -19.728,8.179c-2.142,-0.251 -4.75,-1.157 -6.293,-2.74c-2.508,-2.573 -3.158,-7.735 -2.651,-11.153c0.744,-5.015 3.717,-9.285 6.752,-13.207c2.508,-3.24 5.065,-6.455 8.013,-9.318" style="fill:none;stroke:#332a32;stroke-width:3.31px;stroke-linecap:round;stroke-miterlimit:1.5;"/><path d="M807.342,262.202c-5.504,2.89 -13.352,4.017 -17.115,-2.263c-0.69,-1.151 -1.203,-2.355 -1.529,-3.658c-0.384,-1.531 -0.525,-3.165 -0.245,-4.725c0.906,-5.054 3.772,-9.1 6.913,-12.995c2.814,-3.489 5.779,-6.698 8.976,-9.834" style="fill:none;stroke:#332a32;stroke-width:3.31px;stroke-linecap:round;stroke-miterlimit:1.5;"/><path d="M788.817,247.049c-2.101,1.163 -4.651,2.284 -7.094,2.24c-5.507,-0.1 -11.189,-5.226 -11.802,-10.724c-0.627,-5.621 1.873,-7.141 4.816,-11.632" style="fill:none;stroke:#332a32;stroke-width:3.31px;stroke-linecap:round;stroke-miterlimit:1.5;"/><path d="M783.028,249.702c2.361,2.135 4.832,2.6 5.305,5.759c0.315,2.106 2.014,6.185 5.413,7.984c1.36,0.72 1.391,1.952 1.336,3.579c-0.115,3.379 -5.119,4.852 -7.765,5.042c-0.704,0.05 -1.412,0.11 -2.117,0.121c-0.894,0.015 -1.802,0.004 -2.689,-0.115c-2.65,-0.354 -5.031,-1.395 -7.512,-2.333c-2.065,-0.78 -4.188,-1.438 -6.125,-2.517c-4.608,-2.567 -8.593,-6.998 -10.019,-12.162" style="fill:none;stroke:#332a32;stroke-width:3.31px;stroke-linecap:round;stroke-miterlimit:1.5;"/><path d="M777.331,304.347c-3.82,-2.624 -6.651,-5.558 -9.35,-9.316" style="fill:none;stroke:#332a32;stroke-width:3.31px;stroke-linecap:round;stroke-miterlimit:1.5;"/><path d="M756.942,283.341c-2.608,-3.32 -6.4,-8.955 -10.774,-9.925" style="fill:none;stroke:#332a32;stroke-width:3.31px;stroke-linecap:round;stroke-miterlimit:1.5;"/></g></g><g><path d="M75.911,386.513c-4.654,6.221 -20.796,-1.312 -25.223,1.734c-4.427,3.046 -2.267,11.096 -1.339,16.543c0.927,5.447 9.71,11.853 6.906,16.139c-2.805,4.287 -17.037,12.473 -23.732,9.581c-6.696,-2.892 -14.467,-16.6 -16.442,-26.931c-2.085,-10.9 -2.916,-28.965 3.935,-38.471c6.851,-9.505 27.402,-16.196 37.168,-18.561c7.086,-1.715 18.337,-2.227 21.43,4.375c3.121,6.661 1.952,29.37 -2.703,35.591Z" style="fill:#f5e11b;stroke:#332a32;stroke-width:2.8px;stroke-linecap:round;stroke-miterlimit:1.5;"/><g><path d="M50.482,405.903c13.7,-9.97 23.886,5.572 23.278,15.245c-0.068,1.079 5.582,5.775 8.013,15.109c6.514,25.011 -3.982,51.429 -28.384,63.911c-4.463,2.283 -9.311,3.508 -14.255,4.154c-5.531,0.724 -11.267,1.195 -16.696,-0.41c-5.499,-1.625 -13.865,-6.028 -13.599,-12.978c0.087,-2.261 4.323,-8.204 2.824,-6.693c-0.317,0.32 -9.103,-4.77 -8.817,-9.08c0.509,-7.666 5.842,-8.627 5.523,-8.55c-3.806,0.915 -6.282,-3.171 -6.487,-3.97c-1.895,-7.374 2.215,-10.833 5.511,-12.927c3.299,-2.098 8.495,-3.268 7.762,-3.519c-3.843,-1.318 -12.339,-5.443 -6.517,-16.496c2.186,-4.15 8.621,-2.534 12.2,-0.83c1.344,0.64 0.999,-3.604 2.735,-4.604c2.36,-1.36 6.87,0.259 8.959,0.278c4.183,0.038 8.973,1.411 13.059,0.091c7.687,-2.484 8.647,-11.378 6.151,-17.916c-0.107,-0.281 -1.26,-0.815 -1.26,-0.815Z" style="fill:#fcfbdb;stroke:#332a32;stroke-width:2.8px;stroke-linecap:round;stroke-miterlimit:1.5;"/><path d="M64.95,430.483c4.474,-3.038 8.536,-5.461 8.779,-11.143" style="fill:none;stroke:#332a32;stroke-width:2.8px;stroke-linecap:round;stroke-miterlimit:1.5;"/><path d="M22.68,425.742c-1.786,6.948 1.097,15.208 8.472,18.253c3.075,1.269 6.874,1.317 10.158,1.044" style="fill:none;stroke:#332a32;stroke-width:2.8px;stroke-linecap:round;stroke-miterlimit:1.5;"/><path d="M24.449,445.567c-5.511,0.342 -8.357,-0.06 -14.545,2.87" style="fill:none;stroke:#332a32;stroke-width:2.8px;stroke-linecap:round;stroke-miterlimit:1.5;"/><path d="M28.183,459.839c-5.826,4.125 -14.994,6.967 -22.205,6.689" style="fill:none;stroke:#332a32;stroke-width:2.8px;stroke-linecap:round;stroke-miterlimit:1.5;"/><path d="M37.109,475.25c-7.029,4.754 -17.289,9.984 -26.003,8.692" style="fill:none;stroke:#332a32;stroke-width:2.8px;stroke-linecap:round;stroke-miterlimit:1.5;"/></g></g><path d="M217.447,140.341c9.716,-62.01 41.25,-72.981 89.064,-80.072c59.856,-8.876 133.551,-6.459 182.578,33.502c4.821,3.929 9.132,8.757 12.527,13.972c4.497,6.906 11.388,20.432 8.611,29.01c-2.809,8.677 -12.903,15.612 -20.371,19.89c-20.912,11.977 -44.902,23.059 -69.002,22.839c-27.793,-0.253 -59.623,-1.334 -87.488,-2.789c-21.79,-1.138 -54.627,1.483 -75.16,-6.882c-16.461,-6.706 -30.93,-10.124 -40.759,-29.47c-0.183,-0.36 -0.063,0.399 -0,0Z" style="fill:#fcfbdb;stroke:#332a32;stroke-width:3.31px;stroke-linecap:round;stroke-miterlimit:1.5;"/><g><path d="M256.89,183.123c0,-12.777 -10.374,-23.151 -23.151,-23.151l-24.462,-0c-12.778,-0 -23.151,10.374 -23.151,23.151c-0,12.778 10.373,23.152 23.151,23.152l24.462,-0c12.777,-0 23.151,-10.374 23.151,-23.152Z" style="fill:#fcfbdb;stroke:#332a32;stroke-width:3.31px;stroke-linecap:round;stroke-miterlimit:1.5;"/><path d="M249.027,226.805c0,-12.778 -10.373,-23.151 -23.151,-23.151l-24.462,-0c-12.777,-0 -23.151,10.373 -23.151,23.151c0,12.778 10.374,23.151 23.151,23.151l24.462,0c12.778,0 23.151,-10.373 23.151,-23.151Z" style="fill:#fcfbdb;stroke:#332a32;stroke-width:3.31px;stroke-linecap:round;stroke-miterlimit:1.5;"/><path d="M246.407,271.36c-0,-12.777 -10.374,-23.151 -23.152,-23.151l-24.462,0c-12.777,0 -23.151,10.374 -23.151,23.151c0,12.778 10.374,23.152 23.151,23.152l24.462,-0c12.778,-0 23.152,-10.374 23.152,-23.152Z" style="fill:#fcfbdb;stroke:#332a32;stroke-width:3.31px;stroke-linecap:round;stroke-miterlimit:1.5;"/><path d="M249.027,314.168c0,-12.777 -10.373,-23.151 -23.151,-23.151l-24.462,0c-12.777,0 -23.151,10.374 -23.151,23.151c0,12.778 10.374,23.152 23.151,23.152l24.462,-0c12.778,-0 23.151,-10.374 23.151,-23.152Z" style="fill:#fcfbdb;stroke:#332a32;stroke-width:3.31px;stroke-linecap:round;stroke-miterlimit:1.5;"/><path d="M229.69,336.01c-3.275,-3.484 -7.326,-9.968 -9.067,-14.265c-1.375,-3.39 -2.047,-6.804 -1.956,-10.421c0.06,-2.366 0.408,-4.866 1.483,-7.047c8.008,-16.25 27.558,3.525 22.253,15.134c-1.24,2.712 -3.592,7.2 -7.376,7.439c-8.553,0.542 -14.011,-14.38 -7.794,-19.253c0.595,-0.467 3.884,0.962 4.416,1.206c3.952,1.807 5.741,3.933 1.912,6.635" style="fill:none;stroke:#332a32;stroke-width:3.47px;stroke-linecap:round;stroke-miterlimit:1.5;"/><path d="M224.68,290.341c-3.274,-3.299 -7.326,-9.438 -9.067,-13.507c-1.374,-3.211 -2.047,-6.443 -1.955,-9.868c0.059,-2.24 0.408,-4.607 1.482,-6.672c8.008,-15.388 27.559,3.337 22.253,14.33c-1.239,2.568 -3.591,6.817 -7.376,7.044c-8.552,0.513 -14.011,-13.616 -7.794,-18.231c0.596,-0.442 3.884,0.911 4.416,1.142c3.952,1.712 5.741,3.724 1.912,6.282" style="fill:none;stroke:#332a32;stroke-width:3.39px;stroke-linecap:round;stroke-miterlimit:1.5;"/><path d="M227.543,247.882c-3.275,-3.376 -7.326,-9.659 -9.067,-13.823c-1.375,-3.286 -2.047,-6.594 -1.956,-10.099c0.06,-2.293 0.408,-4.715 1.483,-6.829c8.008,-15.747 27.558,3.416 22.253,14.666c-1.24,2.628 -3.592,6.977 -7.376,7.209c-8.553,0.525 -14.011,-13.935 -7.794,-18.658c0.595,-0.452 3.884,0.933 4.416,1.169c3.952,1.752 5.741,3.811 1.912,6.429" style="fill:none;stroke:#332a32;stroke-width:3.42px;stroke-linecap:round;stroke-miterlimit:1.5;"/><path d="M234.342,205.041c-3.275,-3.485 -7.326,-9.968 -9.067,-14.265c-1.375,-3.391 -2.047,-6.805 -1.956,-10.422c0.06,-2.366 0.408,-4.866 1.483,-7.047c8.008,-16.25 27.558,3.525 22.253,15.135c-1.24,2.712 -3.592,7.199 -7.376,7.438c-8.553,0.542 -14.011,-14.379 -7.794,-19.253c0.595,-0.467 3.884,0.963 4.416,1.206c3.952,1.808 5.741,3.933 1.912,6.635" style="fill:none;stroke:#332a32;stroke-width:3.47px;stroke-linecap:round;stroke-miterlimit:1.5;"/><path d="M260.826,138.751c0,-12.778 -10.373,-23.151 -23.151,-23.151l-24.462,-0c-12.777,-0 -23.151,10.373 -23.151,23.151c-0,12.778 10.374,23.151 23.151,23.151l24.462,0c12.778,0 23.151,-10.373 23.151,-23.151Z" style="fill:#fcfbdb;stroke:#332a32;stroke-width:3.31px;stroke-linecap:round;stroke-miterlimit:1.5;"/><path d="M238.278,160.668c-3.274,-3.484 -7.326,-9.968 -9.067,-14.264c-1.374,-3.391 -2.047,-6.805 -1.955,-10.422c0.059,-2.366 0.407,-4.866 1.482,-7.047c8.008,-16.25 27.559,3.525 22.253,15.134c-1.239,2.712 -3.592,7.2 -7.376,7.439c-8.553,0.542 -14.011,-14.379 -7.794,-19.253c0.596,-0.467 3.884,0.962 4.416,1.206c3.952,1.807 5.741,3.933 1.912,6.635" style="fill:none;stroke:#332a32;stroke-width:3.47px;stroke-linecap:round;stroke-miterlimit:1.5;"/></g><g><path d="M466.399,183.123c-0,-12.777 10.373,-23.151 23.151,-23.151l24.462,-0c12.777,-0 23.151,10.374 23.151,23.151c-0,12.778 -10.374,23.152 -23.151,23.152l-24.462,-0c-12.778,-0 -23.151,-10.374 -23.151,-23.152Z" style="fill:#fcfbdb;stroke:#332a32;stroke-width:3.31px;stroke-linecap:round;stroke-miterlimit:1.5;"/><path d="M462.462,139.467c0,-12.778 10.374,-23.152 23.152,-23.152l24.461,0c12.778,0 23.152,10.374 23.152,23.152c-0,12.777 -10.374,23.151 -23.152,23.151l-24.461,0c-12.778,0 -23.152,-10.374 -23.152,-23.151Z" style="fill:#fcfbdb;stroke:#332a32;stroke-width:3.31px;stroke-linecap:round;stroke-miterlimit:1.5;"/><path d="M474.261,226.805c0,-12.778 10.374,-23.151 23.152,-23.151l24.461,-0c12.778,-0 23.152,10.373 23.152,23.151c-0,12.778 -10.374,23.151 -23.152,23.151l-24.461,0c-12.778,0 -23.152,-10.373 -23.152,-23.151Z" style="fill:#fcfbdb;stroke:#332a32;stroke-width:3.31px;stroke-linecap:round;stroke-miterlimit:1.5;"/><path d="M476.882,271.36c0,-12.777 10.374,-23.151 23.152,-23.151l24.461,0c12.778,0 23.152,10.374 23.152,23.151c-0,12.778 -10.374,23.152 -23.152,23.152l-24.461,-0c-12.778,-0 -23.152,-10.374 -23.152,-23.152Z" style="fill:#fcfbdb;stroke:#332a32;stroke-width:3.31px;stroke-linecap:round;stroke-miterlimit:1.5;"/><path d="M474.261,314.168c0,-12.777 10.374,-23.151 23.152,-23.151l24.461,0c12.778,0 23.152,10.374 23.152,23.151c-0,12.778 -10.374,23.152 -23.152,23.152l-24.461,-0c-12.778,-0 -23.152,-10.374 -23.152,-23.152Z" style="fill:#fcfbdb;stroke:#332a32;stroke-width:3.31px;stroke-linecap:round;stroke-miterlimit:1.5;"/><path d="M493.599,336.01c3.274,-3.484 7.326,-9.968 9.067,-14.265c1.374,-3.39 2.047,-6.804 1.955,-10.421c-0.059,-2.366 -0.408,-4.866 -1.482,-7.047c-8.008,-16.25 -27.559,3.525 -22.253,15.134c1.239,2.712 3.591,7.2 7.376,7.439c8.552,0.542 14.011,-14.38 7.794,-19.253c-0.596,-0.467 -3.884,0.962 -4.416,1.206c-3.952,1.807 -5.741,3.933 -1.912,6.635" style="fill:none;stroke:#332a32;stroke-width:3.47px;stroke-linecap:round;stroke-miterlimit:1.5;"/><path d="M498.609,290.341c3.274,-3.299 7.325,-9.438 9.067,-13.507c1.374,-3.211 2.046,-6.443 1.955,-9.868c-0.06,-2.24 -0.408,-4.607 -1.483,-6.672c-8.007,-15.388 -27.558,3.337 -22.252,14.33c1.239,2.568 3.591,6.817 7.375,7.044c8.553,0.513 14.012,-13.616 7.795,-18.231c-0.596,-0.442 -3.884,0.911 -4.416,1.142c-3.953,1.712 -5.741,3.724 -1.912,6.282" style="fill:none;stroke:#332a32;stroke-width:3.39px;stroke-linecap:round;stroke-miterlimit:1.5;"/><path d="M495.746,247.882c3.274,-3.376 7.326,-9.659 9.067,-13.823c1.374,-3.286 2.047,-6.594 1.955,-10.099c-0.059,-2.293 -0.408,-4.715 -1.482,-6.829c-8.008,-15.747 -27.559,3.416 -22.253,14.666c1.239,2.628 3.591,6.977 7.376,7.209c8.552,0.525 14.011,-13.935 7.794,-18.658c-0.596,-0.452 -3.884,0.933 -4.416,1.169c-3.952,1.752 -5.741,3.811 -1.912,6.429" style="fill:none;stroke:#332a32;stroke-width:3.42px;stroke-linecap:round;stroke-miterlimit:1.5;"/><path d="M488.947,205.041c3.274,-3.485 7.326,-9.968 9.067,-14.265c1.374,-3.391 2.047,-6.805 1.955,-10.422c-0.059,-2.366 -0.408,-4.866 -1.482,-7.047c-8.008,-16.25 -27.559,3.525 -22.253,15.135c1.239,2.712 3.591,7.199 7.376,7.438c8.552,0.542 14.011,-14.379 7.794,-19.253c-0.596,-0.467 -3.884,0.963 -4.416,1.206c-3.952,1.808 -5.741,3.933 -1.912,6.635" style="fill:none;stroke:#332a32;stroke-width:3.47px;stroke-linecap:round;stroke-miterlimit:1.5;"/><path d="M485.011,161.384c3.274,-3.485 7.325,-9.968 9.067,-14.265c1.374,-3.391 2.046,-6.804 1.955,-10.421c-0.06,-2.366 -0.408,-4.866 -1.482,-7.047c-8.008,-16.251 -27.559,3.524 -22.253,15.134c1.239,2.712 3.591,7.199 7.375,7.439c8.553,0.541 14.012,-14.38 7.795,-19.254c-0.596,-0.467 -3.884,0.963 -4.416,1.206c-3.953,1.808 -5.741,3.933 -1.912,6.635" style="fill:none;stroke:#332a32;stroke-width:3.47px;stroke-linecap:round;stroke-miterlimit:1.5;"/></g><path d="M250.049,102.23c21.369,3.77 37.221,15.566 38.094,36.361" style="fill:none;stroke:#332a32;stroke-width:3.31px;stroke-linecap:round;stroke-miterlimit:1.5;"/><path d="M293.437,76.287c20.71,15.846 29.167,27.594 29.368,53.341" style="fill:none;stroke:#332a32;stroke-width:3.31px;stroke-linecap:round;stroke-miterlimit:1.5;"/><path d="M358.743,69.13c0.389,18.581 -1.383,37.116 0.383,55.665" style="fill:none;stroke:#332a32;stroke-width:3.31px;stroke-linecap:round;stroke-miterlimit:1.5;"/><path d="M415.997,75.84c-18.905,15.86 -25.113,27.856 -23.095,52.066" style="fill:none;stroke:#332a32;stroke-width:3.31px;stroke-linecap:round;stroke-miterlimit:1.5;"/><path d="M434.784,141.145c-2.367,-22.971 12.993,-45.234 43.501,-44.927" style="fill:none;stroke:#332a32;stroke-width:3.31px;stroke-linecap:round;stroke-miterlimit:1.5;"/></g></svg>