<?xml version="1.0" encoding="UTF-8" standalone="no"?><!DOCTYPE svg PUBLIC "-//W3C//DTD SVG 1.1//EN" "http://www.w3.org/Graphics/SVG/1.1/DTD/svg11.dtd"><svg width="100%" height="100%" viewBox="0 0 2506 2400" version="1.1" xmlns="http://www.w3.org/2000/svg" xmlns:xlink="http://www.w3.org/1999/xlink" xml:space="preserve" xmlns:serif="http://www.serif.com/" style="fill-rule:evenodd;clip-rule:evenodd;stroke-linejoin:round;stroke-miterlimit:2;"><rect id="Artboard2" x="0" y="0" width="2506" height="2400" style="fill:none;"/><g id="Artboard21" serif:id="Artboard2"><path d="M1376.64,569.317c-0,-88.743 79.266,-120.622 168.01,-120.622c88.743,-0 183.518,27.571 183.518,27.571l56.865,-337.743c-0,-0 -120.622,-41.356 -408.393,-41.356c-176.626,-0 -279.155,67.204 -354.113,166.286c-70.65,93.913 -73.235,244.691 -73.235,342.051l0,221.428l-228.321,0l0,329.989l228.321,-0l0,1145.91l427.348,0l-0,-1145.91l338.604,-0l24.986,-329.989l-363.59,0l-0,-257.615Z" style="fill:#e6136a;fill-rule:nonzero;"/></g></svg>