<?xml version="1.0" encoding="UTF-8" standalone="no"?><!DOCTYPE svg PUBLIC "-//W3C//DTD SVG 1.1//EN" "http://www.w3.org/Graphics/SVG/1.1/DTD/svg11.dtd"><svg width="100%" height="100%" viewBox="0 0 150 108" version="1.1" xmlns="http://www.w3.org/2000/svg" xmlns:xlink="http://www.w3.org/1999/xlink" xml:space="preserve" xmlns:serif="http://www.serif.com/" style="fill-rule:evenodd;clip-rule:evenodd;stroke-linejoin:round;stroke-miterlimit:2;"><g><path d="M149.171,46.422l0,14.32c0,3.952 -3.208,7.16 -7.16,7.16l-134.851,0c-3.952,0 -7.16,-3.208 -7.16,-7.16l0,-14.32c0,-3.952 3.208,-7.16 7.16,-7.16l134.851,0c3.952,0 7.16,3.208 7.16,7.16Z" style="fill:#e6136a;"/><path d="M149.171,85.684l0,14.32c0,3.952 -3.208,7.16 -7.16,7.16l-134.851,0c-3.952,0 -7.16,-3.208 -7.16,-7.16l0,-14.32c0,-3.952 3.208,-7.16 7.16,-7.16l134.851,0c3.952,0 7.16,3.208 7.16,7.16Z" style="fill:#e6136a;"/><path d="M149.171,7.16l0,14.32c0,3.952 -3.208,7.16 -7.16,7.16l-134.851,0c-3.952,0 -7.16,-3.208 -7.16,-7.16l0,-14.32c0,-3.952 3.208,-7.16 7.16,-7.16l134.851,0c3.952,0 7.16,3.208 7.16,7.16Z" style="fill:#e6136a;"/></g></svg>