<?xml version="1.0" encoding="UTF-8" standalone="no"?><!DOCTYPE svg PUBLIC "-//W3C//DTD SVG 1.1//EN" "http://www.w3.org/Graphics/SVG/1.1/DTD/svg11.dtd"><svg width="100%" height="100%" viewBox="0 0 150 88" version="1.1" xmlns="http://www.w3.org/2000/svg" xmlns:xlink="http://www.w3.org/1999/xlink" xml:space="preserve" xmlns:serif="http://www.serif.com/" style="fill-rule:evenodd;clip-rule:evenodd;stroke-linejoin:round;stroke-miterlimit:2;"><path d="M149.171,13.992c0,4.883 -3.965,8.848 -8.848,8.848l-131.475,0c-4.883,0 -8.848,-3.965 -8.848,-8.848c0,-4.883 3.965,-8.848 8.848,-8.848l131.475,0c4.883,0 8.848,3.965 8.848,8.848Z" style="fill:#e6136a;"/><circle cx="29.624" cy="13.992" r="13.992" style="fill:#e6136a;"/><path d="M-0,73.693c0,4.883 3.965,8.848 8.848,8.848l131.475,0c4.883,0 8.848,-3.965 8.848,-8.848c0,-4.883 -3.965,-8.848 -8.848,-8.848l-131.475,0c-4.883,0 -8.848,3.965 -8.848,8.848Z" style="fill:#e6136a;"/><circle cx="119.548" cy="73.693" r="13.992" style="fill:#e6136a;"/></svg>