<?xml version="1.0" encoding="UTF-8" standalone="no"?><!DOCTYPE svg PUBLIC "-//W3C//DTD SVG 1.1//EN" "http://www.w3.org/Graphics/SVG/1.1/DTD/svg11.dtd"><svg width="100%" height="100%" viewBox="0 0 717 714" version="1.1" xmlns="http://www.w3.org/2000/svg" xmlns:xlink="http://www.w3.org/1999/xlink" xml:space="preserve" xmlns:serif="http://www.serif.com/" style="fill-rule:evenodd;clip-rule:evenodd;stroke-linecap:round;stroke-linejoin:bevel;stroke-miterlimit:1.5;"><rect id="fermer-filtre" serif:id="fermer filtre" x="0" y="0" width="717" height="713.343" style="fill:none;"/><path d="M31.286,488.059l654.428,-0" style="fill:none;stroke:#000;stroke-width:38.88px;"/><path d="M31.286,302.284l654.428,-0" style="fill:none;stroke:#000;stroke-width:38.88px;"/><circle cx="175.885" cy="302.284" r="55.066"/><circle cx="535.305" cy="488.059" r="55.066"/><path d="M54.197,125.204l-5.942,0l-0,26.911c-0,3.542 -0.781,6.151 -2.343,7.827c-1.561,1.676 -3.599,2.514 -6.113,2.514c-2.705,0 -4.799,-0.876 -6.285,-2.628c-1.486,-1.752 -2.228,-4.323 -2.228,-7.713l-0,-64.449c-0,-3.656 0.819,-6.304 2.457,-7.942c1.637,-1.638 4.285,-2.456 7.941,-2.456l27.597,-0c3.809,-0 7.065,0.161 9.77,0.485c2.704,0.324 5.142,0.981 7.313,1.971c2.628,1.105 4.952,2.686 6.971,4.743c2.019,2.056 3.552,4.447 4.599,7.17c1.048,2.724 1.571,5.609 1.571,8.656c0,6.247 -1.761,11.237 -5.285,14.97c-3.523,3.732 -8.865,6.38 -16.026,7.941c3.009,1.6 5.885,3.962 8.627,7.085c2.743,3.124 5.19,6.447 7.342,9.97c2.152,3.524 3.828,6.704 5.028,9.542c1.2,2.838 1.8,4.79 1.8,5.856c-0,1.105 -0.352,2.2 -1.057,3.286c-0.705,1.085 -1.667,1.942 -2.885,2.571c-1.219,0.628 -2.629,0.942 -4.228,0.942c-1.905,0 -3.505,-0.447 -4.8,-1.342c-1.295,-0.895 -2.409,-2.029 -3.342,-3.4c-0.933,-1.371 -2.2,-3.39 -3.8,-6.056l-6.799,-11.313c-2.438,-4.152 -4.618,-7.313 -6.542,-9.484c-1.923,-2.172 -3.876,-3.657 -5.856,-4.457c-1.981,-0.8 -4.476,-1.2 -7.485,-1.2Zm9.713,-35.195l-15.655,-0l-0,23.025l15.198,0c4.076,0 7.504,-0.352 10.284,-1.057c2.781,-0.704 4.904,-1.904 6.371,-3.599c1.466,-1.695 2.2,-4.028 2.2,-6.999c-0,-2.324 -0.591,-4.371 -1.772,-6.142c-1.18,-1.772 -2.818,-3.095 -4.913,-3.971c-1.981,-0.838 -5.885,-1.257 -11.713,-1.257Z" style="fill-rule:nonzero;"/><path d="M155.098,134.574l-30.51,0c0.038,3.543 0.752,6.666 2.142,9.371c1.391,2.704 3.238,4.742 5.542,6.113c2.305,1.371 4.847,2.057 7.628,2.057c1.866,-0 3.571,-0.219 5.114,-0.657c1.542,-0.438 3.037,-1.124 4.485,-2.057c1.447,-0.933 2.78,-1.933 3.999,-3c1.219,-1.066 2.8,-2.514 4.743,-4.342c0.799,-0.686 1.942,-1.028 3.428,-1.028c1.599,-0 2.894,0.438 3.885,1.314c0.99,0.876 1.485,2.114 1.485,3.714c0,1.409 -0.552,3.056 -1.657,4.942c-1.104,1.885 -2.771,3.694 -4.999,5.428c-2.228,1.733 -5.028,3.171 -8.399,4.313c-3.371,1.143 -7.246,1.714 -11.627,1.714c-10.018,0 -17.807,-2.856 -23.368,-8.57c-5.561,-5.713 -8.342,-13.465 -8.342,-23.254c0,-4.609 0.686,-8.885 2.057,-12.827c1.371,-3.942 3.371,-7.323 5.999,-10.141c2.628,-2.819 5.866,-4.981 9.713,-6.485c3.847,-1.505 8.113,-2.257 12.798,-2.257c6.095,-0 11.323,1.285 15.684,3.856c4.361,2.572 7.628,5.895 9.799,9.971c2.171,4.075 3.257,8.227 3.257,12.455c-0,3.923 -1.124,6.466 -3.371,7.628c-2.248,1.161 -5.409,1.742 -9.485,1.742Zm-30.51,-8.856l28.282,0c-0.381,-5.332 -1.819,-9.322 -4.314,-11.97c-2.495,-2.647 -5.78,-3.97 -9.856,-3.97c-3.885,-0 -7.075,1.342 -9.57,4.028c-2.495,2.685 -4.009,6.656 -4.542,11.912Z" style="fill-rule:nonzero;"/><path d="M237.03,143.145c0,1.942 -0.581,4.018 -1.742,6.227c-1.162,2.21 -2.933,4.314 -5.314,6.314c-2.381,2 -5.38,3.609 -8.999,4.828c-3.618,1.219 -7.694,1.828 -12.227,1.828c-9.637,0 -17.159,-2.809 -22.568,-8.427c-5.409,-5.619 -8.114,-13.151 -8.114,-22.597c0,-6.4 1.238,-12.056 3.714,-16.97c2.476,-4.913 6.057,-8.713 10.742,-11.398c4.685,-2.685 10.284,-4.028 16.798,-4.028c4.037,-0 7.741,0.59 11.112,1.771c3.371,1.181 6.228,2.704 8.571,4.571c2.342,1.866 4.132,3.857 5.37,5.971c1.238,2.114 1.857,4.085 1.857,5.913c0,1.866 -0.695,3.447 -2.085,4.742c-1.39,1.295 -3.076,1.943 -5.057,1.943c-1.295,-0 -2.371,-0.333 -3.228,-1c-0.857,-0.667 -1.819,-1.743 -2.885,-3.228c-1.905,-2.895 -3.895,-5.066 -5.971,-6.514c-2.076,-1.447 -4.713,-2.171 -7.913,-2.171c-4.609,0 -8.323,1.8 -11.141,5.4c-2.819,3.599 -4.228,8.522 -4.228,14.769c-0,2.933 0.361,5.628 1.085,8.085c0.724,2.457 1.771,4.551 3.143,6.285c1.371,1.733 3.028,3.047 4.97,3.942c1.943,0.895 4.076,1.343 6.4,1.343c3.123,-0 5.799,-0.724 8.027,-2.172c2.228,-1.447 4.2,-3.656 5.914,-6.627c0.952,-1.752 1.98,-3.124 3.085,-4.114c1.104,-0.99 2.457,-1.485 4.056,-1.485c1.905,-0 3.486,0.723 4.743,2.171c1.257,1.447 1.885,2.99 1.885,4.628Z" style="fill-rule:nonzero;"/><path d="M262.97,85.324l-0,23.139c1.98,-2.285 3.913,-4.094 5.799,-5.427c1.885,-1.334 3.971,-2.333 6.256,-3c2.286,-0.667 4.742,-1 7.371,-1c3.961,0 7.475,0.838 10.541,2.514c3.066,1.676 5.476,4.114 7.228,7.313c1.104,1.867 1.847,3.952 2.228,6.257c0.381,2.304 0.571,4.961 0.571,7.97l0,29.882c0,3.123 -0.714,5.485 -2.142,7.085c-1.429,1.599 -3.324,2.399 -5.685,2.399c-5.142,0 -7.713,-3.161 -7.713,-9.484l-0,-26.34c-0,-4.989 -0.743,-8.827 -2.229,-11.512c-1.485,-2.686 -4.304,-4.028 -8.456,-4.028c-2.78,-0 -5.285,0.79 -7.513,2.371c-2.228,1.581 -3.895,3.742 -4.999,6.485c-0.838,2.323 -1.257,6.456 -1.257,12.398l-0,20.626c-0,3.085 -0.695,5.437 -2.086,7.056c-1.39,1.619 -3.323,2.428 -5.799,2.428c-5.142,0 -7.713,-3.161 -7.713,-9.484l-0,-67.648c-0,-3.162 0.676,-5.533 2.028,-7.114c1.352,-1.58 3.247,-2.371 5.685,-2.371c2.476,0 4.409,0.8 5.799,2.4c1.391,1.6 2.086,3.961 2.086,7.085Z" style="fill-rule:nonzero;"/><path d="M361.928,134.574l-30.51,0c0.038,3.543 0.752,6.666 2.142,9.371c1.391,2.704 3.238,4.742 5.543,6.113c2.304,1.371 4.847,2.057 7.627,2.057c1.867,-0 3.571,-0.219 5.114,-0.657c1.542,-0.438 3.037,-1.124 4.485,-2.057c1.447,-0.933 2.78,-1.933 3.999,-3c1.219,-1.066 2.8,-2.514 4.743,-4.342c0.799,-0.686 1.942,-1.028 3.428,-1.028c1.599,-0 2.895,0.438 3.885,1.314c0.99,0.876 1.485,2.114 1.485,3.714c0,1.409 -0.552,3.056 -1.657,4.942c-1.104,1.885 -2.771,3.694 -4.999,5.428c-2.228,1.733 -5.028,3.171 -8.399,4.313c-3.371,1.143 -7.246,1.714 -11.627,1.714c-10.018,0 -17.807,-2.856 -23.368,-8.57c-5.561,-5.713 -8.342,-13.465 -8.342,-23.254c0,-4.609 0.686,-8.885 2.057,-12.827c1.371,-3.942 3.371,-7.323 5.999,-10.141c2.628,-2.819 5.866,-4.981 9.713,-6.485c3.847,-1.505 8.113,-2.257 12.798,-2.257c6.095,-0 11.323,1.285 15.684,3.856c4.361,2.572 7.628,5.895 9.799,9.971c2.171,4.075 3.257,8.227 3.257,12.455c-0,3.923 -1.124,6.466 -3.371,7.628c-2.248,1.161 -5.409,1.742 -9.485,1.742Zm-30.51,-8.856l28.282,0c-0.381,-5.332 -1.819,-9.322 -4.314,-11.97c-2.495,-2.647 -5.78,-3.97 -9.856,-3.97c-3.885,-0 -7.075,1.342 -9.57,4.028c-2.495,2.685 -4.009,6.656 -4.542,11.912Z" style="fill-rule:nonzero;"/><path d="M403.408,139.945l0,13.027c0,3.161 -0.742,5.533 -2.228,7.113c-1.485,1.581 -3.371,2.371 -5.656,2.371c-2.248,0 -4.095,-0.8 -5.542,-2.399c-1.448,-1.6 -2.172,-3.962 -2.172,-7.085l0,-43.423c0,-7.009 2.533,-10.513 7.599,-10.513c2.591,0 4.457,0.819 5.6,2.457c1.142,1.638 1.771,4.057 1.885,7.256c1.867,-3.199 3.781,-5.618 5.742,-7.256c1.962,-1.638 4.581,-2.457 7.856,-2.457c3.276,0 6.457,0.819 9.542,2.457c3.085,1.638 4.628,3.809 4.628,6.513c-0,1.905 -0.657,3.476 -1.971,4.714c-1.314,1.238 -2.733,1.857 -4.257,1.857c-0.571,-0 -1.952,-0.352 -4.142,-1.057c-2.19,-0.705 -4.123,-1.057 -5.799,-1.057c-2.286,-0 -4.152,0.6 -5.6,1.8c-1.447,1.2 -2.571,2.98 -3.371,5.342c-0.799,2.361 -1.352,5.171 -1.657,8.427c-0.304,3.257 -0.457,7.228 -0.457,11.913Z" style="fill-rule:nonzero;"/><path d="M492.083,143.145c-0,1.942 -0.581,4.018 -1.743,6.227c-1.162,2.21 -2.933,4.314 -5.314,6.314c-2.38,2 -5.38,3.609 -8.999,4.828c-3.618,1.219 -7.694,1.828 -12.227,1.828c-9.636,0 -17.159,-2.809 -22.568,-8.427c-5.409,-5.619 -8.113,-13.151 -8.113,-22.597c-0,-6.4 1.238,-12.056 3.714,-16.97c2.475,-4.913 6.056,-8.713 10.741,-11.398c4.685,-2.685 10.284,-4.028 16.798,-4.028c4.037,-0 7.742,0.59 11.113,1.771c3.371,1.181 6.227,2.704 8.57,4.571c2.343,1.866 4.133,3.857 5.371,5.971c1.238,2.114 1.857,4.085 1.857,5.913c-0,1.866 -0.696,3.447 -2.086,4.742c-1.39,1.295 -3.076,1.943 -5.056,1.943c-1.295,-0 -2.371,-0.333 -3.228,-1c-0.857,-0.667 -1.819,-1.743 -2.886,-3.228c-1.904,-2.895 -3.895,-5.066 -5.97,-6.514c-2.076,-1.447 -4.714,-2.171 -7.914,-2.171c-4.609,0 -8.322,1.8 -11.141,5.4c-2.819,3.599 -4.228,8.522 -4.228,14.769c-0,2.933 0.362,5.628 1.085,8.085c0.724,2.457 1.772,4.551 3.143,6.285c1.371,1.733 3.028,3.047 4.971,3.942c1.942,0.895 4.075,1.343 6.399,1.343c3.123,-0 5.799,-0.724 8.027,-2.172c2.229,-1.447 4.2,-3.656 5.914,-6.627c0.952,-1.752 1.981,-3.124 3.085,-4.114c1.105,-0.99 2.457,-1.485 4.057,-1.485c1.904,-0 3.485,0.723 4.742,2.171c1.257,1.447 1.886,2.99 1.886,4.628Z" style="fill-rule:nonzero;"/><path d="M518.022,85.324l-0,23.139c1.981,-2.285 3.914,-4.094 5.799,-5.427c1.886,-1.334 3.971,-2.333 6.257,-3c2.285,-0.667 4.742,-1 7.37,-1c3.961,0 7.475,0.838 10.541,2.514c3.067,1.676 5.476,4.114 7.228,7.313c1.105,1.867 1.847,3.952 2.228,6.257c0.381,2.304 0.572,4.961 0.572,7.97l-0,29.882c-0,3.123 -0.714,5.485 -2.143,7.085c-1.428,1.599 -3.323,2.399 -5.685,2.399c-5.142,0 -7.713,-3.161 -7.713,-9.484l-0,-26.34c-0,-4.989 -0.743,-8.827 -2.228,-11.512c-1.486,-2.686 -4.305,-4.028 -8.456,-4.028c-2.781,-0 -5.285,0.79 -7.514,2.371c-2.228,1.581 -3.894,3.742 -4.999,6.485c-0.838,2.323 -1.257,6.456 -1.257,12.398l-0,20.626c-0,3.085 -0.695,5.437 -2.085,7.056c-1.391,1.619 -3.324,2.428 -5.8,2.428c-5.142,0 -7.713,-3.161 -7.713,-9.484l0,-67.648c0,-3.162 0.676,-5.533 2.028,-7.114c1.353,-1.58 3.248,-2.371 5.685,-2.371c2.476,0 4.409,0.8 5.8,2.4c1.39,1.6 2.085,3.961 2.085,7.085Z" style="fill-rule:nonzero;"/><path d="M616.98,134.574l-30.51,0c0.038,3.543 0.752,6.666 2.143,9.371c1.39,2.704 3.237,4.742 5.542,6.113c2.304,1.371 4.847,2.057 7.627,2.057c1.867,-0 3.571,-0.219 5.114,-0.657c1.543,-0.438 3.038,-1.124 4.485,-2.057c1.448,-0.933 2.781,-1.933 4,-3c1.219,-1.066 2.799,-2.514 4.742,-4.342c0.8,-0.686 1.942,-1.028 3.428,-1.028c1.6,-0 2.895,0.438 3.885,1.314c0.991,0.876 1.486,2.114 1.486,3.714c-0,1.409 -0.553,3.056 -1.657,4.942c-1.105,1.885 -2.771,3.694 -5,5.428c-2.228,1.733 -5.027,3.171 -8.398,4.313c-3.371,1.143 -7.247,1.714 -11.627,1.714c-10.018,0 -17.808,-2.856 -23.369,-8.57c-5.561,-5.713 -8.342,-13.465 -8.342,-23.254c0,-4.609 0.686,-8.885 2.057,-12.827c1.371,-3.942 3.371,-7.323 5.999,-10.141c2.629,-2.819 5.866,-4.981 9.713,-6.485c3.848,-1.505 8.114,-2.257 12.799,-2.257c6.094,-0 11.322,1.285 15.683,3.856c4.362,2.572 7.628,5.895 9.799,9.971c2.171,4.075 3.257,8.227 3.257,12.455c-0,3.923 -1.124,6.466 -3.371,7.628c-2.247,1.161 -5.409,1.742 -9.485,1.742Zm-30.51,-8.856l28.282,0c-0.381,-5.332 -1.819,-9.322 -4.314,-11.97c-2.494,-2.647 -5.78,-3.97 -9.855,-3.97c-3.886,-0 -7.076,1.342 -9.571,4.028c-2.495,2.685 -4.009,6.656 -4.542,11.912Z" style="fill-rule:nonzero;"/><path d="M658.461,139.945l-0,13.027c-0,3.161 -0.743,5.533 -2.229,7.113c-1.485,1.581 -3.371,2.371 -5.656,2.371c-2.247,0 -4.095,-0.8 -5.542,-2.399c-1.448,-1.6 -2.171,-3.962 -2.171,-7.085l-0,-43.423c-0,-7.009 2.533,-10.513 7.599,-10.513c2.59,0 4.456,0.819 5.599,2.457c1.143,1.638 1.771,4.057 1.885,7.256c1.867,-3.199 3.781,-5.618 5.743,-7.256c1.961,-1.638 4.58,-2.457 7.856,-2.457c3.275,0 6.456,0.819 9.541,2.457c3.086,1.638 4.628,3.809 4.628,6.513c0,1.905 -0.657,3.476 -1.971,4.714c-1.314,1.238 -2.733,1.857 -4.256,1.857c-0.572,-0 -1.953,-0.352 -4.143,-1.057c-2.19,-0.705 -4.123,-1.057 -5.799,-1.057c-2.285,-0 -4.152,0.6 -5.599,1.8c-1.448,1.2 -2.571,2.98 -3.371,5.342c-0.8,2.361 -1.352,5.171 -1.657,8.427c-0.305,3.257 -0.457,7.228 -0.457,11.913Z" style="fill-rule:nonzero;"/></svg>