<?xml version="1.0" encoding="UTF-8" standalone="no"?><!DOCTYPE svg PUBLIC "-//W3C//DTD SVG 1.1//EN" "http://www.w3.org/Graphics/SVG/1.1/DTD/svg11.dtd"><svg width="100%" height="100%" viewBox="0 0 2398 2400" version="1.1" xmlns="http://www.w3.org/2000/svg" xmlns:xlink="http://www.w3.org/1999/xlink" xml:space="preserve" xmlns:serif="http://www.serif.com/" style="fill-rule:evenodd;clip-rule:evenodd;stroke-linejoin:round;stroke-miterlimit:2;"><rect id="Artboard1" x="0" y="0" width="2398" height="2400" style="fill:none;"/><g id="Artboard11" serif:id="Artboard1"><g><path d="M868.417,212.804c-87.084,3.333 -170,12.083 -212.5,22.916c-114.584,28.75 -198.334,74.584 -272.084,148.334c-92.916,92.916 -144.583,207.5 -163.333,361.666c-8.333,69.584 -12.5,234.584 -12.5,502.084c-0,471.666 8.333,567.083 60,694.583c25.417,62.917 55.833,109.167 103.75,160c62.5,65.833 112.083,99.583 190.417,131.25c122.916,49.167 223.75,57.917 681.25,57.917c436.25,-0.417 540,-7.084 651.666,-42.5c93.75,-30 152.084,-66.25 223.334,-138.334c57.5,-58.75 84.583,-99.166 112.916,-168.333c51.667,-127.5 60,-222.917 60,-694.583c0,-267.5 -4.166,-432.5 -12.5,-502.084c-18.75,-154.583 -70.416,-269.583 -163.333,-361.666c-75,-74.584 -148.333,-115.834 -257.5,-144.167c-56.667,-15 -122.917,-22.5 -238.333,-27.5c-114.584,-4.583 -624.584,-4.583 -751.25,0.417Zm739.583,187.083c56.25,2.083 117.083,5.833 135.417,8.333c202.916,27.5 320.833,145.417 347.916,348.334c8.334,62.916 12.5,224.166 12.5,493.333c0,269.167 -4.166,430.417 -12.5,493.333c-19.583,146.667 -89.166,252.5 -201.666,306.667c-100,48.333 -216.667,56.667 -727.5,52.917c-322.5,-2.5 -386.667,-5.417 -459.167,-21.667c-153.75,-34.167 -250.417,-130.833 -284.583,-284.583c-16.667,-75 -19.167,-132.5 -21.667,-459.167c-2.083,-305 1.667,-503.333 11.25,-577.917c26.25,-206.25 144.583,-324.583 351.25,-351.666c20.417,-2.5 70,-5.834 110.417,-7.917c110.833,-4.583 622.083,-4.583 738.333,0Z" style="fill:#e6136a;fill-rule:nonzero;"/><path d="M1749.25,584.47c-75.417,38.75 -90.833,137.084 -31.25,197.084c60,59.583 158.333,44.166 197.083,-31.25c11.667,-22.5 13.75,-30.417 13.75,-56.25c0,-71.667 -52.083,-123.334 -123.75,-123.334c-25.416,0 -33.333,2.084 -55.833,13.75Z" style="fill:#e6136a;fill-rule:nonzero;"/><path d="M1160.08,722.387c-96.666,18.75 -174.166,53.75 -245.416,111.25c-190,152.5 -252.084,418.75 -150,641.25c51.666,112.083 147.916,208.333 260,260c122.916,56.25 266.666,64.167 394.583,21.25c82.083,-27.5 144.583,-66.25 207.5,-129.167c73.333,-72.916 118.333,-152.916 144.583,-258.333c8.334,-32.5 9.584,-48.333 9.584,-118.75c-0,-74.583 -0.834,-85 -11.25,-125.417c-49.584,-195.833 -197.917,-345 -392.5,-393.75c-35.417,-9.166 -53.75,-11.25 -115,-12.5c-50,-0.833 -82.084,0.417 -102.084,4.167Zm159.584,188.333c240,49.167 353.75,328.334 217.083,532.5c-135.417,202.917 -438.75,202.917 -574.167,0c-121.666,-181.666 -47.083,-429.583 155,-513.333c60.417,-25.417 137.5,-32.5 202.084,-19.167Z" style="fill:#e6136a;fill-rule:nonzero;"/></g></g></svg>