<?xml version="1.0" encoding="UTF-8" standalone="no"?><!DOCTYPE svg PUBLIC "-//W3C//DTD SVG 1.1//EN" "http://www.w3.org/Graphics/SVG/1.1/DTD/svg11.dtd"><svg width="100%" height="100%" viewBox="0 0 900 597" version="1.1" xmlns="http://www.w3.org/2000/svg" xmlns:xlink="http://www.w3.org/1999/xlink" xml:space="preserve" xmlns:serif="http://www.serif.com/" style="fill-rule:evenodd;clip-rule:evenodd;stroke-linecap:round;stroke-linejoin:round;stroke-miterlimit:1.5;"><g><g><path d="M807.06,188.232c4.597,-2.273 15.491,-7.729 20.513,-7.705c14.098,0.068 46.389,121.113 40.732,134.985c-5.533,13.571 -67.097,-124.386 -61.245,-127.28Z" style="fill:#1bcdf5;stroke:#332a32;stroke-width:1.73px;"/><path d="M816.347,183.367c-3.835,0.918 -3.944,3.075 -7.915,3.241c-27.129,1.129 -13.539,-40.894 -14.669,-53.387c-1.066,-11.785 -9.294,-12.103 -11.085,-16.964c-0.424,-1.15 2.42,0.388 3.629,0.588c2.642,0.438 5.265,0.951 7.873,1.556c7.826,1.817 15.556,4.772 21.707,10.101c17.147,14.854 28.447,37.002 8.471,52.014c-0.302,0.227 -8.011,2.851 -8.011,2.851Z" style="fill:#ccb37e;stroke:#332a32;stroke-width:1.73px;"/><path d="M793.981,136.49c2.399,1.109 5.591,3.011 8.146,1.196c1.911,-1.358 2.739,-3.727 4.908,-4.821c2.303,-1.162 7.839,-1.658 6.236,-5.807c-0.217,-0.56 -0.557,-1.032 -0.945,-1.487c-2.053,-2.404 -5.094,-3.306 -7.925,-4.415c-3.426,-1.343 -7.038,-2.125 -10.588,-3.067c-3.917,-1.04 -6.952,-2.582 -11.038,-2.744c-7.753,-0.308 -8.578,14.396 -1.083,12.646c8.128,-1.897 0.29,-7.047 2.351,-7.158c4.903,-0.265 7.45,4.445 8.662,8.023c0.331,0.976 0.599,1.971 0.827,2.976c0.285,1.258 0.351,3.367 0.449,4.658Z" style="fill:#ff83b2;stroke:#332a32;stroke-width:1.73px;"/></g><path d="M114.483,559.761c-30.593,-86.335 -30.241,-429.566 0,-515.901c20.097,-57.372 148.993,-53.825 181.452,-2.108c33.559,53.468 65.269,218.477 99.793,218.828c34.524,0.352 60.272,-180.6 107.352,-216.72c46.411,-35.607 156.268,-55.556 175.127,0c29.188,85.984 29.715,429.39 -0,515.901c-19.406,56.497 -148.574,35.153 -178.289,3.162c-29.715,-31.99 11.391,-182.392 -0,-195.106c-11.391,-12.713 -46.392,99.023 -68.347,118.827c-15.727,14.187 -47.728,14.268 -63.382,0c-21.727,-19.804 -55.293,-131.364 -66.984,-118.827c-11.691,12.538 27.958,162.062 -3.162,194.052c-31.12,31.991 -163.02,55.856 -183.56,-2.108Z" style="fill:#f5e11b;fill-rule:nonzero;stroke:#332a32;stroke-width:3.79px;stroke-linecap:butt;stroke-miterlimit:2;"/><path d="M135.671,540.56c-23.946,-79.204 -23.946,-396.021 -0,-475.225c13.859,-45.842 113.604,-47.64 143.672,-0c31.087,49.253 68.871,191.576 108.013,191.576c39.141,0 81.752,-159.647 126.837,-191.576c39.082,-27.679 129.814,-45.842 143.673,-0c23.945,79.204 23.945,396.021 -0,475.225c-13.859,45.841 -119.728,41.444 -143.673,-0c-23.945,-41.444 14.62,-234.85 -0,-248.664c-14.621,-13.815 -63.317,138.146 -87.723,165.776c-12.957,14.667 -45.722,14.637 -58.713,-0c-24.521,-27.63 -73.678,-179.591 -88.414,-165.776c-14.735,13.814 23.946,207.22 0,248.664c-23.945,41.444 -129.813,45.841 -143.672,-0Z" style="fill:#e6136a;fill-rule:nonzero;"/><g><path d="M344.227,335.277c-5.114,1.959 -7.646,5.401 -5.832,10.94" style="fill:none;stroke:#332a32;stroke-width:3.41px;"/><path d="M444.36,337.856c3.543,2.324 7.796,6.148 6.272,10.915" style="fill:none;stroke:#332a32;stroke-width:3.41px;"/></g><g><ellipse cx="338.48" cy="236.381" rx="59.411" ry="57.169" style="fill:#fcfbdb;"/><clipPath id="_clip1"><ellipse cx="338.48" cy="236.381" rx="59.411" ry="57.169"/></clipPath><g clip-path="url(#_clip1)"><path d="M325.306,292.686c0.599,-10.638 7.948,-93.013 17.49,-106.201c3.202,-4.424 7.963,-10.264 12.796,-12.095c15.167,-5.749 32.863,11.152 42.448,22.652c5.79,6.946 11.431,15.807 13.706,25.222c6.084,25.181 -3.448,57.156 -23.448,69.756c-7.948,5.007 -16.216,8.516 -25.336,8.344c-13.104,-0.247 -26.296,-3.252 -38.694,-8.143c-0.211,-0.083 1.038,0.465 1.038,0.465Z" style="fill:#332a32;"/></g><ellipse cx="338.48" cy="236.381" rx="59.411" ry="57.169" style="fill:none;stroke:#332a32;stroke-width:3.6px;"/><ellipse cx="354.314" cy="230.282" rx="7.346" ry="7.346" style="fill:#fcfbdb;stroke:#332a32;stroke-width:3.6px;"/><ellipse cx="348.945" cy="254.91" rx="4.898" ry="4.285" style="fill:#fcfbdb;stroke:#332a32;stroke-width:3.6px;"/></g><g><ellipse cx="443.627" cy="239.754" rx="59.411" ry="57.169" style="fill:#fcfbdb;"/><clipPath id="_clip2"><ellipse cx="443.627" cy="239.754" rx="59.411" ry="57.169"/></clipPath><g clip-path="url(#_clip2)"><path d="M431.795,295.612c0.599,-10.638 7.948,-93.013 17.49,-106.201c3.202,-4.424 7.963,-10.264 12.796,-12.095c15.167,-5.749 32.863,11.152 42.448,22.652c5.79,6.946 11.431,15.807 13.706,25.222c6.084,25.181 -3.448,57.156 -23.448,69.755c-7.948,5.008 -16.216,8.517 -25.336,8.345c-13.104,-0.247 -26.296,-3.252 -38.694,-8.143c-0.211,-0.083 1.038,0.465 1.038,0.465Z" style="fill:#332a32;"/></g><ellipse cx="443.627" cy="239.754" rx="59.411" ry="57.169" style="fill:none;stroke:#332a32;stroke-width:3.6px;"/><path d="M455.158,229.218c3.928,-1.004 7.932,1.37 8.936,5.298c1.004,3.929 -1.37,7.933 -5.299,8.937c-3.928,1.004 -7.932,-1.371 -8.936,-5.299c-1.004,-3.928 1.37,-7.933 5.299,-8.936Z" style="fill:#fcfbdb;stroke:#332a32;stroke-width:3.6px;"/><path d="M454.561,253.752c2.618,-0.67 5.22,0.648 5.806,2.939c0.585,2.292 -1.066,4.695 -3.685,5.364c-2.618,0.67 -5.22,-0.647 -5.806,-2.939c-0.585,-2.291 1.066,-4.695 3.685,-5.364Z" style="fill:#fcfbdb;stroke:#332a32;stroke-width:3.6px;"/></g><g><path d="M394.495,346.013c21.363,0 40.03,-4.994 40.03,3.029c-0,8.022 -18.006,24.832 -39.368,24.832c-21.363,-0 -40.03,-16.81 -40.03,-24.832c-0,-8.023 18.005,-3.029 39.368,-3.029Z" style="fill:#fcfbdb;stroke:#332a32;stroke-width:3.6px;"/><path d="M371.483,344.436l-1.654,20.455" style="fill:none;stroke:#332a32;stroke-width:3.6px;"/><path d="M414.209,346.855l1.556,20.461" style="fill:none;stroke:#332a32;stroke-width:3.6px;"/><path d="M394.765,346.228l-0.716,25.346" style="fill:none;stroke:#332a32;stroke-width:3.6px;"/></g><g><g><path d="M695.874,320.45c12.178,-6.206 48.442,-2.678 62.037,-4.794c6.939,-1.081 14.509,-3.895 19.53,-7.905c5.021,-4.011 4.962,-13.035 10.595,-16.158c5.825,-3.231 21.017,-7.433 24.357,-3.225c3.341,4.209 0.385,20.103 -4.313,28.474c-5.252,9.357 -15.33,22.526 -27.195,27.67c-17.394,7.541 -61.163,16.181 -77.171,17.577c-6.973,0.609 -17.58,-2.319 -18.875,-9.198c-1.307,-6.939 0.858,-27.255 11.035,-32.441Z" style="fill:#f5e11b;stroke:#332a32;stroke-width:2.69px;"/></g><g><g><path d="M813.95,318.223c9.756,5.327 21.181,8.293 32.217,5.96c11.41,-2.412 22.491,-10.356 31.828,-16.963c7.086,-5.015 17.519,-10.357 19.202,-19.772c2.094,-11.713 -7.164,-16.918 -17.278,-17.328c-0.284,-0.011 0.249,-4.73 0.286,-5.051c0.39,-3.392 0.788,-6.733 -0.447,-10.004c-1.341,-3.552 -4.146,-6.139 -7.732,-7.419c-0.569,-0.204 -5.011,-0.566 -5.058,-0.643c-0.574,-0.926 1.08,-4.634 1.234,-5.797c0.682,-5.158 -1.373,-9.065 -6.088,-11.4c-14.145,-7.006 -23.518,9.278 -33.089,16.008c-1.129,0.794 -7.26,-1.861 -8.603,-2.195c-5.871,-1.462 -11.575,-1.701 -16.818,1.717c-11.174,7.285 -8.584,24.239 -9.625,35.686c-0.075,0.822 -14.677,-3.376 -13.226,6.927c4.069,28.893 29.644,48.312 33.197,30.274Z" style="fill:#fcfbdb;stroke:#332a32;stroke-width:3.31px;"/><path d="M889.036,299.373c-4.075,2.436 -8.268,4.515 -12.594,6.459c-6.541,2.94 -13.979,5.768 -21.144,3c-2.012,-0.777 -4.311,-2.306 -5.41,-4.223c-1.787,-3.118 -1.13,-8.278 0.214,-11.462c1.971,-4.671 5.915,-8.065 9.833,-11.105c3.237,-2.513 6.515,-4.988 10.084,-7.026" style="fill:none;stroke:#332a32;stroke-width:3.31px;"/><path d="M855.208,285.39c-6.051,1.427 -13.932,0.56 -16.01,-6.459c-0.381,-1.288 -0.577,-2.581 -0.568,-3.925c0.01,-1.578 0.281,-3.196 0.941,-4.637c2.139,-4.668 5.923,-7.871 9.937,-10.859c3.595,-2.678 7.266,-5.045 11.144,-7.285" style="fill:none;stroke:#332a32;stroke-width:3.31px;"/><path d="M841.048,266.096c-2.324,0.602 -5.073,1.052 -7.428,0.4c-5.309,-1.471 -9.532,-7.852 -8.754,-13.329c0.794,-5.6 3.595,-6.448 7.564,-10.063" style="fill:none;stroke:#332a32;stroke-width:3.31px;"/><path d="M834.78,267.221c1.754,2.656 4.031,3.723 3.701,6.901c-0.22,2.118 0.408,6.491 3.251,9.081c1.138,1.036 0.86,2.237 0.401,3.799c-0.954,3.244 -6.167,3.422 -8.777,2.946c-0.694,-0.127 -1.395,-0.245 -2.081,-0.41c-0.869,-0.209 -1.745,-0.446 -2.575,-0.783c-2.478,-1.004 -4.524,-2.605 -6.692,-4.132c-1.805,-1.271 -3.697,-2.437 -5.304,-3.966c-3.822,-3.635 -6.576,-8.92 -6.669,-14.277" style="fill:none;stroke:#332a32;stroke-width:3.31px;"/><path d="M815.634,318.718c-3.045,-3.494 -5.055,-7.041 -6.731,-11.353" style="fill:none;stroke:#332a32;stroke-width:3.31px;"/><path d="M801.129,293.291c-1.697,-3.866 -3.965,-10.268 -7.958,-12.299" style="fill:none;stroke:#332a32;stroke-width:3.31px;"/></g></g></g><clipPath id="_clip3"><polygon id="JEMA-GER-1639-10.eps" serif:id="JEMA GER 1639-10.eps" points="120.194,253.498 307.647,359.239 187.453,572.313 -0,466.573 120.194,253.498 "/></clipPath><g clip-path="url(#_clip3)"><path id="Plan-de-travail1" serif:id="Plan de travail1" d="M307.647,359.239l-187.453,-105.741l-120.194,213.075l187.453,105.74l120.194,-213.074Z" style="fill:none;"/><g id="Plan-de-travail11" serif:id="Plan de travail1"><g><path d="M167.369,527.833l-1.013,-0.572l10.369,-18.382c0.968,-0.258 1.836,-0.886 2.363,-1.821l79.413,-140.78c1.04,-1.843 0.383,-4.2 -1.46,-5.24l-102.383,-57.753c-0,-0 -11.286,-7.096 -19.529,1.464l-81.726,144.881c-7.526,13.343 0.962,17.241 0.962,17.241l111.814,63.073c0.596,0.217 1.123,0.259 1.471,-0.338c0.658,-1.132 -0.281,-1.773 -0.281,-1.773Z" style="fill:#bfd0d4;fill-rule:nonzero;"/><path d="M167.369,527.833l-1.013,-0.572l1.159,-2.055l-114.85,-64.786c-0.512,-4.215 2.643,-9.221 2.643,-9.221c5.021,-8.376 16.158,-0.435 16.158,-0.435l102.383,57.754c0.906,0.511 1.938,0.61 2.876,0.361c0.968,-0.258 1.836,-0.886 2.363,-1.821l79.413,-140.78c1.04,-1.843 0.383,-4.2 -1.46,-5.24l-102.383,-57.753c-0,-0 -11.286,-7.096 -19.529,1.464l-81.726,144.881c-7.526,13.343 0.962,17.241 0.962,17.241l111.814,63.073c0.596,0.217 1.123,0.259 1.471,-0.338c0.658,-1.132 -0.281,-1.773 -0.281,-1.773Z" style="fill:#2a85c1;fill-rule:nonzero;"/><path d="M72.355,449.188l82.303,-145.903c-0,-0 -11.286,-7.096 -19.529,1.464l-81.726,144.881c0,0 5.05,-8.952 18.952,-0.442Z" style="fill:#00736d;fill-rule:nonzero;"/><path d="M224.426,380.899l-71.952,-40.588l-18.102,32.092l71.952,40.587l18.102,-32.091Z" style="fill:#00736d;fill-rule:nonzero;"/><path d="M136.569,314.736c2.52,0.189 4.912,0.884 6.71,1.568c1.799,0.682 3.004,1.348 3.173,1.444l0.018,0.01l0.007,0.004l0.011,0.006l1.62,-2.871l-0.036,-0.02c-0.498,-0.275 -4.338,-2.401 -9.33,-3.201c-2.352,-0.373 -4.976,-0.44 -7.619,0.176l-2.535,4.493c0.939,-0.538 1.907,-0.93 2.898,-1.196c1.67,-0.444 3.402,-0.54 5.083,-0.413Z" style="fill:#e79d40;fill-rule:nonzero;"/><path d="M132.861,322.946c2.655,-0.04 5.069,0.508 6.804,1.07c0.866,0.28 1.563,0.562 2.034,0.771c0.235,0.104 0.414,0.189 0.531,0.246c0.057,0.029 0.098,0.05 0.124,0.063l1.62,-2.872l-0.013,-0.007l-0.015,-0.008c-0.12,-0.059 -3.871,-2.089 -9.105,-2.496c-2.615,-0.2 -5.612,0.018 -8.662,1.15c-0.06,0.022 -0.12,0.05 -0.18,0.073l-3.144,5.572c1.475,-1.177 2.978,-1.999 4.47,-2.555c1.887,-0.699 3.764,-0.982 5.536,-1.007Z" style="fill:#e79d40;fill-rule:nonzero;"/><path d="M73.126,427.205c2.52,0.188 4.913,0.883 6.711,1.567c1.799,0.682 3.003,1.348 3.173,1.444l0.036,0.02l1.619,-2.871l-0.035,-0.02c-0.499,-0.275 -4.339,-2.4 -9.33,-3.201c-2.353,-0.373 -4.976,-0.44 -7.619,0.175l-2.535,4.494c0.938,-0.538 1.907,-0.929 2.898,-1.196c1.669,-0.444 3.402,-0.54 5.082,-0.412Z" style="fill:#e79d40;fill-rule:nonzero;"/><path d="M69.419,435.413c2.655,-0.039 5.069,0.509 6.803,1.07c0.867,0.281 1.563,0.564 2.034,0.771c0.236,0.105 0.415,0.191 0.531,0.248c0.058,0.028 0.099,0.049 0.125,0.062l1.62,-2.872l-0.028,-0.015c-0.12,-0.058 -3.872,-2.089 -9.105,-2.496c-2.615,-0.2 -5.613,0.018 -8.662,1.149c-0.061,0.023 -0.121,0.051 -0.181,0.074l-3.143,5.572c1.475,-1.177 2.978,-1.999 4.47,-2.554c1.887,-0.701 3.764,-0.983 5.536,-1.009Z" style="fill:#e79d40;fill-rule:nonzero;"/><path d="M167.369,527.833l-112.151,-63.264c-1.635,-1.055 -2.358,-2.544 -2.553,-4.149c-0.512,-4.215 2.643,-9.221 2.643,-9.221c5.021,-8.376 16.158,-0.435 16.158,-0.435l102.383,57.754c0.906,0.511 1.938,0.61 2.876,0.361c0.968,-0.258 1.836,-0.886 2.363,-1.821l0.889,-1.576c-1.039,1.843 -3.396,2.499 -5.239,1.46l-102.383,-57.754c-13.902,-8.51 -18.952,0.442 -18.952,0.442c-7.526,13.343 0.962,17.241 0.962,17.241l111.814,63.073c0.596,0.217 1.123,0.259 1.471,-0.338c0.658,-1.132 -0.281,-1.773 -0.281,-1.773Z" style="fill:#00736d;fill-rule:nonzero;"/><path d="M64.928,456.71c9.778,2.108 19.249,6.446 28.126,10.951c9.616,4.881 18.839,10.485 28.074,16.039c9.168,5.512 18.458,10.685 27.911,15.689c4.724,2.501 9.547,5.011 13.868,8.175c3.415,2.501 6.658,5.369 10.329,7.5l3.489,-6.185c-0.938,0.249 -1.97,0.15 -2.876,-0.361l-102.383,-57.754c-0,0 -11.137,-7.941 -16.158,0.435c0,-0 -1.227,1.947 -2.027,4.435c3.871,-0.086 7.759,0.237 11.647,1.076Z" style="fill:#9eb1b5;fill-rule:nonzero;"/></g></g></g><g><g><path d="M106.313,353.758c-3.168,8.046 -20.032,7.962 -22.826,12.768c-2.795,4.806 2.782,11.38 6.057,16.065c3.275,4.685 10.403,6.899 13.591,12.045c4.081,6.585 18.262,24.602 10.892,27.464c-7.37,2.862 -42.581,0.121 -55.11,-10.294c-12.528,-10.415 -22.098,-37.671 -20.061,-52.197c2.036,-14.526 21.674,-28.065 32.28,-34.958c8.945,-5.814 25.496,-11.255 31.358,-6.404c5.863,4.851 6.987,27.464 3.819,35.511Z" style="fill:#f5e11b;stroke:#332a32;stroke-width:2.9px;"/></g><g><path d="M110.585,388.094c-1.738,-0.503 -4.097,-2.897 -6.049,-2.647c-3.807,0.489 -4.312,6.303 -4.731,8.805c-1.386,8.275 2.434,16.811 7.076,23.459c2.217,3.175 5.782,8.688 9.718,9.9c3.605,1.11 12.278,0.672 11.795,-4.421c-0.351,-3.696 3.444,-2.325 6.851,-0.761c6.481,2.975 11.327,7.728 16.092,12.874c2.16,2.333 5.441,6.653 9.088,6.336c5.267,-0.457 6.877,-8.048 5.766,-12.128c-1.231,-4.516 -3.523,-7.929 -6.292,-11.609c-1.061,-1.411 -3.591,-3.683 -3.666,-5.531c-0.094,-2.294 2.358,-4.882 3.813,-6.326c3.437,-3.41 7.664,-6.006 10.923,-9.608c6.21,-6.865 10.896,-15.9 14.264,-24.482c1.891,-4.818 4.55,-10.668 2.511,-15.862c-1.778,-4.526 -5.453,-6.064 -9.845,-4.139c-0.757,0.332 -8.316,6.191 -8.821,5.014c-1.612,-3.758 1.058,-24.224 -4.186,-27.857c-3.596,-2.492 -8.301,0.012 -10.821,2.983c-0.297,0.349 -3.943,6.56 -4.119,6.284c-1.776,-2.784 -3.827,-8.011 -8.196,-6.623c-9.026,2.868 -9.426,17.042 -11.504,24.473c-3.336,11.922 -12.792,22.094 -19.667,31.866Z" style="fill:#fcfbdb;stroke:#332a32;stroke-width:3.15px;"/><path d="M113.003,400.253c-2.664,-3.818 -4.312,-7.262 -2.687,-11.203" style="fill:none;stroke:#332a32;stroke-width:3.15px;"/><path d="M127.887,421.32c-2.602,-0.86 -8.077,-7.299 -8.559,-10.38" style="fill:none;stroke:#332a32;stroke-width:3.15px;"/><path d="M151.184,385.789c8.775,-6.076 11.862,-21.368 19.091,-29.023" style="fill:none;stroke:#332a32;stroke-width:3.15px;"/><path d="M138.102,373.169c6.642,-9.829 7.393,-23.025 12.843,-35.919" style="fill:none;stroke:#332a32;stroke-width:3.15px;"/></g></g></g></svg>