<?xml version="1.0" encoding="UTF-8" standalone="no"?><!DOCTYPE svg PUBLIC "-//W3C//DTD SVG 1.1//EN" "http://www.w3.org/Graphics/SVG/1.1/DTD/svg11.dtd"><svg width="100%" height="100%" viewBox="0 0 2512 2400" version="1.1" xmlns="http://www.w3.org/2000/svg" xmlns:xlink="http://www.w3.org/1999/xlink" xml:space="preserve" xmlns:serif="http://www.serif.com/" style="fill-rule:evenodd;clip-rule:evenodd;stroke-linejoin:round;stroke-miterlimit:2;"><rect id="Artboard3" x="0" y="0" width="2512" height="2400" style="fill:none;"/><g id="Artboard31" serif:id="Artboard3"><g><path d="M454.601,97.167c-160.489,-0 -291.157,130.642 -291.274,291.257c-0,160.614 130.667,291.282 291.274,291.282c160.547,-0 291.147,-130.668 291.147,-291.282c0,-160.598 -130.608,-291.257 -291.147,-291.257Z" style="fill:#e6136a;fill-rule:nonzero;"/><path d="M673.205,796.734l-437.242,-0c-20.799,-0 -37.669,16.862 -37.669,37.678l-0,1407.35c-0,20.807 16.87,37.669 37.669,37.669l437.234,0c20.807,0 37.677,-16.87 37.677,-37.669l0,-1407.35c0.009,-20.824 -16.862,-37.678 -37.669,-37.678Z" style="fill:#e6136a;fill-rule:nonzero;"/><path d="M1791,780.165c-160.01,0 -300.624,48.724 -386.429,128.175l0,-73.928c0,-20.816 -16.87,-37.678 -37.678,-37.678l-419.423,-0c-20.807,-0 -37.677,16.862 -37.677,37.678l-0,1407.35c-0,20.807 16.87,37.669 37.677,37.669l436.823,0c20.807,0 37.678,-16.87 37.678,-37.669l-0,-696.285c-0,-199.778 36.746,-323.605 220.131,-323.605c180.675,0.218 194.197,133.001 194.197,335.54l-0,684.35c-0,20.807 16.87,37.669 37.686,37.669l437.024,0c20.798,0 37.669,-16.87 37.669,-37.669l0,-771.993c-0.008,-321.07 -63.395,-689.605 -557.678,-689.605Z" style="fill:#e6136a;fill-rule:nonzero;"/></g></g></svg>