<?xml version="1.0" encoding="UTF-8" standalone="no"?><!DOCTYPE svg PUBLIC "-//W3C//DTD SVG 1.1//EN" "http://www.w3.org/Graphics/SVG/1.1/DTD/svg11.dtd"><svg width="100%" height="100%" viewBox="0 0 4123 1124" version="1.1" xmlns="http://www.w3.org/2000/svg" xmlns:xlink="http://www.w3.org/1999/xlink" xml:space="preserve" xmlns:serif="http://www.serif.com/" style="fill-rule:evenodd;clip-rule:evenodd;stroke-linejoin:round;stroke-miterlimit:2;"><rect id="Artboard1" x="0" y="0" width="4122.32" height="1123.87" style="fill:none;"/><g><g><g><path d="M1802.97,1044.41c-56.316,-158.917 -55.671,-790.751 -0,-949.668c36.993,-105.618 274.264,-99.084 334.015,-3.88c61.775,98.434 120.149,402.172 183.702,402.823c63.552,0.651 110.948,-332.452 197.612,-398.943c85.435,-65.539 287.658,-102.264 322.375,0c53.729,158.266 54.698,790.426 0,949.668c-35.723,104.016 -273.497,64.713 -328.195,5.832c-54.7,-58.905 20.968,-335.756 0,-359.163c-20.971,-23.407 -85.399,182.273 -125.813,218.747c-28.952,26.111 -87.859,26.261 -116.674,0c-39.997,-36.474 -101.782,-241.829 -123.303,-218.747c-21.521,23.081 51.464,298.331 -5.823,357.211c-57.286,58.905 -300.087,102.815 -337.896,-3.88Z" style="fill:#f5e11b;fill-rule:nonzero;stroke:#332a32;stroke-width:5.39px;"/></g><g><path d="M1841.97,1009.09c-44.08,-145.787 -44.08,-729.006 -0,-874.794c25.511,-84.378 209.122,-87.698 264.474,0c57.224,90.674 126.777,352.662 198.829,352.662c72.052,0 150.489,-293.881 233.483,-352.662c71.944,-50.94 238.963,-84.378 264.475,0c44.077,145.788 44.077,729.007 -0,874.794c-25.512,84.401 -220.395,76.284 -264.475,0c-44.08,-76.283 26.914,-432.312 0,-457.747c-26.913,-25.436 -116.556,254.309 -161.482,305.157c-23.849,27.004 -84.163,26.958 -108.077,0c-45.141,-50.848 -135.629,-330.593 -162.753,-305.157c-27.126,25.435 44.078,381.464 0,457.747c-44.08,76.284 -238.963,84.401 -264.474,0Z" style="fill:#e6136a;fill-rule:nonzero;"/></g><g><g><path d="M2225.89,631.193c-9.424,3.604 -14.071,9.941 -10.748,20.139" style="fill:none;stroke:#332a32;stroke-width:4.85px;stroke-linecap:round;stroke-miterlimit:1.5;"/></g><g><path d="M2410.21,635.939c6.516,4.279 14.357,11.319 11.527,20.094" style="fill:none;stroke:#332a32;stroke-width:4.85px;stroke-linecap:round;stroke-miterlimit:1.5;"/></g></g><g><g><ellipse cx="2230.02" cy="449.145" rx="109.365" ry="105.238" style="fill:#f5367f;stroke:#332a32;stroke-width:5.12px;stroke-linecap:round;stroke-miterlimit:1.5;"/></g><g><path d="M2124.33,422.042c1.627,-7.753 67.105,-14.511 100.88,-12.107c35.648,2.534 106.451,5.034 112.886,27.315c7.371,25.418 -3.526,52.144 -24.16,79.555c-16.592,22.047 -46.15,36.839 -92.843,37.574c-29.584,0.463 -60.227,-13.646 -84.609,-49.459c-15.383,-22.584 -19.303,-48.842 -12.154,-82.878Z" style="fill:#fcfbdb;"/><g><clipPath id="_clip1"><path d="M2124.33,422.042c1.627,-7.753 67.105,-14.511 100.88,-12.107c35.648,2.534 106.451,5.034 112.886,27.315c7.371,25.418 -3.526,52.144 -24.16,79.555c-16.592,22.047 -46.15,36.839 -92.843,37.574c-29.584,0.463 -60.227,-13.646 -84.609,-49.459c-15.383,-22.584 -19.303,-48.842 -12.154,-82.878Z"/></clipPath><g clip-path="url(#_clip1)"><g><path d="M2198.08,550.54c0.98,-15.726 5.019,-33.222 15.204,-45.516c9.948,-12.009 33.467,-32.886 33.467,-32.886c-0,-0 -35.397,-59.093 -19.451,-78.586c5.346,-6.54 13.334,-15.172 21.411,-17.879c25.33,-8.5 54.936,16.486 70.942,33.483c9.681,10.27 19.124,23.366 22.925,37.286c10.156,37.221 -5.761,84.489 -39.198,103.112c-13.303,7.404 -27.112,12.591 -42.375,12.337c-21.886,-0.367 -43.949,-4.807 -64.677,-12.037c-0.356,-0.122 1.752,0.686 1.752,0.686Z" style="fill:#332a32;"/></g></g></g><path d="M2124.33,422.042c1.627,-7.753 67.105,-14.511 100.88,-12.107c35.648,2.534 106.451,5.034 112.886,27.315c7.371,25.418 -3.526,52.144 -24.16,79.555c-16.592,22.047 -46.15,36.839 -92.843,37.574c-29.584,0.463 -60.227,-13.646 -84.609,-49.459c-15.383,-22.584 -19.303,-48.842 -12.154,-82.878Z" style="fill:none;stroke:#332a32;stroke-width:5.13px;stroke-linecap:round;stroke-miterlimit:1.5;"/></g><g><circle cx="2301.47" cy="458.106" r="13.522" style="fill:#fcfbdb;stroke:#332a32;stroke-width:5.13px;stroke-linecap:round;stroke-miterlimit:1.5;"/></g><g><ellipse cx="2280.05" cy="491.905" rx="9.015" ry="7.888" style="fill:#fcfbdb;stroke:#332a32;stroke-width:5.13px;stroke-linecap:round;stroke-miterlimit:1.5;"/></g></g><g><g><ellipse cx="2422.75" cy="450.127" rx="109.365" ry="105.238" style="fill:#f5367f;stroke:#332a32;stroke-width:5.12px;stroke-linecap:round;stroke-miterlimit:1.5;"/></g><g><path d="M2317.07,423.035c1.627,-7.753 67.105,-14.51 100.879,-12.107c35.649,2.535 106.452,5.034 112.886,27.316c7.371,25.417 -3.525,52.143 -24.16,79.555c-16.591,22.047 -46.15,36.838 -92.843,37.573c-29.583,0.464 -60.227,-13.645 -84.608,-49.459c-15.384,-22.584 -19.304,-48.842 -12.154,-82.878Z" style="fill:#fcfbdb;"/><g><clipPath id="_clip2"><path d="M2317.07,423.035c1.627,-7.753 67.105,-14.51 100.879,-12.107c35.649,2.535 106.452,5.034 112.886,27.316c7.371,25.417 -3.525,52.143 -24.16,79.555c-16.591,22.047 -46.15,36.838 -92.843,37.573c-29.583,0.464 -60.227,-13.645 -84.608,-49.459c-15.384,-22.584 -19.304,-48.842 -12.154,-82.878Z"/></clipPath><g clip-path="url(#_clip2)"><g><path d="M2390.82,551.534c0.98,-15.727 5.018,-33.223 15.204,-45.517c9.948,-12.009 33.466,-32.886 33.466,-32.886c0,0 -35.396,-59.093 -19.45,-78.586c5.345,-6.54 13.333,-15.172 21.41,-17.879c25.331,-8.5 54.937,16.486 70.943,33.483c9.68,10.27 19.124,23.366 22.925,37.286c10.155,37.222 -5.761,84.49 -39.198,103.113c-13.304,7.403 -27.112,12.59 -42.376,12.336c-21.885,-0.367 -43.949,-4.807 -64.676,-12.036c-0.357,-0.123 1.752,0.686 1.752,0.686Z" style="fill:#332a32;"/></g></g></g><path d="M2317.07,423.035c1.627,-7.753 67.105,-14.51 100.879,-12.107c35.649,2.535 106.452,5.034 112.886,27.316c7.371,25.417 -3.525,52.143 -24.16,79.555c-16.591,22.047 -46.15,36.838 -92.843,37.573c-29.583,0.464 -60.227,-13.645 -84.608,-49.459c-15.384,-22.584 -19.304,-48.842 -12.154,-82.878Z" style="fill:none;stroke:#332a32;stroke-width:5.13px;stroke-linecap:round;stroke-miterlimit:1.5;"/></g><g><circle cx="2494.21" cy="459.091" r="13.522" style="fill:#fcfbdb;stroke:#332a32;stroke-width:5.13px;stroke-linecap:round;stroke-miterlimit:1.5;"/></g><g><ellipse cx="2472.79" cy="492.9" rx="9.015" ry="7.888" style="fill:#fcfbdb;stroke:#332a32;stroke-width:5.13px;stroke-linecap:round;stroke-miterlimit:1.5;"/></g></g><g><path d="M2318.42,650.949c39.316,0 73.694,-9.19 73.694,5.57c-0,14.785 -33.15,45.73 -72.493,45.73c-39.316,-0 -73.667,-30.945 -73.667,-45.73c0,-14.76 33.15,-5.57 72.466,-5.57Z" style="fill:#fcfbdb;stroke:#332a32;stroke-width:5.13px;stroke-linecap:round;stroke-miterlimit:1.5;"/><g><path d="M2276.06,648.047l-3.049,37.653" style="fill:none;stroke:#332a32;stroke-width:5.13px;stroke-linecap:round;stroke-miterlimit:1.5;"/></g><g><path d="M2354.7,652.498l2.859,37.665" style="fill:none;stroke:#332a32;stroke-width:5.13px;stroke-linecap:round;stroke-miterlimit:1.5;"/></g><g><path d="M2318.91,651.355l-1.324,46.657" style="fill:none;stroke:#332a32;stroke-width:5.11px;stroke-linecap:round;stroke-miterlimit:1.5;"/></g></g><g><path d="M1784.61,630.154c20.737,-33.162 23.17,-66.72 -8.184,-100.961c-0,0 -34.963,15.958 -63.114,-32.684c-28.151,-48.642 -8.966,-38.634 -28.151,-48.642c-70.68,-36.89 -57.606,39.494 -57.606,39.494c-0,-0 24.338,48.139 40.42,69.645c42.7,57.07 116.635,73.148 116.635,73.148Z" style="fill:#f5e11b;stroke:#332a32;stroke-width:5.4px;stroke-linecap:round;stroke-miterlimit:1.5;"/><path d="M1678.93,409.009c-0.065,6.763 12.043,2.449 18.919,7.345c12.295,8.741 7.819,28.634 0.18,35.323c-7.645,6.668 -34.251,-0.994 -46.033,4.748c-11.573,5.662 -14.778,25.526 -24.654,29.75c-9.873,4.223 -30.241,2.139 -34.607,-4.449c-9.787,-14.737 6.782,-21.22 0.704,-28.531c-9.892,-11.921 -35.84,2.544 -60.068,-42.993c-7.341,-13.794 -11.311,-30.067 -10.553,-45.672c0.447,-9.191 -29.946,-13.34 -22.064,-46.861c6.562,-27.889 38.259,-8.764 38.12,-20.605c-0.308,-25.751 -18.385,-70.305 -17.904,-87.04c0.235,-8.258 13.707,-13.208 20.775,-13.459c7.072,-0.229 17.406,4.927 21.644,12.018c7.803,13.035 21.706,67.268 25.18,66.235c3.475,-1.032 -6.892,-56.942 -4.324,-72.388c1.544,-9.299 12.894,-19.837 19.731,-20.243c6.837,-0.407 17.767,9.276 21.295,17.827c6.378,15.473 11.869,61.083 16.985,75.011c1.858,5.067 9.593,5.069 13.713,8.554c7.167,6.025 22.629,16.038 29.307,27.7c7.073,12.357 14.171,30.39 13.128,46.438c-1.058,16.292 -19.379,41.53 -19.474,51.292Z" style="fill:#fcfbdb;stroke:#332a32;stroke-width:5.4px;stroke-linecap:round;stroke-miterlimit:1.5;"/><path d="M1518.74,359.093c25.993,20.139 43.531,16.258 51.496,-3.184c1.176,-2.875 1.644,-5.799 1.428,-8.885c-0.26,-3.625 -1.246,-7.121 -2.672,-10.451c-6.431,-15.005 -16.904,-32.198 -37.649,-35.285" style="fill:none;stroke:#332a32;stroke-width:5.4px;stroke-linecap:round;stroke-miterlimit:1.5;"/><path d="M1648.73,280.342c-13.539,1.794 -52.603,11.094 -58.847,14.651c-13.86,7.882 3.358,27.46 11.669,31.992c5.813,3.163 11.587,2.814 17.646,4.622c1.315,0.4 -1.27,2.432 -1.989,3.587c-2.342,3.825 -4.948,7.347 -7.924,10.695c-7.834,8.799 -18.711,20.018 -14.761,33.039" style="fill:none;stroke:#332a32;stroke-width:5.4px;stroke-linecap:round;stroke-miterlimit:1.5;"/><path d="M1582.49,257.5c0.896,5.041 8.379,30.653 9.171,35.713" style="fill:none;stroke:#332a32;stroke-width:5.4px;stroke-linecap:round;stroke-miterlimit:1.5;"/><g><path d="M1587.34,254.421c0.318,5.111 4.846,31.407 5.058,36.524" style="fill:none;stroke:#332a32;stroke-width:5.4px;stroke-linecap:round;stroke-miterlimit:1.5;"/></g><path d="M1594.69,458.042c4.667,-11.317 10.108,-23.319 20.053,-30.964" style="fill:none;stroke:#332a32;stroke-width:5.4px;stroke-linecap:round;stroke-miterlimit:1.5;"/><path d="M1682.65,413.438c-5.784,-0.261 -11.185,0.284 -16.888,1.231" style="fill:none;stroke:#332a32;stroke-width:5.4px;stroke-linecap:round;stroke-miterlimit:1.5;"/></g><g><path d="M2858.69,620.454c-20.738,-33.161 -23.17,-66.719 8.184,-100.961c0,0 34.962,15.958 63.113,-32.684c28.151,-48.642 8.967,-38.634 28.151,-48.642c70.68,-36.89 57.607,39.494 57.607,39.494c-0,-0 -24.339,48.139 -40.42,69.645c-42.7,57.07 -116.635,73.148 -116.635,73.148Z" style="fill:#f5e11b;stroke:#332a32;stroke-width:5.4px;stroke-linecap:round;stroke-miterlimit:1.5;"/><path d="M2964.37,399.309c0.066,6.764 -12.042,2.449 -18.919,7.345c-12.295,8.741 -7.819,28.634 -0.179,35.323c7.645,6.668 34.25,-0.994 46.032,4.749c11.574,5.661 14.779,25.525 24.654,29.749c9.874,4.223 30.242,2.139 34.607,-4.449c9.788,-14.736 -6.781,-21.22 -0.704,-28.531c9.893,-11.921 35.84,2.544 60.068,-42.993c7.341,-13.794 11.312,-30.067 10.554,-45.672c-0.448,-9.191 29.945,-13.34 22.063,-46.861c-6.562,-27.889 -38.259,-8.764 -38.12,-20.604c0.308,-25.751 18.385,-70.305 17.904,-87.041c-0.235,-8.258 -13.707,-13.208 -20.775,-13.459c-7.071,-0.229 -17.405,4.927 -21.643,12.018c-7.803,13.035 -21.706,67.268 -25.181,66.235c-3.474,-1.032 6.892,-56.942 4.325,-72.388c-1.545,-9.298 -12.894,-19.837 -19.731,-20.243c-6.837,-0.406 -17.768,9.276 -21.295,17.827c-6.379,15.473 -11.869,61.083 -16.986,75.011c-1.857,5.067 -9.593,5.069 -13.712,8.554c-7.167,6.025 -22.629,16.039 -29.308,27.7c-7.072,12.357 -14.17,30.39 -13.128,46.439c1.058,16.292 19.38,41.529 19.474,51.291Z" style="fill:#fcfbdb;stroke:#332a32;stroke-width:5.4px;stroke-linecap:round;stroke-miterlimit:1.5;"/><path d="M3124.56,349.393c-25.992,20.139 -43.531,16.258 -51.495,-3.184c-1.176,-2.875 -1.645,-5.799 -1.428,-8.885c0.259,-3.625 1.245,-7.12 2.671,-10.45c6.431,-15.005 16.905,-32.198 37.65,-35.286" style="fill:none;stroke:#332a32;stroke-width:5.4px;stroke-linecap:round;stroke-miterlimit:1.5;"/><path d="M2994.57,270.642c13.539,1.794 52.603,11.095 58.848,14.651c13.86,7.882 -3.358,27.46 -11.669,31.992c-5.813,3.163 -11.588,2.814 -17.647,4.622c-1.314,0.4 1.27,2.433 1.989,3.587c2.343,3.825 4.949,7.347 7.924,10.695c7.835,8.799 18.712,20.018 14.761,33.039" style="fill:none;stroke:#332a32;stroke-width:5.4px;stroke-linecap:round;stroke-miterlimit:1.5;"/><path d="M3060.81,247.8c-0.895,5.041 -8.378,30.654 -9.17,35.713" style="fill:none;stroke:#332a32;stroke-width:5.4px;stroke-linecap:round;stroke-miterlimit:1.5;"/><g><path d="M3055.96,244.721c-0.318,5.111 -4.845,31.407 -5.058,36.524" style="fill:none;stroke:#332a32;stroke-width:5.4px;stroke-linecap:round;stroke-miterlimit:1.5;"/></g><path d="M3048.61,448.342c-4.666,-11.317 -10.108,-23.319 -20.053,-30.964" style="fill:none;stroke:#332a32;stroke-width:5.4px;stroke-linecap:round;stroke-miterlimit:1.5;"/><path d="M2960.64,403.739c5.785,-0.262 11.186,0.283 16.889,1.23" style="fill:none;stroke:#332a32;stroke-width:5.4px;stroke-linecap:round;stroke-miterlimit:1.5;"/></g></g></g><path d="M24.36,960.259l0,-289.333l87.473,-0l72.334,140.461l70.651,-140.461l87.473,-0l-0,289.333l-87.473,0l-0,-151.395l-53.409,100.93l-35.746,0l-53.83,-100.93l0,151.395l-87.473,0Z" style="fill-rule:nonzero;"/><path d="M367.103,960.259l79.903,-289.333l136.256,-0l83.688,289.333l-103.033,0l-10.934,-55.511l-74.857,-0l-12.195,55.511l-98.828,0Zm119.855,-107.238l55.932,-0l-27.335,-126.584l-28.597,126.584Z" style="fill-rule:nonzero;"/><path d="M777.974,966.988c-17.663,0 -35.606,-2.173 -53.83,-6.518c-18.223,-4.346 -33.643,-10.164 -46.259,-17.453l15.139,-68.549c16.261,8.692 31.471,14.369 45.629,17.033c14.158,2.663 27.265,3.995 39.321,3.995c11.214,-0 19.695,-1.823 25.443,-5.467c5.747,-3.645 8.621,-8.551 8.621,-14.719c-0,-5.608 -3.224,-10.023 -9.673,-13.248c-6.448,-3.224 -14.789,-6.238 -25.022,-9.041c-10.233,-2.804 -21.097,-6.098 -32.592,-9.883c-11.495,-3.785 -22.359,-8.831 -32.592,-15.14c-10.233,-6.308 -18.574,-14.719 -25.022,-25.232c-6.449,-10.514 -9.673,-23.761 -9.673,-39.741c0,-20.187 4.906,-37.639 14.719,-52.358c9.813,-14.719 23.831,-26.074 42.054,-34.064c18.224,-7.99 39.672,-11.986 64.344,-11.986c16.541,0 32.732,2.173 48.572,6.519c15.841,4.345 28.527,10.163 38.059,17.452l-14.298,61.82c-14.299,-5.887 -27.125,-10.163 -38.48,-12.826c-11.354,-2.664 -22.078,-3.996 -32.171,-3.996c-11.776,0 -20.747,1.683 -26.915,5.047c-6.168,3.364 -9.252,7.85 -9.252,13.457c-0,5.327 3.224,9.673 9.672,13.037c6.449,3.365 14.719,6.589 24.813,9.673c10.093,3.084 20.886,6.588 32.381,10.513c11.495,3.925 22.289,9.112 32.382,15.56c10.093,6.449 18.364,14.86 24.812,25.233c6.449,10.373 9.673,23.41 9.673,39.111c-0,32.522 -10.584,57.614 -31.751,75.277c-21.168,17.663 -50.536,26.494 -88.104,26.494Z" style="fill-rule:nonzero;"/><path d="M971.844,960.259l0,-222.888l-65.184,0l0,-66.445l228.355,-0l0,66.445l-65.184,0l-0,222.888l-97.987,0Z" style="fill-rule:nonzero;"/><path d="M1161.51,960.259l0,-289.333l203.123,-0l-0,63.922l-100.931,0l0,51.306l92.099,0l0,52.989l-92.099,-0l0,55.091l100.931,0l-0,66.025l-203.123,0Z" style="fill-rule:nonzero;"/><path d="M1621.58,966.988c-20.186,0 -36.868,-3.014 -50.045,-9.042c-13.177,-6.027 -23.69,-14.368 -31.541,-25.022c-7.85,-10.654 -13.737,-23.13 -17.662,-37.428c-3.925,-14.299 -6.589,-29.719 -7.991,-46.26l-19.765,-0l-0,111.023l-92.099,0l-0,-289.333l119.014,-0c45.979,-0 79.132,8.06 99.458,24.181c20.326,16.121 30.489,37.919 30.489,65.394c0,16.542 -4.485,31.331 -13.457,44.368c-8.972,13.036 -23.41,23.9 -43.316,32.592c1.122,6.168 2.103,11.214 2.944,15.139c0.841,3.925 2.103,8.271 3.785,13.037c3.644,10.093 8.2,17.102 13.667,21.027c5.467,3.925 12.967,5.888 22.499,5.888c6.168,-0 12.336,-0.841 18.504,-2.523l5.047,68.969c-5.607,2.243 -11.565,4.135 -17.873,5.677c-6.308,1.542 -13.528,2.313 -21.658,2.313Zm-127.004,-175.367l15.98,0c20.747,0 35.396,-2.313 43.947,-6.939c8.551,-4.625 12.827,-12.546 12.827,-23.76c-0,-9.533 -3.505,-16.471 -10.514,-20.817c-7.009,-4.346 -18.083,-6.519 -33.223,-6.519l-29.017,0l-0,58.035Z" style="fill-rule:nonzero;"/><path d="M2998,960.259l0,-289.333l87.473,-0l72.333,140.461l70.652,-140.461l87.473,-0l-0,289.333l-87.473,0l-0,-151.395l-53.409,100.93l-35.746,0l-53.83,-100.93l0,151.395l-87.473,0Z" style="fill-rule:nonzero;"/><rect x="3362.19" y="670.926" width="95.043" height="289.334" style="fill-rule:nonzero;"/><path d="M3503.49,960.259l0,-289.333l84.109,-0l113.546,153.498l0,-153.498l77.38,-0l0,289.333l-84.108,0l-113.547,-147.19l0,147.19l-77.38,0Z" style="fill-rule:nonzero;"/><path d="M3824.79,960.259l0,-289.333l100.51,-0c42.054,-0 76.329,6.027 102.823,18.083c26.494,12.055 45.979,28.737 58.455,50.045c12.477,21.307 18.715,46.119 18.715,74.436c-0,46.259 -15.21,82.286 -45.629,108.079c-30.42,25.794 -76.609,38.69 -138.569,38.69l-96.305,0Zm92.94,-73.595l26.915,0c22.429,0 39.111,-6.799 50.045,-20.396c10.934,-13.598 16.401,-31.471 16.401,-53.619c-0,-20.467 -5.257,-36.938 -15.77,-49.414c-10.514,-12.476 -27.406,-18.714 -50.676,-18.714l-26.915,-0l0,142.143Z" style="fill-rule:nonzero;"/></svg>