<?xml version="1.0" encoding="UTF-8" standalone="no"?><!DOCTYPE svg PUBLIC "-//W3C//DTD SVG 1.1//EN" "http://www.w3.org/Graphics/SVG/1.1/DTD/svg11.dtd"><svg width="100%" height="100%" viewBox="0 0 882 597" version="1.1" xmlns="http://www.w3.org/2000/svg" xmlns:xlink="http://www.w3.org/1999/xlink" xml:space="preserve" xmlns:serif="http://www.serif.com/" style="fill-rule:evenodd;clip-rule:evenodd;stroke-linejoin:round;stroke-miterlimit:2;"><g><path d="M100.463,559.761c-30.594,-86.335 -30.242,-429.566 -0,-515.901c20.096,-57.372 148.992,-53.825 181.451,-2.108c33.559,53.468 65.269,218.477 99.793,218.828c34.525,0.352 60.272,-180.6 107.352,-216.72c46.411,-35.607 156.268,-55.556 175.127,0c29.188,85.984 29.715,429.39 -0,515.901c-19.406,56.497 -148.574,35.153 -178.289,3.162c-29.715,-31.99 11.391,-182.392 -0,-195.106c-11.391,-12.713 -46.392,99.023 -68.347,118.827c-15.727,14.187 -47.728,14.268 -63.381,0c-21.728,-19.804 -55.293,-131.364 -66.984,-118.827c-11.692,12.538 27.958,162.062 -3.163,194.052c-31.12,31.991 -163.019,55.856 -183.559,-2.108Z" style="fill:#f5e11b;fill-rule:nonzero;stroke:#332a32;stroke-width:3.79px;"/><path d="M121.65,540.56c-23.946,-79.204 -23.946,-396.021 -0,-475.225c13.859,-45.842 113.604,-47.64 143.673,-0c31.086,49.253 68.87,191.576 108.012,191.576c39.141,0 81.752,-159.647 126.837,-191.576c39.083,-27.679 129.814,-45.842 143.673,-0c23.945,79.204 23.945,396.021 -0,475.225c-13.859,45.841 -119.727,41.444 -143.673,-0c-23.945,-41.444 14.621,-234.85 0,-248.664c-14.62,-13.815 -63.317,138.146 -87.723,165.776c-12.957,14.667 -45.722,14.637 -58.713,-0c-24.521,-27.63 -73.678,-179.591 -88.413,-165.776c-14.736,13.814 23.945,207.22 -0,248.664c-23.946,41.444 -129.814,45.841 -143.673,-0Z" style="fill:#e6136a;fill-rule:nonzero;"/><g><path d="M330.207,335.277c-5.115,1.959 -7.647,5.401 -5.833,10.94" style="fill:none;stroke:#332a32;stroke-width:3.41px;stroke-linecap:round;stroke-miterlimit:1.5;"/><path d="M430.339,337.856c3.543,2.324 7.796,6.148 6.272,10.915" style="fill:none;stroke:#332a32;stroke-width:3.41px;stroke-linecap:round;stroke-miterlimit:1.5;"/></g><g><ellipse cx="324.46" cy="236.381" rx="59.411" ry="57.169" style="fill:#fcfbdb;"/><clipPath id="_clip1"><ellipse cx="324.46" cy="236.381" rx="59.411" ry="57.169"/></clipPath><g clip-path="url(#_clip1)"><path d="M311.285,292.686c0.599,-10.638 7.948,-93.013 17.49,-106.201c3.202,-4.424 7.963,-10.264 12.796,-12.095c15.167,-5.749 32.863,11.152 42.448,22.652c5.79,6.946 11.431,15.807 13.706,25.222c6.085,25.181 -3.448,57.156 -23.448,69.756c-7.948,5.007 -16.216,8.516 -25.336,8.344c-13.104,-0.247 -26.295,-3.252 -38.694,-8.143c-0.21,-0.083 1.038,0.465 1.038,0.465Z" style="fill:#332a32;"/></g><ellipse cx="324.46" cy="236.381" rx="59.411" ry="57.169" style="fill:none;stroke:#332a32;stroke-width:3.6px;stroke-linecap:round;stroke-miterlimit:1.5;"/><ellipse cx="340.293" cy="230.282" rx="7.346" ry="7.346" style="fill:#fcfbdb;stroke:#332a32;stroke-width:3.6px;stroke-linecap:round;stroke-miterlimit:1.5;"/><ellipse cx="334.924" cy="254.91" rx="4.898" ry="4.285" style="fill:#fcfbdb;stroke:#332a32;stroke-width:3.6px;stroke-linecap:round;stroke-miterlimit:1.5;"/></g><g><ellipse cx="429.607" cy="239.754" rx="59.411" ry="57.169" style="fill:#fcfbdb;"/><clipPath id="_clip2"><ellipse cx="429.607" cy="239.754" rx="59.411" ry="57.169"/></clipPath><g clip-path="url(#_clip2)"><path d="M417.774,295.612c0.599,-10.638 7.948,-93.013 17.49,-106.201c3.202,-4.424 7.963,-10.264 12.796,-12.095c15.167,-5.749 32.863,11.152 42.448,22.652c5.79,6.946 11.431,15.807 13.706,25.222c6.084,25.181 -3.448,57.156 -23.448,69.755c-7.948,5.008 -16.216,8.517 -25.336,8.345c-13.104,-0.247 -26.295,-3.252 -38.694,-8.143c-0.211,-0.083 1.038,0.465 1.038,0.465Z" style="fill:#332a32;"/></g><ellipse cx="429.607" cy="239.754" rx="59.411" ry="57.169" style="fill:none;stroke:#332a32;stroke-width:3.6px;stroke-linecap:round;stroke-miterlimit:1.5;"/><path d="M441.137,229.218c3.928,-1.004 7.933,1.37 8.936,5.298c1.004,3.929 -1.37,7.933 -5.299,8.937c-3.928,1.004 -7.932,-1.371 -8.936,-5.299c-1.004,-3.928 1.371,-7.933 5.299,-8.936Z" style="fill:#fcfbdb;stroke:#332a32;stroke-width:3.6px;stroke-linecap:round;stroke-miterlimit:1.5;"/><path d="M440.54,253.752c2.619,-0.67 5.22,0.648 5.806,2.939c0.585,2.292 -1.066,4.695 -3.684,5.364c-2.619,0.67 -5.221,-0.647 -5.806,-2.939c-0.586,-2.291 1.065,-4.695 3.684,-5.364Z" style="fill:#fcfbdb;stroke:#332a32;stroke-width:3.6px;stroke-linecap:round;stroke-miterlimit:1.5;"/></g><g><path d="M380.474,346.013c21.363,0 40.03,-4.994 40.03,3.029c-0,8.022 -18.006,24.832 -39.368,24.832c-21.363,-0 -40.03,-16.81 -40.03,-24.832c0,-8.023 18.005,-3.029 39.368,-3.029Z" style="fill:#fcfbdb;stroke:#332a32;stroke-width:3.6px;stroke-linecap:round;stroke-miterlimit:1.5;"/><path d="M357.462,344.436l-1.654,20.455" style="fill:none;stroke:#332a32;stroke-width:3.6px;stroke-linecap:round;stroke-miterlimit:1.5;"/><path d="M400.188,346.855l1.556,20.461" style="fill:none;stroke:#332a32;stroke-width:3.6px;stroke-linecap:round;stroke-miterlimit:1.5;"/><path d="M380.745,346.228l-0.717,25.346" style="fill:none;stroke:#332a32;stroke-width:3.6px;stroke-linecap:round;stroke-miterlimit:1.5;"/></g><g><path d="M775.146,203.037l-13.077,9.437l0.904,1.357c2.365,3.551 1.401,8.354 -2.15,10.719l-1.429,0.952c-3.551,2.364 -8.354,1.401 -10.718,-2.15l-28.26,-42.439c-2.365,-3.551 -1.402,-8.353 2.149,-10.718l1.43,-0.952c3.551,-2.364 8.354,-1.401 10.718,2.15l0.582,0.874l47.467,-34.256l-0.325,-0.487c-2.364,-3.551 -1.401,-8.354 2.15,-10.719l1.43,-0.952c3.551,-2.364 8.353,-1.401 10.718,2.15l28.26,42.439c2.364,3.551 1.401,8.353 -2.15,10.718l-1.43,0.952c-3.551,2.365 -8.353,1.401 -10.718,-2.15l-1.161,-1.744l-13.81,9.967c0.578,0.582 1.109,1.228 1.581,1.936l48.554,72.823c3.933,5.899 2.337,13.883 -3.563,17.816c-5.9,3.934 -13.883,2.338 -17.817,-3.562l-48.553,-72.822c-0.291,-0.436 -0.551,-0.883 -0.782,-1.339Z" style="fill:#ccb37e;stroke:#332a32;stroke-width:3.31px;stroke-linecap:round;stroke-miterlimit:1.5;"/><path d="M734.476,171.082c2.4,3.211 8.839,12.968 11.301,16.134" style="fill:none;stroke:#332a32;stroke-width:3.31px;stroke-linecap:round;stroke-miterlimit:1.5;"/><path d="M782.068,136.861c2.4,3.212 3.21,4.809 5.672,7.975" style="fill:none;stroke:#332a32;stroke-width:3.31px;stroke-linecap:round;stroke-miterlimit:1.5;"/><path d="M761.887,212.118c-0.818,-2.446 -3.063,-4.798 -4.43,-6.988" style="fill:none;stroke:#332a32;stroke-width:3.31px;stroke-linecap:round;stroke-miterlimit:1.5;"/><path d="M809.479,177.898c-0.819,-2.447 -9.652,-15.193 -11.019,-17.383" style="fill:none;stroke:#332a32;stroke-width:3.31px;stroke-linecap:round;stroke-miterlimit:1.5;"/></g><path id="Plan-de-travail1" serif:id="Plan de travail1" d="M307.647,333.015l-187.453,-105.741l-120.194,213.075l187.453,105.741l120.194,-213.075Z" style="fill:none;"/><g id="Plan-de-travail11" serif:id="Plan de travail1"><g><path d="M167.369,501.609l-1.013,-0.571l10.369,-18.383c0.968,-0.258 1.836,-0.886 2.363,-1.821l79.413,-140.78c1.04,-1.842 0.383,-4.2 -1.46,-5.239l-102.383,-57.754c-0,-0 -11.286,-7.096 -19.529,1.465l-81.726,144.88c-7.526,13.343 0.962,17.241 0.962,17.241l111.814,63.073c0.596,0.218 1.123,0.259 1.471,-0.338c0.658,-1.132 -0.281,-1.773 -0.281,-1.773Z" style="fill:#bfd0d4;fill-rule:nonzero;"/><path d="M167.369,501.609l-1.013,-0.571l1.159,-2.056l-114.85,-64.786c-0.512,-4.215 2.643,-9.221 2.643,-9.221c5.021,-8.375 16.158,-0.435 16.158,-0.435l102.383,57.754c0.906,0.511 1.938,0.61 2.876,0.361c0.968,-0.258 1.836,-0.886 2.363,-1.821l79.413,-140.78c1.04,-1.842 0.383,-4.2 -1.46,-5.239l-102.383,-57.754c-0,-0 -11.286,-7.096 -19.529,1.465l-81.726,144.88c-7.526,13.343 0.962,17.241 0.962,17.241l111.814,63.073c0.596,0.218 1.123,0.259 1.471,-0.338c0.658,-1.132 -0.281,-1.773 -0.281,-1.773Z" style="fill:#2a85c1;fill-rule:nonzero;"/><path d="M72.355,422.965l82.303,-145.904c-0,-0 -11.286,-7.096 -19.529,1.465l-81.726,144.88c0,0 5.05,-8.951 18.952,-0.441Z" style="fill:#00736d;fill-rule:nonzero;"/><path d="M224.426,354.675l-71.952,-40.588l-18.102,32.092l71.952,40.587l18.102,-32.091Z" style="fill:#00736d;fill-rule:nonzero;"/><path d="M136.569,288.512c2.52,0.189 4.912,0.885 6.71,1.568c1.799,0.682 3.004,1.348 3.173,1.444l0.018,0.01l0.007,0.004l0.011,0.006l1.62,-2.871l-0.036,-0.02c-0.498,-0.275 -4.338,-2.401 -9.33,-3.201c-2.352,-0.373 -4.976,-0.44 -7.619,0.176l-2.535,4.494c0.939,-0.539 1.907,-0.931 2.898,-1.197c1.67,-0.444 3.402,-0.54 5.083,-0.413Z" style="fill:#e79d40;fill-rule:nonzero;"/><path d="M132.861,296.722c2.655,-0.04 5.069,0.508 6.804,1.07c0.866,0.28 1.563,0.562 2.034,0.771c0.235,0.104 0.414,0.189 0.531,0.246c0.057,0.029 0.098,0.05 0.124,0.063l1.62,-2.872l-0.013,-0.007l-0.015,-0.008c-0.12,-0.058 -3.871,-2.089 -9.105,-2.496c-2.615,-0.2 -5.612,0.018 -8.662,1.15c-0.06,0.022 -0.12,0.05 -0.18,0.073l-3.144,5.572c1.475,-1.177 2.978,-1.999 4.47,-2.555c1.887,-0.699 3.764,-0.982 5.536,-1.007Z" style="fill:#e79d40;fill-rule:nonzero;"/><path d="M73.126,400.981c2.52,0.188 4.913,0.883 6.711,1.567c1.799,0.682 3.003,1.348 3.173,1.444l0.036,0.02l1.619,-2.871l-0.035,-0.02c-0.499,-0.275 -4.339,-2.4 -9.33,-3.201c-2.353,-0.373 -4.976,-0.44 -7.619,0.175l-2.535,4.494c0.938,-0.538 1.907,-0.929 2.898,-1.196c1.669,-0.444 3.402,-0.54 5.082,-0.412Z" style="fill:#e79d40;fill-rule:nonzero;"/><path d="M69.419,409.189c2.655,-0.039 5.069,0.509 6.803,1.07c0.867,0.281 1.563,0.564 2.034,0.771c0.236,0.105 0.415,0.191 0.531,0.248c0.058,0.028 0.099,0.049 0.125,0.063l1.62,-2.872l-0.028,-0.016c-0.12,-0.058 -3.872,-2.089 -9.105,-2.496c-2.615,-0.2 -5.613,0.018 -8.662,1.149c-0.061,0.023 -0.121,0.051 -0.181,0.075l-3.143,5.571c1.475,-1.177 2.978,-1.999 4.47,-2.554c1.887,-0.701 3.764,-0.983 5.536,-1.009Z" style="fill:#e79d40;fill-rule:nonzero;"/><path d="M167.369,501.609l-112.151,-63.263c-1.635,-1.055 -2.358,-2.545 -2.553,-4.15c-0.512,-4.215 2.643,-9.221 2.643,-9.221c5.021,-8.375 16.158,-0.435 16.158,-0.435l102.383,57.754c0.906,0.511 1.938,0.61 2.876,0.361c0.968,-0.258 1.836,-0.886 2.363,-1.821l0.889,-1.576c-1.039,1.843 -3.396,2.5 -5.239,1.46l-102.383,-57.753c-13.902,-8.51 -18.952,0.441 -18.952,0.441c-7.526,13.343 0.962,17.241 0.962,17.241l111.814,63.073c0.596,0.218 1.123,0.259 1.471,-0.338c0.658,-1.132 -0.281,-1.773 -0.281,-1.773Z" style="fill:#00736d;fill-rule:nonzero;"/><path d="M64.928,430.486c9.778,2.108 19.249,6.446 28.126,10.951c9.616,4.881 18.839,10.485 28.074,16.039c9.168,5.512 18.458,10.685 27.911,15.689c4.724,2.501 9.547,5.012 13.868,8.175c3.415,2.501 6.658,5.369 10.329,7.5l3.489,-6.185c-0.938,0.249 -1.97,0.15 -2.876,-0.361l-102.383,-57.754c-0,0 -11.137,-7.94 -16.158,0.435c0,-0 -1.227,1.947 -2.027,4.435c3.871,-0.086 7.759,0.237 11.647,1.076Z" style="fill:#9eb1b5;fill-rule:nonzero;"/></g></g><g><g><path d="M678.596,319.187c12.179,-6.206 48.443,-2.678 62.037,-4.794c6.94,-1.081 14.51,-3.895 19.531,-7.906c5.02,-4.01 4.962,-13.034 10.594,-16.158c5.826,-3.23 21.017,-7.432 24.358,-3.224c3.34,4.208 0.384,20.102 -4.314,28.474c-5.251,9.357 -15.329,22.526 -27.194,27.67c-17.394,7.541 -61.164,16.181 -77.172,17.577c-6.972,0.608 -17.58,-2.32 -18.875,-9.198c-1.306,-6.94 0.858,-27.255 11.035,-32.441Z" style="fill:#f5e11b;stroke:#332a32;stroke-width:2.69px;stroke-linecap:round;stroke-miterlimit:1.5;"/></g><g><g><path d="M796.673,316.959c9.756,5.328 21.181,8.294 32.217,5.961c11.41,-2.412 22.491,-10.357 31.827,-16.964c7.087,-5.014 17.52,-10.356 19.203,-19.772c2.093,-11.712 -7.164,-16.918 -17.279,-17.327c-0.283,-0.011 0.25,-4.731 0.287,-5.052c0.389,-3.392 0.787,-6.732 -0.447,-10.004c-1.341,-3.552 -4.147,-6.138 -7.733,-7.419c-0.569,-0.203 -5.01,-0.566 -5.058,-0.643c-0.574,-0.925 1.081,-4.634 1.234,-5.796c0.682,-5.158 -1.372,-9.065 -6.087,-11.4c-14.146,-7.007 -23.518,9.278 -33.09,16.008c-1.129,0.794 -7.26,-1.861 -8.603,-2.195c-5.87,-1.462 -11.575,-1.701 -16.817,1.717c-11.174,7.285 -8.585,24.239 -9.626,35.685c-0.075,0.823 -14.676,-3.376 -13.225,6.928c4.069,28.893 29.644,48.311 33.197,30.273Z" style="fill:#fcfbdb;stroke:#332a32;stroke-width:3.31px;stroke-linecap:round;stroke-miterlimit:1.5;"/><path d="M871.758,298.109c-4.074,2.437 -8.267,4.516 -12.593,6.46c-6.542,2.94 -13.98,5.768 -21.144,3c-2.012,-0.778 -4.311,-2.306 -5.41,-4.223c-1.788,-3.118 -1.13,-8.279 0.213,-11.462c1.972,-4.671 5.916,-8.065 9.833,-11.105c3.238,-2.513 6.515,-4.989 10.084,-7.026" style="fill:none;stroke:#332a32;stroke-width:3.31px;stroke-linecap:round;stroke-miterlimit:1.5;"/><path d="M837.931,284.127c-6.051,1.427 -13.932,0.56 -16.01,-6.46c-0.381,-1.287 -0.578,-2.581 -0.569,-3.924c0.011,-1.578 0.282,-3.196 0.942,-4.637c2.138,-4.668 5.922,-7.871 9.936,-10.86c3.596,-2.677 7.267,-5.044 11.145,-7.285" style="fill:none;stroke:#332a32;stroke-width:3.31px;stroke-linecap:round;stroke-miterlimit:1.5;"/><path d="M823.77,264.833c-2.324,0.602 -5.073,1.052 -7.428,0.4c-5.308,-1.471 -9.532,-7.852 -8.754,-13.33c0.795,-5.599 3.595,-6.448 7.564,-10.062" style="fill:none;stroke:#332a32;stroke-width:3.31px;stroke-linecap:round;stroke-miterlimit:1.5;"/><path d="M817.503,265.958c1.754,2.656 4.03,3.723 3.701,6.9c-0.22,2.118 0.408,6.492 3.25,9.082c1.138,1.036 0.86,2.237 0.401,3.799c-0.954,3.244 -6.167,3.422 -8.777,2.946c-0.694,-0.127 -1.394,-0.246 -2.08,-0.411c-0.869,-0.209 -1.746,-0.446 -2.575,-0.782c-2.478,-1.004 -4.524,-2.605 -6.693,-4.132c-1.805,-1.272 -3.697,-2.438 -5.303,-3.966c-3.822,-3.636 -6.576,-8.92 -6.669,-14.277" style="fill:none;stroke:#332a32;stroke-width:3.31px;stroke-linecap:round;stroke-miterlimit:1.5;"/><path d="M798.356,317.455c-3.044,-3.494 -5.054,-7.041 -6.73,-11.353" style="fill:none;stroke:#332a32;stroke-width:3.31px;stroke-linecap:round;stroke-miterlimit:1.5;"/><path d="M783.851,292.028c-1.697,-3.866 -3.965,-10.269 -7.958,-12.299" style="fill:none;stroke:#332a32;stroke-width:3.31px;stroke-linecap:round;stroke-miterlimit:1.5;"/></g></g></g><g><g><path d="M90.152,365.406c-3.168,8.047 -20.032,7.963 -22.827,12.768c-2.794,4.806 2.783,11.381 6.058,16.066c3.275,4.685 10.403,6.899 13.591,12.044c4.081,6.585 18.262,24.603 10.892,27.464c-7.37,2.862 -42.581,0.122 -55.11,-10.293c-12.528,-10.415 -22.098,-37.672 -20.061,-52.198c2.036,-14.526 21.674,-28.064 32.28,-34.958c8.945,-5.814 25.495,-11.255 31.358,-6.404c5.863,4.851 6.987,27.465 3.819,35.511Z" style="fill:#f5e11b;stroke:#332a32;stroke-width:2.9px;stroke-linecap:round;stroke-miterlimit:1.5;"/></g><g><path d="M94.424,399.743c-1.738,-0.503 -4.098,-2.898 -6.049,-2.647c-3.807,0.489 -4.312,6.302 -4.731,8.804c-1.386,8.275 2.434,16.812 7.075,23.46c2.217,3.175 5.783,8.688 9.718,9.899c3.606,1.11 12.279,0.673 11.795,-4.421c-0.35,-3.696 3.445,-2.324 6.852,-0.76c6.481,2.974 11.327,7.728 16.092,12.874c2.16,2.333 5.441,6.652 9.088,6.335c5.267,-0.457 6.877,-8.047 5.765,-12.128c-1.23,-4.515 -3.522,-7.928 -6.291,-11.609c-1.061,-1.411 -3.591,-3.683 -3.666,-5.53c-0.094,-2.294 2.358,-4.883 3.813,-6.326c3.437,-3.41 7.664,-6.006 10.923,-9.608c6.21,-6.866 10.896,-15.9 14.264,-24.483c1.891,-4.818 4.55,-10.668 2.51,-15.861c-1.777,-4.527 -5.452,-6.065 -9.844,-4.14c-0.757,0.332 -8.316,6.191 -8.821,5.015c-1.612,-3.759 1.058,-24.224 -4.186,-27.858c-3.596,-2.491 -8.301,0.013 -10.821,2.983c-0.297,0.349 -3.943,6.56 -4.119,6.285c-1.776,-2.784 -3.827,-8.012 -8.196,-6.624c-9.026,2.869 -9.426,17.042 -11.505,24.473c-3.335,11.922 -12.791,22.094 -19.666,31.867Z" style="fill:#fcfbdb;stroke:#332a32;stroke-width:3.15px;stroke-linecap:round;stroke-miterlimit:1.5;"/><path d="M96.841,411.902c-2.663,-3.818 -4.312,-7.263 -2.686,-11.204" style="fill:none;stroke:#332a32;stroke-width:3.15px;stroke-linecap:round;stroke-miterlimit:1.5;"/><path d="M111.726,432.968c-2.603,-0.859 -8.077,-7.298 -8.559,-10.38" style="fill:none;stroke:#332a32;stroke-width:3.15px;stroke-linecap:round;stroke-miterlimit:1.5;"/><path d="M135.023,397.437c8.774,-6.076 11.862,-21.367 19.091,-29.022" style="fill:none;stroke:#332a32;stroke-width:3.15px;stroke-linecap:round;stroke-miterlimit:1.5;"/><path d="M121.941,384.817c6.642,-9.829 7.393,-23.025 12.843,-35.918" style="fill:none;stroke:#332a32;stroke-width:3.15px;stroke-linecap:round;stroke-miterlimit:1.5;"/></g></g></g></svg>