<?xml version="1.0" encoding="UTF-8" standalone="no"?>
<!DOCTYPE svg PUBLIC "-//W3C//DTD SVG 1.1//EN" "http://www.w3.org/Graphics/SVG/1.1/DTD/svg11.dtd">
<svg width="100%" height="100%" viewBox="0 0 1161 773" version="1.1" xmlns="http://www.w3.org/2000/svg" xmlns:xlink="http://www.w3.org/1999/xlink" xml:space="preserve" xmlns:serif="http://www.serif.com/" style="fill-rule:evenodd;clip-rule:evenodd;stroke-linejoin:round;stroke-miterlimit:2;">
    <g transform="matrix(1,0,0,1,-87.6458,-159.227)">
        <g transform="matrix(1,0,0,1,-408.513,-2159.43)">
            <g transform="matrix(1.74776,0,0,1.75758,17.5666,-2145.52)">
                <path d="M397.413,2951.81C374.791,2888.33 375.05,2635.94 397.413,2572.46C412.273,2530.27 507.585,2532.88 531.587,2570.91C556.402,2610.23 579.851,2731.56 605.38,2731.82C630.909,2732.08 649.948,2599.02 684.761,2572.46C719.08,2546.28 800.313,2531.61 814.259,2572.46C835.842,2635.68 836.231,2888.2 814.259,2951.81C799.909,2993.36 704.395,2977.66 682.423,2954.14C660.45,2930.61 690.846,2820.02 682.423,2810.67C673.999,2801.32 648.118,2883.48 631.884,2898.05C620.254,2908.48 596.591,2908.54 585.016,2898.05C568.949,2883.48 544.13,2801.45 535.485,2810.67C526.84,2819.89 556.158,2929.84 533.146,2953.36C510.134,2976.89 412.601,2994.43 397.413,2951.81Z" style="fill:rgb(245,225,27);fill-rule:nonzero;stroke:rgb(51,42,50);stroke-width:2.16px;"/>
            </g>
            <g transform="matrix(1.61901,0,0,1.61901,96.1172,-1761.29)">
                <path d="M397.413,2951.81C378.298,2888.59 378.298,2635.68 397.413,2572.46C408.476,2535.87 488.098,2534.43 512.101,2572.46C536.916,2611.78 567.077,2725.39 598.322,2725.39C629.567,2725.39 663.581,2597.95 699.571,2572.46C730.769,2550.37 803.196,2535.87 814.259,2572.46C833.373,2635.68 833.373,2888.59 814.259,2951.81C803.196,2988.41 718.686,2984.89 699.571,2951.81C680.456,2918.73 711.242,2764.34 699.571,2753.31C687.9,2742.28 649.027,2863.59 629.545,2885.64C619.203,2897.35 593.048,2897.33 582.678,2885.64C563.103,2863.59 523.863,2742.28 512.101,2753.31C500.338,2764.34 531.215,2918.73 512.101,2951.81C492.986,2984.89 408.476,2988.41 397.413,2951.81Z" style="fill:rgb(230,19,106);fill-rule:nonzero;"/>
            </g>
            <g transform="matrix(1.82269,0,0,1.82269,-906.013,1644.83)">
                <g transform="matrix(1,0,0,1,-5.5106,-6.42904)">
                    <path d="M1056.2,614.092C1052.57,615.48 1050.78,617.921 1052.06,621.849" style="fill:none;stroke:rgb(51,42,50);stroke-width:1.87px;stroke-linecap:round;stroke-miterlimit:1.5;"/>
                </g>
                <g transform="matrix(1,0,0,1,6.42905,-6.42903)">
                    <path d="M1115.26,615.92C1117.77,617.568 1120.79,620.28 1119.7,623.66" style="fill:none;stroke:rgb(51,42,50);stroke-width:1.87px;stroke-linecap:round;stroke-miterlimit:1.5;"/>
                </g>
            </g>
            <g>
                <g transform="matrix(1.85946,0,0,1.86489,-985.906,1609.51)">
                    <ellipse cx="1074.44" cy="544.316" rx="41.293" ry="39.619" style="fill:rgb(245,54,127);stroke:rgb(51,42,50);stroke-width:1.93px;stroke-linecap:round;stroke-miterlimit:1.5;"/>
                </g>
                <g transform="matrix(1.73082,0,0,1.73082,-822.094,1693.59)">
                    <path d="M1016.78,526.907C1017.44,523.762 1044,521.021 1057.7,521.996C1072.16,523.024 1100.88,524.038 1103.49,533.076C1106.48,543.386 1102.06,554.227 1093.69,565.346C1086.96,574.289 1074.97,580.289 1056.03,580.587C1044.03,580.775 1031.6,575.052 1021.71,560.525C1015.47,551.364 1013.88,540.713 1016.78,526.907Z" style="fill:rgb(252,251,219);"/>
                    <clipPath id="_clip1">
                        <path d="M1016.78,526.907C1017.44,523.762 1044,521.021 1057.7,521.996C1072.16,523.024 1100.88,524.038 1103.49,533.076C1106.48,543.386 1102.06,554.227 1093.69,565.346C1086.96,574.289 1074.97,580.289 1056.03,580.587C1044.03,580.775 1031.6,575.052 1021.71,560.525C1015.47,551.364 1013.88,540.713 1016.78,526.907Z"/>
                    </clipPath>
                    <g clip-path="url(#_clip1)">
                        <g transform="matrix(1.20454,0,0,1.24204,-211.47,-136.441)">
                            <path d="M1044.52,576.045C1044.85,570.909 1046.21,565.195 1049.64,561.18C1052.99,557.258 1060.91,550.44 1060.91,550.44C1060.91,550.44 1048.99,531.141 1054.36,524.775C1056.16,522.639 1058.85,519.82 1061.57,518.936C1070.1,516.16 1080.07,524.32 1085.46,529.871C1088.72,533.225 1091.9,537.502 1093.18,542.048C1096.6,554.204 1091.24,569.641 1079.98,575.723C1075.5,578.141 1070.85,579.835 1065.71,579.752C1058.34,579.632 1050.91,578.182 1043.93,575.821C1043.81,575.781 1044.52,576.045 1044.52,576.045Z" style="fill:rgb(51,42,50);"/>
                        </g>
                    </g>
                    <path d="M1016.78,526.907C1017.44,523.762 1044,521.021 1057.7,521.996C1072.16,523.024 1100.88,524.038 1103.49,533.076C1106.48,543.386 1102.06,554.227 1093.69,565.346C1086.96,574.289 1074.97,580.289 1056.03,580.587C1044.03,580.775 1031.6,575.052 1021.71,560.525C1015.47,551.364 1013.88,540.713 1016.78,526.907Z" style="fill:none;stroke:rgb(51,42,50);stroke-width:2.08px;stroke-linecap:round;stroke-miterlimit:1.5;"/>
                </g>
                <g transform="matrix(1.73082,0,0,1.73082,-803.501,1689.64)">
                    <ellipse cx="1077.89" cy="543.818" rx="5.485" ry="5.485" style="fill:rgb(252,251,219);stroke:rgb(51,42,50);stroke-width:2.08px;stroke-linecap:round;stroke-miterlimit:1.5;"/>
                </g>
                <g transform="matrix(1.15388,0,0,1.00964,-196.66,2105.56)">
                    <ellipse cx="1077.89" cy="543.818" rx="5.485" ry="5.485" style="fill:rgb(252,251,219);stroke:rgb(51,42,50);stroke-width:3.32px;stroke-linecap:round;stroke-miterlimit:1.5;"/>
                </g>
            </g>
            <g transform="matrix(1.73082,0,0,1.73082,-928.881,1666.2)">
                <g transform="matrix(1.07432,0,0,1.07746,45.2339,-32.3547)">
                    <ellipse cx="1074.44" cy="544.316" rx="41.293" ry="39.619" style="fill:rgb(245,54,127);stroke:rgb(51,42,50);stroke-width:1.93px;stroke-linecap:round;stroke-miterlimit:1.5;"/>
                </g>
                <g transform="matrix(1,0,0,1,139.879,16.2278)">
                    <path d="M1016.78,526.907C1017.44,523.762 1044,521.021 1057.7,521.996C1072.16,523.024 1100.88,524.038 1103.49,533.076C1106.48,543.386 1102.06,554.227 1093.69,565.346C1086.96,574.289 1074.97,580.289 1056.03,580.587C1044.03,580.775 1031.6,575.052 1021.71,560.525C1015.47,551.364 1013.88,540.713 1016.78,526.907Z" style="fill:rgb(252,251,219);"/>
                    <clipPath id="_clip2">
                        <path d="M1016.78,526.907C1017.44,523.762 1044,521.021 1057.7,521.996C1072.16,523.024 1100.88,524.038 1103.49,533.076C1106.48,543.386 1102.06,554.227 1093.69,565.346C1086.96,574.289 1074.97,580.289 1056.03,580.587C1044.03,580.775 1031.6,575.052 1021.71,560.525C1015.47,551.364 1013.88,540.713 1016.78,526.907Z"/>
                    </clipPath>
                    <g clip-path="url(#_clip2)">
                        <g transform="matrix(1.20454,0,0,1.24204,-211.47,-136.441)">
                            <path d="M1044.52,576.045C1044.85,570.909 1046.21,565.195 1049.64,561.18C1052.99,557.258 1060.91,550.44 1060.91,550.44C1060.91,550.44 1048.99,531.141 1054.36,524.775C1056.16,522.639 1058.85,519.82 1061.57,518.936C1070.1,516.16 1080.07,524.32 1085.46,529.871C1088.72,533.225 1091.9,537.502 1093.18,542.048C1096.6,554.204 1091.24,569.641 1079.98,575.723C1075.5,578.141 1070.85,579.835 1065.71,579.752C1058.34,579.632 1050.91,578.182 1043.93,575.821C1043.81,575.781 1044.52,576.045 1044.52,576.045Z" style="fill:rgb(51,42,50);"/>
                        </g>
                    </g>
                    <path d="M1016.78,526.907C1017.44,523.762 1044,521.021 1057.7,521.996C1072.16,523.024 1100.88,524.038 1103.49,533.076C1106.48,543.386 1102.06,554.227 1093.69,565.346C1086.96,574.289 1074.97,580.289 1056.03,580.587C1044.03,580.775 1031.6,575.052 1021.71,560.525C1015.47,551.364 1013.88,540.713 1016.78,526.907Z" style="fill:none;stroke:rgb(51,42,50);stroke-width:2.08px;stroke-linecap:round;stroke-miterlimit:1.5;"/>
                </g>
                <g transform="matrix(1,0,0,1,150.621,13.9421)">
                    <ellipse cx="1077.89" cy="543.818" rx="5.485" ry="5.485" style="fill:rgb(252,251,219);stroke:rgb(51,42,50);stroke-width:2.08px;stroke-linecap:round;stroke-miterlimit:1.5;"/>
                </g>
                <g transform="matrix(0.666667,0,0,0.583333,501.23,254.247)">
                    <ellipse cx="1077.89" cy="543.818" rx="5.485" ry="5.485" style="fill:rgb(252,251,219);stroke:rgb(51,42,50);stroke-width:3.32px;stroke-linecap:round;stroke-miterlimit:1.5;"/>
                </g>
            </g>
            <g transform="matrix(1.91553,0,0,1.75345,-1062.68,723.898)">
                <path d="M1115.47,1164.78C1129.88,1164.78 1142.48,1161.1 1142.48,1167.01C1142.48,1172.93 1130.33,1185.32 1115.91,1185.32C1101.5,1185.32 1088.91,1172.93 1088.91,1167.01C1088.91,1161.1 1101.06,1164.78 1115.47,1164.78Z" style="fill:rgb(252,251,219);stroke:rgb(51,42,50);stroke-width:1.96px;stroke-linecap:round;stroke-miterlimit:1.5;"/>
                <g transform="matrix(0.965772,-0.259394,0.259394,0.965772,-266.161,325.261)">
                    <path d="M1101.88,1164.02L1096.89,1178.29" style="fill:none;stroke:rgb(51,42,50);stroke-width:1.92px;stroke-linecap:round;stroke-miterlimit:1.5;"/>
                </g>
                <g transform="matrix(0.918795,-0.394735,0.394735,0.918795,-343.113,530.855)">
                    <path d="M1101.88,1164.02L1096.89,1178.29" style="fill:none;stroke:rgb(51,42,50);stroke-width:1.9px;stroke-linecap:round;stroke-miterlimit:1.5;"/>
                </g>
                <g transform="matrix(0.954228,-0.383338,0.299671,1.17507,-284.617,219.53)">
                    <path d="M1101.88,1164.02L1096.89,1178.29" style="fill:none;stroke:rgb(51,42,50);stroke-width:1.83px;stroke-linecap:round;stroke-miterlimit:1.5;"/>
                </g>
            </g>
            <g transform="matrix(1.48714,-0.264233,0.264233,1.48714,-267.386,1000.53)">
                <path d="M427.291,1253.45C439.478,1239.96 443.32,1224.8 431.755,1206.58C431.755,1206.58 414.457,1211.04 405.529,1186.49C396.601,1161.94 404.567,1168.08 396.601,1161.94C367.254,1139.31 367.026,1175.33 367.026,1175.33C367.026,1175.33 374.25,1199.34 379.861,1210.49C394.762,1240.08 427.291,1253.45 427.291,1253.45Z" style="fill:rgb(245,225,27);stroke:rgb(51,42,50);stroke-width:2.51px;stroke-linecap:round;stroke-miterlimit:1.5;"/>
                <path d="M396.91,1143.65C396.33,1146.74 402.222,1145.75 404.971,1148.55C409.887,1153.55 406.221,1162.29 402.181,1164.73C398.14,1167.16 386.587,1161.49 380.728,1163.16C374.971,1164.81 371.889,1173.64 367.026,1174.77C362.164,1175.9 353.012,1173.29 351.55,1169.92C348.269,1162.38 356.379,1160.76 354.192,1156.92C350.634,1150.66 337.583,1155.17 330.198,1132.36C327.96,1125.45 327.466,1117.68 329.082,1110.6C330.034,1106.43 316.462,1102.06 322.795,1087.36C328.066,1075.13 341.017,1086.46 341.916,1081.03C343.869,1069.22 339.219,1047.36 340.8,1039.74C341.579,1035.98 348.147,1034.81 351.402,1035.27C354.657,1035.74 358.967,1038.94 360.33,1042.53C362.841,1049.13 364.794,1075.08 366.468,1074.89C368.142,1074.7 367.944,1048.27 370.375,1041.41C371.838,1037.28 377.889,1033.38 381.051,1033.75C384.213,1034.12 388.428,1039.44 389.347,1043.64C391.008,1051.24 389.812,1072.56 391.021,1079.35C391.459,1081.82 394.999,1082.45 396.601,1084.38C399.391,1087.72 405.653,1093.56 407.761,1099.44C409.993,1105.67 411.775,1114.5 409.993,1121.76C408.184,1129.13 397.747,1139.19 396.91,1143.65Z" style="fill:rgb(252,251,219);stroke:rgb(51,42,50);stroke-width:2.51px;stroke-linecap:round;stroke-miterlimit:1.5;"/>
                <path d="M327.656,1107.78C337.914,1119.11 346.256,1118.76 351.482,1110.51C352.254,1109.29 352.706,1107.99 352.858,1106.56C353.034,1104.88 352.867,1103.2 352.485,1101.56C350.762,1094.17 347.367,1085.45 338.124,1082.35" style="fill:none;stroke:rgb(51,42,50);stroke-width:2.51px;stroke-linecap:round;stroke-miterlimit:1.5;"/>
                <path d="M393.552,1082.31C387.21,1082.03 368.576,1083.11 365.429,1084.23C358.445,1086.71 364.733,1097.07 368.168,1099.82C370.571,1101.74 373.242,1102.05 375.868,1103.37C376.437,1103.66 375.089,1104.38 374.666,1104.85C373.283,1106.41 371.804,1107.81 370.17,1109.1C365.869,1112.49 359.979,1116.74 360.728,1123.02" style="fill:none;stroke:rgb(51,42,50);stroke-width:2.51px;stroke-linecap:round;stroke-miterlimit:1.5;"/>
                <path d="M365.095,1066.47C365.095,1068.85 366.437,1081.18 366.388,1083.56" style="fill:none;stroke:rgb(51,42,50);stroke-width:2.51px;stroke-linecap:round;stroke-miterlimit:1.5;"/>
                <g transform="matrix(0.993538,0.113504,-0.113504,0.993538,125.877,-35.5628)">
                    <path d="M365.095,1066.47C365.095,1068.85 366.437,1081.18 366.388,1083.56" style="fill:none;stroke:rgb(51,42,50);stroke-width:2.51px;stroke-linecap:round;stroke-miterlimit:1.5;"/>
                </g>
                <path d="M354.37,1159.24C357.426,1154.44 360.892,1149.39 366.065,1146.7" style="fill:none;stroke:rgb(51,42,50);stroke-width:2.51px;stroke-linecap:round;stroke-miterlimit:1.5;"/>
                <path d="M398.254,1145.98C395.628,1145.39 393.112,1145.2 390.425,1145.17" style="fill:none;stroke:rgb(51,42,50);stroke-width:2.51px;stroke-linecap:round;stroke-miterlimit:1.5;"/>
            </g>
            <g transform="matrix(-1.48714,-0.264233,-0.264233,1.48714,2419.99,993.72)">
                <path d="M427.291,1253.45C439.478,1239.96 443.32,1224.8 431.755,1206.58C431.755,1206.58 414.457,1211.04 405.529,1186.49C396.601,1161.94 404.567,1168.08 396.601,1161.94C367.254,1139.31 367.026,1175.33 367.026,1175.33C367.026,1175.33 374.25,1199.34 379.861,1210.49C394.762,1240.08 427.291,1253.45 427.291,1253.45Z" style="fill:rgb(245,225,27);stroke:rgb(51,42,50);stroke-width:2.51px;stroke-linecap:round;stroke-miterlimit:1.5;"/>
                <path d="M396.91,1143.65C396.33,1146.74 402.222,1145.75 404.971,1148.55C409.887,1153.55 406.221,1162.29 402.181,1164.73C398.14,1167.16 386.587,1161.49 380.728,1163.16C374.971,1164.81 371.889,1173.64 367.026,1174.77C362.164,1175.9 353.012,1173.29 351.55,1169.92C348.269,1162.38 356.379,1160.76 354.192,1156.92C350.634,1150.66 337.583,1155.17 330.198,1132.36C327.96,1125.45 327.466,1117.68 329.082,1110.6C330.034,1106.43 316.462,1102.06 322.795,1087.36C328.066,1075.13 341.017,1086.46 341.916,1081.03C343.869,1069.22 339.219,1047.36 340.8,1039.74C341.579,1035.98 348.147,1034.81 351.402,1035.27C354.657,1035.74 358.967,1038.94 360.33,1042.53C362.841,1049.13 364.794,1075.08 366.468,1074.89C368.142,1074.7 367.944,1048.27 370.375,1041.41C371.838,1037.28 377.889,1033.38 381.051,1033.75C384.213,1034.12 388.428,1039.44 389.347,1043.64C391.008,1051.24 389.812,1072.56 391.021,1079.35C391.459,1081.82 394.999,1082.45 396.601,1084.38C399.391,1087.72 405.653,1093.56 407.761,1099.44C409.993,1105.67 411.775,1114.5 409.993,1121.76C408.184,1129.13 397.747,1139.19 396.91,1143.65Z" style="fill:rgb(252,251,219);stroke:rgb(51,42,50);stroke-width:2.51px;stroke-linecap:round;stroke-miterlimit:1.5;"/>
                <path d="M327.656,1107.78C337.914,1119.11 346.256,1118.76 351.482,1110.51C352.254,1109.29 352.706,1107.99 352.858,1106.56C353.034,1104.88 352.867,1103.2 352.485,1101.56C350.762,1094.17 347.367,1085.45 338.124,1082.35" style="fill:none;stroke:rgb(51,42,50);stroke-width:2.51px;stroke-linecap:round;stroke-miterlimit:1.5;"/>
                <path d="M393.552,1082.31C387.21,1082.03 368.576,1083.11 365.429,1084.23C358.445,1086.71 364.733,1097.07 368.168,1099.82C370.571,1101.74 373.242,1102.05 375.868,1103.37C376.437,1103.66 375.089,1104.38 374.666,1104.85C373.283,1106.41 371.804,1107.81 370.17,1109.1C365.869,1112.49 359.979,1116.74 360.728,1123.02" style="fill:none;stroke:rgb(51,42,50);stroke-width:2.51px;stroke-linecap:round;stroke-miterlimit:1.5;"/>
                <path d="M365.095,1066.47C365.095,1068.85 366.437,1081.18 366.388,1083.56" style="fill:none;stroke:rgb(51,42,50);stroke-width:2.51px;stroke-linecap:round;stroke-miterlimit:1.5;"/>
                <g transform="matrix(0.993538,0.113504,-0.113504,0.993538,125.877,-35.5628)">
                    <path d="M365.095,1066.47C365.095,1068.85 366.437,1081.18 366.388,1083.56" style="fill:none;stroke:rgb(51,42,50);stroke-width:2.51px;stroke-linecap:round;stroke-miterlimit:1.5;"/>
                </g>
                <path d="M354.37,1159.24C357.426,1154.44 360.892,1149.39 366.065,1146.7" style="fill:none;stroke:rgb(51,42,50);stroke-width:2.51px;stroke-linecap:round;stroke-miterlimit:1.5;"/>
                <path d="M398.254,1145.98C395.628,1145.39 393.112,1145.2 390.425,1145.17" style="fill:none;stroke:rgb(51,42,50);stroke-width:2.51px;stroke-linecap:round;stroke-miterlimit:1.5;"/>
            </g>
        </g>
    </g>
</svg>
