<?xml version="1.0" encoding="UTF-8" standalone="no"?><!DOCTYPE svg PUBLIC "-//W3C//DTD SVG 1.1//EN" "http://www.w3.org/Graphics/SVG/1.1/DTD/svg11.dtd"><svg width="100%" height="100%" viewBox="0 0 872 597" version="1.1" xmlns="http://www.w3.org/2000/svg" xmlns:xlink="http://www.w3.org/1999/xlink" xml:space="preserve" xmlns:serif="http://www.serif.com/" style="fill-rule:evenodd;clip-rule:evenodd;stroke-linejoin:round;stroke-miterlimit:2;"><g><path d="M79.493,559.761c-30.593,-86.335 -30.242,-429.566 -0,-515.901c20.097,-57.372 148.992,-53.825 181.451,-2.108c33.559,53.468 65.269,218.477 99.794,218.828c34.524,0.352 60.272,-180.6 107.352,-216.72c46.411,-35.607 156.267,-55.556 175.126,0c29.188,85.984 29.715,429.39 0,515.901c-19.406,56.497 -148.574,35.153 -178.289,3.162c-29.715,-31.99 11.391,-182.392 0,-195.106c-11.391,-12.713 -46.392,99.023 -68.346,118.827c-15.727,14.187 -47.728,14.268 -63.382,0c-21.728,-19.804 -55.293,-131.364 -66.984,-118.827c-11.691,12.538 27.958,162.062 -3.162,194.052c-31.121,31.991 -163.02,55.856 -183.56,-2.108Z" style="fill:#f5e11b;fill-rule:nonzero;stroke:#332a32;stroke-width:3.79px;"/><path d="M100.68,540.56c-23.945,-79.204 -23.945,-396.021 0,-475.225c13.859,-45.842 113.605,-47.64 143.673,-0c31.086,49.253 68.87,191.576 108.012,191.576c39.142,0 81.752,-159.647 126.837,-191.576c39.083,-27.679 129.814,-45.842 143.673,-0c23.946,79.204 23.946,396.021 0,475.225c-13.859,45.841 -119.727,41.444 -143.673,-0c-23.945,-41.444 14.621,-234.85 0,-248.664c-14.62,-13.815 -63.317,138.146 -87.723,165.776c-12.956,14.667 -45.721,14.637 -58.712,-0c-24.521,-27.63 -73.679,-179.591 -88.414,-165.776c-14.736,13.814 23.945,207.22 -0,248.664c-23.946,41.444 -129.814,45.841 -143.673,-0Z" style="fill:#e6136a;fill-rule:nonzero;"/><g><path d="M806.256,271.519c-26.394,1.628 -50.454,-16.736 -55.293,-43.391c-5.219,-28.749 13.884,-56.326 42.633,-61.545c28.748,-5.218 56.325,13.885 61.544,42.633c4.654,25.641 -7.7,49.366 -31.329,58.111c0.543,0.569 0.931,1.297 1.082,2.128l15.842,78.241c0.41,2.262 -1.093,4.432 -3.355,4.842l-10.535,2.472c-2.262,0.411 -4.431,-1.092 -4.842,-3.354l-15.842,-78.242c-0.119,-0.652 -0.078,-1.298 0.095,-1.895Z" style="fill:#1bcdf5;stroke:#332a32;stroke-width:1.48px;stroke-linecap:round;stroke-miterlimit:1.5;"/><path d="M795.371,179.371c22.035,-4 43.173,10.642 47.173,32.678c4,22.035 -10.642,43.173 -32.678,47.173c-22.035,4 -43.173,-10.642 -47.173,-32.678c-4,-22.035 10.642,-43.173 32.678,-47.173Z" style="fill:#fcfbdb;stroke:#332a32;stroke-width:1.13px;stroke-linecap:round;stroke-miterlimit:1.5;"/></g><g><g><path d="M666.965,342.926c13.569,-1.655 46.425,14.092 59.921,16.764c6.89,1.364 14.966,1.316 21.057,-0.73c6.092,-2.046 9.131,-10.544 15.493,-11.547c6.579,-1.037 22.291,0.223 23.986,5.322c1.696,5.098 -6.53,19.016 -13.814,25.269c-8.141,6.99 -22.123,15.906 -35.032,16.67c-18.926,1.121 -63.004,-5.769 -78.521,-9.945c-6.758,-1.819 -15.719,-8.206 -14.578,-15.111c1.152,-6.968 10.15,-25.31 21.488,-26.692Z" style="fill:#f5e11b;stroke:#332a32;stroke-width:2.69px;stroke-linecap:round;stroke-miterlimit:1.5;"/></g><g><g><path d="M778.65,381.314c7.338,8.349 17.054,15.052 28.221,16.644c11.545,1.646 24.678,-2.018 35.714,-5.024c8.376,-2.281 20.008,-3.722 24.817,-11.991c5.982,-10.284 -0.929,-18.348 -10.291,-22.2c-0.262,-0.108 1.857,-4.359 2.001,-4.648c1.529,-3.053 3.048,-6.054 3.01,-9.551c-0.042,-3.796 -1.79,-7.188 -4.72,-9.62c-0.465,-0.386 -4.513,-2.249 -4.531,-2.338c-0.222,-1.066 2.603,-3.983 3.146,-5.022c2.409,-4.612 1.819,-8.986 -1.81,-12.796c-10.886,-11.432 -25.274,0.653 -36.572,3.693c-1.333,0.359 -6.182,-4.237 -7.329,-5.011c-5.014,-3.386 -10.29,-5.566 -16.387,-4.153c-12.995,3.013 -16.375,19.828 -21.277,30.223c-0.352,0.747 -12.629,-8.203 -14.799,1.974c-6.083,28.537 11.285,55.546 20.807,39.82Z" style="fill:#fcfbdb;stroke:#332a32;stroke-width:3.31px;stroke-linecap:round;stroke-miterlimit:1.5;"/><path d="M855.647,389.348c-4.663,0.892 -9.314,1.407 -14.045,1.751c-7.153,0.518 -15.109,0.625 -20.891,-4.431c-1.623,-1.42 -3.259,-3.644 -3.634,-5.822c-0.611,-3.542 1.777,-8.164 4.13,-10.694c3.454,-3.712 8.322,-5.548 13.044,-7.061c3.903,-1.251 7.831,-2.453 11.882,-3.143" style="fill:none;stroke:#332a32;stroke-width:3.31px;stroke-linecap:round;stroke-miterlimit:1.5;"/><path d="M828.663,364.616c-6.173,-0.735 -13.279,-4.25 -12.825,-11.557c0.084,-1.34 0.343,-2.623 0.812,-3.881c0.551,-1.48 1.36,-2.906 2.474,-4.034c3.609,-3.652 8.262,-5.363 13.057,-6.795c4.295,-1.282 8.556,-2.247 12.967,-3.023" style="fill:none;stroke:#332a32;stroke-width:3.31px;stroke-linecap:round;stroke-miterlimit:1.5;"/><path d="M821.976,341.636c-2.39,-0.231 -5.127,-0.751 -7.115,-2.171c-4.483,-3.201 -6.262,-10.644 -3.654,-15.523c2.666,-4.987 5.588,-4.824 10.556,-6.859" style="fill:none;stroke:#332a32;stroke-width:3.31px;stroke-linecap:round;stroke-miterlimit:1.5;"/><path d="M815.702,340.544c0.737,3.097 2.51,4.879 1.111,7.751c-0.932,1.915 -1.842,6.238 -0.059,9.646c0.713,1.363 0.041,2.396 -0.927,3.706c-2.007,2.72 -6.966,1.101 -9.254,-0.241c-0.609,-0.357 -1.226,-0.709 -1.814,-1.099c-0.745,-0.495 -1.487,-1.018 -2.151,-1.618c-1.983,-1.793 -3.356,-3.998 -4.87,-6.176c-1.26,-1.813 -2.637,-3.557 -3.623,-5.544c-2.343,-4.726 -3.119,-10.634 -1.37,-15.698" style="fill:none;stroke:#332a32;stroke-width:3.31px;stroke-linecap:round;stroke-miterlimit:1.5;"/><path d="M780.061,382.356c-1.662,-4.326 -2.334,-8.347 -2.43,-12.972" style="fill:none;stroke:#332a32;stroke-width:3.31px;stroke-linecap:round;stroke-miterlimit:1.5;"/><path d="M775.152,353.497c-0.268,-4.213 -0.204,-11.005 -3.259,-14.281" style="fill:none;stroke:#332a32;stroke-width:3.31px;stroke-linecap:round;stroke-miterlimit:1.5;"/></g></g></g><g><path d="M309.237,335.277c-5.114,1.959 -7.646,5.401 -5.832,10.94" style="fill:none;stroke:#332a32;stroke-width:3.41px;stroke-linecap:round;stroke-miterlimit:1.5;"/><path d="M409.37,337.856c3.542,2.324 7.795,6.148 6.271,10.915" style="fill:none;stroke:#332a32;stroke-width:3.41px;stroke-linecap:round;stroke-miterlimit:1.5;"/></g><g><ellipse cx="303.49" cy="236.381" rx="59.411" ry="57.169" style="fill:#fcfbdb;"/><clipPath id="_clip1"><ellipse cx="303.49" cy="236.381" rx="59.411" ry="57.169"/></clipPath><g clip-path="url(#_clip1)"><path d="M290.316,292.686c0.598,-10.638 7.947,-93.013 17.49,-106.201c3.201,-4.424 7.962,-10.264 12.795,-12.095c15.168,-5.749 32.863,11.152 42.448,22.652c5.79,6.946 11.431,15.807 13.706,25.222c6.085,25.181 -3.448,57.156 -23.447,69.756c-7.948,5.007 -16.216,8.516 -25.337,8.344c-13.104,-0.247 -26.295,-3.252 -38.694,-8.143c-0.21,-0.083 1.039,0.465 1.039,0.465Z" style="fill:#332a32;"/></g><ellipse cx="303.49" cy="236.381" rx="59.411" ry="57.169" style="fill:none;stroke:#332a32;stroke-width:3.6px;stroke-linecap:round;stroke-miterlimit:1.5;"/><ellipse cx="319.324" cy="230.282" rx="7.346" ry="7.346" style="fill:#fcfbdb;stroke:#332a32;stroke-width:3.6px;stroke-linecap:round;stroke-miterlimit:1.5;"/><ellipse cx="313.954" cy="254.91" rx="4.898" ry="4.285" style="fill:#fcfbdb;stroke:#332a32;stroke-width:3.6px;stroke-linecap:round;stroke-miterlimit:1.5;"/></g><g><ellipse cx="408.637" cy="239.754" rx="59.411" ry="57.169" style="fill:#fcfbdb;"/><clipPath id="_clip2"><ellipse cx="408.637" cy="239.754" rx="59.411" ry="57.169"/></clipPath><g clip-path="url(#_clip2)"><path d="M396.805,295.612c0.598,-10.638 7.947,-93.013 17.49,-106.201c3.201,-4.424 7.962,-10.264 12.795,-12.095c15.168,-5.749 32.863,11.152 42.448,22.652c5.79,6.946 11.431,15.807 13.706,25.222c6.085,25.181 -3.448,57.156 -23.447,69.755c-7.949,5.008 -16.217,8.517 -25.337,8.345c-13.104,-0.247 -26.295,-3.252 -38.694,-8.143c-0.21,-0.083 1.039,0.465 1.039,0.465Z" style="fill:#332a32;"/></g><ellipse cx="408.637" cy="239.754" rx="59.411" ry="57.169" style="fill:none;stroke:#332a32;stroke-width:3.6px;stroke-linecap:round;stroke-miterlimit:1.5;"/><path d="M420.167,229.218c3.929,-1.004 7.933,1.37 8.937,5.298c1.003,3.929 -1.371,7.933 -5.299,8.937c-3.929,1.004 -7.933,-1.371 -8.937,-5.299c-1.003,-3.928 1.371,-7.933 5.299,-8.936Z" style="fill:#fcfbdb;stroke:#332a32;stroke-width:3.6px;stroke-linecap:round;stroke-miterlimit:1.5;"/><path d="M419.57,253.752c2.619,-0.67 5.22,0.648 5.806,2.939c0.586,2.292 -1.065,4.695 -3.684,5.364c-2.619,0.67 -5.221,-0.647 -5.806,-2.939c-0.586,-2.291 1.065,-4.695 3.684,-5.364Z" style="fill:#fcfbdb;stroke:#332a32;stroke-width:3.6px;stroke-linecap:round;stroke-miterlimit:1.5;"/></g><g><path d="M359.504,346.013c21.363,0 40.03,-4.994 40.03,3.029c0,8.022 -18.005,24.832 -39.368,24.832c-21.363,-0 -40.03,-16.81 -40.03,-24.832c0,-8.023 18.006,-3.029 39.368,-3.029Z" style="fill:#fcfbdb;stroke:#332a32;stroke-width:3.6px;stroke-linecap:round;stroke-miterlimit:1.5;"/><path d="M336.493,344.436l-1.654,20.455" style="fill:none;stroke:#332a32;stroke-width:3.6px;stroke-linecap:round;stroke-miterlimit:1.5;"/><path d="M379.218,346.855l1.556,20.461" style="fill:none;stroke:#332a32;stroke-width:3.6px;stroke-linecap:round;stroke-miterlimit:1.5;"/><path d="M359.775,346.228l-0.717,25.346" style="fill:none;stroke:#332a32;stroke-width:3.6px;stroke-linecap:round;stroke-miterlimit:1.5;"/></g><g><path d="M215.416,276.999l-6.816,3.031l-8.643,-1.376l-4.055,-0.646l-5.784,-0.92l-4.055,-0.646l-5.783,-0.921l-4.055,-0.646l-0,0.001l-5.784,-0.921l-4.055,-0.646l-0,0l-4.821,-0.768c0.118,-0.253 0.179,-0.534 0.173,-0.824c-0.028,-1.378 -1.493,-2.27 -2.763,-1.682l-85.557,39.571c-0.693,0.32 -1.129,1.01 -1.114,1.761l3.415,167.391c0.056,2.76 1.738,5.231 4.311,6.341c4.813,2.08 11.106,4.213 18.646,5.383c0.003,-0 0.006,0.001 0.01,0.001c0.158,0.024 0.316,0.049 0.476,0.073c0.009,0.001 0.018,0.003 0.027,0.003c0.168,0.026 0.336,0.05 0.505,0.074c0.021,0.003 0.043,0.006 0.064,0.009c0.175,0.025 0.35,0.049 0.526,0.072c0.036,0.005 0.072,0.009 0.108,0.015c0.064,0.008 0.128,0.017 0.192,0.024c0.062,0.008 0.124,0.017 0.187,0.024c0.056,0.008 0.112,0.015 0.169,0.021c0.081,0.011 0.162,0.021 0.243,0.031c0.041,0.004 0.082,0.01 0.123,0.014c0.126,0.016 0.253,0.031 0.379,0.045c14.662,1.681 26.468,-1.266 32.969,-3.409c27.489,-12.143 54.98,-24.285 82.469,-36.428c2.732,-1.206 4.465,-3.897 4.405,-6.837l-3.376,-165.521c-0.028,-1.366 -1.469,-2.258 -2.736,-1.694Z" style="fill:#e7ddb9;fill-rule:nonzero;"/><path d="M199.957,278.654l-4.055,-0.646l-61.965,30.216c-0.322,-0.688 -0.623,-1.386 -0.902,-2.092c-0.134,-0.339 -0.262,-0.68 -0.386,-1.021l57.469,-28.023l-4.055,-0.646l-54.154,26.407c-0.324,-1.102 -0.598,-2.216 -0.825,-3.339l49.196,-23.989l-4.055,-0.646l-0,0.001l-45.553,22.212c-0.166,-1.186 -0.279,-2.378 -0.342,-3.574l40.111,-19.559l-4.055,-0.646l-0,0l-36.113,17.609c0.01,-1.156 0.066,-2.313 0.168,-3.467c-15.37,7.277 -30.737,14.676 -46.112,21.648c0.976,0.959 2.018,1.861 3.128,2.697c0.715,0.539 1.458,1.052 2.23,1.536c0.231,0.145 0.464,0.288 0.7,0.427c0.941,0.557 1.907,1.076 2.89,1.563c0.908,0.45 1.832,0.874 2.767,1.274c1.401,0.6 2.826,1.149 4.26,1.664c0.884,0.317 1.771,0.621 2.657,0.915c0.247,0.019 0.492,0.037 0.737,0.053c2.691,0.176 5.256,0.157 7.675,-0.002c2.613,-0.171 5.055,-0.506 7.296,-0.934c5.495,-1.05 9.786,-2.661 12.456,-3.803l5.009,-2.228c-0.396,-0.634 -0.773,-1.279 -1.132,-1.934l64.955,-31.673Z" style="fill:#c7c0a2;fill-rule:nonzero;"/><path d="M215.416,276.999l-6.816,3.031l-72.466,32.231l-5.009,2.228c-2.67,1.142 -6.961,2.753 -12.456,3.803c-2.241,0.428 -4.683,0.763 -7.296,0.934c-2.419,0.159 -4.984,0.178 -7.675,0.002c-0.245,-0.016 -0.49,-0.034 -0.737,-0.053c-0.886,-0.294 -1.773,-0.598 -2.657,-0.915c-1.434,-0.515 -2.859,-1.064 -4.26,-1.664c-0.935,-0.4 -1.859,-0.824 -2.767,-1.274c-0.983,-0.487 -1.949,-1.006 -2.89,-1.563c-0.236,-0.139 -0.469,-0.282 -0.7,-0.427c-0.772,-0.484 -1.515,-0.997 -2.23,-1.536c-1.11,-0.836 -2.152,-1.738 -3.128,-2.697c15.375,-6.972 30.742,-14.371 46.112,-21.648c10.053,-4.759 20.106,-9.466 30.164,-13.967c0.435,-0.195 0.77,-0.533 0.96,-0.943c0.118,-0.253 0.179,-0.534 0.173,-0.824c-0.028,-1.378 -1.493,-2.27 -2.763,-1.682l-85.557,39.571c-0.693,0.32 -1.129,1.01 -1.114,1.761l3.415,167.391c0.056,2.76 1.738,5.231 4.311,6.341c4.813,2.08 11.106,4.213 18.646,5.383c0.003,-0 0.006,0.001 0.01,0.001c0.158,0.024 0.316,0.049 0.476,0.073c0.009,0.001 0.018,0.003 0.027,0.003c0.168,0.026 0.336,0.05 0.505,0.074c0.021,0.003 0.043,0.006 0.064,0.009c0.175,0.025 0.35,0.049 0.526,0.072c0.036,0.005 0.072,0.009 0.108,0.015c0.064,0.008 0.128,0.017 0.192,0.024c0.062,0.008 0.124,0.017 0.187,0.024c0.056,0.008 0.112,0.015 0.169,0.021c0.081,0.011 0.162,0.021 0.243,0.031c0.041,0.004 0.082,0.01 0.123,0.014c0.126,0.016 0.253,0.031 0.379,0.045c14.662,1.681 26.468,-1.266 32.969,-3.409c27.489,-12.143 54.98,-24.285 82.469,-36.428c2.732,-1.206 4.465,-3.897 4.405,-6.837l-3.376,-165.521c-0.028,-1.366 -1.469,-2.258 -2.736,-1.694Z" style="fill:#db77a0;fill-rule:nonzero;"/><path d="M87.457,311.796c0.715,0.539 1.458,1.052 2.23,1.536l40.643,-19.818l40.111,-19.559l-4.055,-0.646l-0,0l-36.113,17.609l-42.816,20.878Z" style="fill:#a49f87;fill-rule:nonzero;"/><path d="M93.277,315.322c0.908,0.45 1.832,0.874 2.767,1.274l35.04,-17.086l49.196,-23.989l-4.055,-0.646l-0,0.001l-45.553,22.212l-37.395,18.234Z" style="fill:#a49f87;fill-rule:nonzero;"/><path d="M100.304,318.26c0.884,0.317 1.771,0.621 2.657,0.915c0.247,0.019 0.492,0.037 0.737,0.053l28.951,-14.117l57.469,-28.023l-4.055,-0.646l-54.154,26.407l-31.605,15.411Z" style="fill:#a49f87;fill-rule:nonzero;"/><path d="M111.373,319.226c2.613,-0.171 5.055,-0.506 7.296,-0.934l16.333,-7.965l64.955,-31.673l-4.055,-0.646l-61.965,30.216l-22.564,11.002Z" style="fill:#a49f87;fill-rule:nonzero;"/><path d="M100.304,318.26c-1.434,-0.515 -2.859,-1.064 -4.26,-1.664c-0.935,-0.4 -1.859,-0.824 -2.767,-1.274c-0.983,-0.487 -1.949,-1.006 -2.89,-1.563c-0.236,-0.139 -0.469,-0.282 -0.7,-0.427c-0.772,-0.484 -1.515,-0.997 -2.23,-1.536c-1.11,-0.836 -2.152,-1.738 -3.128,-2.697c-1.929,0.875 -3.858,1.743 -5.787,2.603c1.245,0.704 2.733,1.486 4.447,2.273c0.894,0.41 1.85,0.822 2.866,1.225c0.798,0.317 1.634,0.629 2.505,0.93l3.529,172.979c2.433,0.608 5.037,1.132 7.805,1.524c0.021,0.003 0.043,0.006 0.064,0.009c0.175,0.025 0.35,0.049 0.526,0.072c0.036,0.005 0.072,0.009 0.108,0.015c0.064,0.008 0.128,0.017 0.192,0.024c0.062,0.008 0.124,0.017 0.187,0.024c0.056,0.008 0.112,0.015 0.169,0.021c0.081,0.011 0.162,0.021 0.243,0.031c0.041,0.004 0.082,0.01 0.123,0.014c0.126,0.016 0.253,0.031 0.379,0.045c1.406,0.162 2.775,0.268 4.126,0.349l-3.511,-172.118c0.221,0.02 0.442,0.039 0.661,0.056c-0.886,-0.294 -1.773,-0.598 -2.657,-0.915Z" style="fill:#dc8aaa;fill-rule:nonzero;"/><path d="M209.473,430.264c0.086,4.239 -2.381,8.131 -6.292,9.929l-60.532,27.814c-3.567,1.639 -7.668,-0.865 -7.747,-4.731l-2.538,-124.425c-0.043,-2.111 1.183,-4.05 3.129,-4.948l69.38,-32.038c0.929,-0.413 1.985,0.241 2.006,1.242l2.594,127.157Zm2.275,-143.312l-19.206,8.868l-50.817,23.466l-15.663,7.233c-2.403,1.109 -3.917,3.504 -3.864,6.11l2.9,142.162c0.098,4.772 5.163,7.865 9.568,5.841l74.757,-34.351c4.831,-2.22 7.878,-7.027 7.771,-12.261l-2.969,-145.535c-0.025,-1.236 -1.329,-2.044 -2.477,-1.533Z" style="fill:#ec8fac;fill-rule:nonzero;"/><path d="M96.044,316.596c-0.935,-0.4 -1.859,-0.824 -2.767,-1.274c-0.983,-0.487 -1.949,-1.006 -2.89,-1.563c-0.236,-0.139 -0.469,-0.282 -0.7,-0.427c-0.772,-0.484 -1.515,-0.997 -2.23,-1.536c-1.11,-0.836 -2.152,-1.738 -3.128,-2.697c-1.929,0.875 -3.858,1.743 -5.787,2.603c1.245,0.704 2.733,1.486 4.447,2.273c0.894,0.41 1.85,0.822 2.866,1.225c0.798,0.317 1.634,0.629 2.505,0.93l-0,-0.005c0.634,0.219 1.287,0.433 1.959,0.64c1.098,0.337 2.245,0.655 3.44,0.945c1.277,0.31 2.609,0.587 3.994,0.822l0.005,0c0.128,0.022 0.258,0.044 0.387,0.065c0.025,0.004 0.05,0.008 0.075,0.012c0.111,0.018 0.223,0.035 0.335,0.053c0.043,0.006 0.085,0.013 0.128,0.019c0.098,0.015 0.196,0.03 0.295,0.045c0.058,0.008 0.116,0.017 0.174,0.025c0.037,0.005 0.074,0.011 0.111,0.016c0.05,0.007 0.099,0.014 0.148,0.021c0.07,0.01 0.141,0.019 0.212,0.029c0.076,0.011 0.153,0.021 0.229,0.031c0.091,0.012 0.181,0.024 0.272,0.035c0.059,0.008 0.117,0.015 0.176,0.023c0.151,0.018 0.302,0.037 0.454,0.054c0.52,0.061 1.034,0.112 1.546,0.157l-0,0.002c0.221,0.02 0.442,0.039 0.661,0.056c-0.886,-0.294 -1.773,-0.598 -2.657,-0.915c-1.434,-0.515 -2.859,-1.064 -4.26,-1.664Z" style="fill:#d95892;fill-rule:nonzero;"/></g><g><g><path d="M69.182,365.406c-3.168,8.047 -20.031,7.963 -22.826,12.768c-2.795,4.806 2.782,11.381 6.057,16.066c3.275,4.685 10.403,6.899 13.592,12.044c4.08,6.585 18.261,24.603 10.891,27.464c-7.369,2.862 -42.581,0.122 -55.11,-10.293c-12.528,-10.415 -22.098,-37.672 -20.061,-52.198c2.036,-14.526 21.674,-28.064 32.281,-34.958c8.945,-5.814 25.495,-11.255 31.358,-6.404c5.862,4.851 6.986,27.465 3.818,35.511Z" style="fill:#f5e11b;stroke:#332a32;stroke-width:2.9px;stroke-linecap:round;stroke-miterlimit:1.5;"/></g><g><path d="M73.454,399.743c-1.738,-0.503 -4.097,-2.898 -6.049,-2.647c-3.807,0.489 -4.312,6.302 -4.731,8.804c-1.386,8.275 2.434,16.812 7.076,23.46c2.217,3.175 5.782,8.688 9.718,9.899c3.606,1.11 12.278,0.673 11.795,-4.421c-0.351,-3.696 3.444,-2.324 6.852,-0.76c6.481,2.974 11.326,7.728 16.091,12.874c2.16,2.333 5.441,6.652 9.088,6.335c5.267,-0.457 6.877,-8.047 5.766,-12.128c-1.23,-4.515 -3.523,-7.928 -6.291,-11.609c-1.062,-1.411 -3.591,-3.683 -3.667,-5.53c-0.094,-2.294 2.358,-4.883 3.813,-6.326c3.437,-3.41 7.665,-6.006 10.923,-9.608c6.21,-6.866 10.896,-15.9 14.265,-24.483c1.891,-4.818 4.55,-10.668 2.51,-15.861c-1.778,-4.527 -5.452,-6.065 -9.845,-4.14c-0.757,0.332 -8.316,6.191 -8.821,5.015c-1.612,-3.759 1.059,-24.224 -4.186,-27.858c-3.596,-2.491 -8.301,0.013 -10.821,2.983c-0.296,0.349 -3.943,6.56 -4.119,6.285c-1.776,-2.784 -3.827,-8.012 -8.195,-6.624c-9.027,2.869 -9.426,17.042 -11.505,24.473c-3.336,11.922 -12.792,22.094 -19.667,31.867Z" style="fill:#fcfbdb;stroke:#332a32;stroke-width:3.15px;stroke-linecap:round;stroke-miterlimit:1.5;"/><path d="M75.872,411.902c-2.664,-3.818 -4.312,-7.263 -2.687,-11.204" style="fill:none;stroke:#332a32;stroke-width:3.15px;stroke-linecap:round;stroke-miterlimit:1.5;"/><path d="M90.756,432.968c-2.602,-0.859 -8.077,-7.298 -8.558,-10.38" style="fill:none;stroke:#332a32;stroke-width:3.15px;stroke-linecap:round;stroke-miterlimit:1.5;"/><path d="M114.053,397.437c8.775,-6.076 11.862,-21.367 19.092,-29.022" style="fill:none;stroke:#332a32;stroke-width:3.15px;stroke-linecap:round;stroke-miterlimit:1.5;"/><path d="M100.971,384.817c6.643,-9.829 7.393,-23.025 12.843,-35.918" style="fill:none;stroke:#332a32;stroke-width:3.15px;stroke-linecap:round;stroke-miterlimit:1.5;"/></g></g></g></svg>