<?xml version="1.0" encoding="UTF-8" standalone="no"?><!DOCTYPE svg PUBLIC "-//W3C//DTD SVG 1.1//EN" "http://www.w3.org/Graphics/SVG/1.1/DTD/svg11.dtd"><svg width="100%" height="100%" viewBox="0 0 861 597" version="1.1" xmlns="http://www.w3.org/2000/svg" xmlns:xlink="http://www.w3.org/1999/xlink" xml:space="preserve" xmlns:serif="http://www.serif.com/" style="fill-rule:evenodd;clip-rule:evenodd;stroke-linejoin:round;stroke-miterlimit:2;"><g><path d="M79.493,559.761c-30.593,-86.335 -30.242,-429.566 -0,-515.901c20.097,-57.372 148.992,-53.825 181.451,-2.108c33.559,53.468 65.269,218.477 99.794,218.828c34.524,0.352 60.272,-180.6 107.352,-216.72c46.411,-35.607 156.267,-55.556 175.126,0c29.188,85.984 29.715,429.39 0,515.901c-19.406,56.497 -148.574,35.153 -178.289,3.162c-29.715,-31.99 11.391,-182.392 0,-195.106c-11.391,-12.713 -46.392,99.023 -68.346,118.827c-15.727,14.187 -47.728,14.268 -63.382,0c-21.728,-19.804 -55.293,-131.364 -66.984,-118.827c-11.691,12.538 27.958,162.062 -3.162,194.052c-31.121,31.991 -163.02,55.856 -183.56,-2.108Z" style="fill:#f5e11b;fill-rule:nonzero;stroke:#332a32;stroke-width:3.79px;"/><path d="M100.68,540.56c-23.945,-79.204 -23.945,-396.021 0,-475.225c13.859,-45.842 113.605,-47.64 143.673,-0c31.086,49.253 68.87,191.576 108.012,191.576c39.142,0 81.752,-159.647 126.837,-191.576c39.083,-27.679 129.814,-45.842 143.673,-0c23.946,79.204 23.946,396.021 0,475.225c-13.859,45.841 -119.727,41.444 -143.673,-0c-23.945,-41.444 14.621,-234.85 0,-248.664c-14.62,-13.815 -63.317,138.146 -87.723,165.776c-12.956,14.667 -45.721,14.637 -58.712,-0c-24.521,-27.63 -73.679,-179.591 -88.414,-165.776c-14.736,13.814 23.945,207.22 -0,248.664c-23.946,41.444 -129.814,45.841 -143.673,-0Z" style="fill:#e6136a;fill-rule:nonzero;"/><g><path d="M309.237,335.277c-5.114,1.959 -7.646,5.401 -5.832,10.94" style="fill:none;stroke:#332a32;stroke-width:3.41px;stroke-linecap:round;stroke-miterlimit:1.5;"/><path d="M409.37,337.856c3.542,2.324 7.795,6.148 6.271,10.915" style="fill:none;stroke:#332a32;stroke-width:3.41px;stroke-linecap:round;stroke-miterlimit:1.5;"/></g><g><ellipse cx="303.49" cy="236.381" rx="59.411" ry="57.169" style="fill:#fcfbdb;"/><clipPath id="_clip1"><ellipse cx="303.49" cy="236.381" rx="59.411" ry="57.169"/></clipPath><g clip-path="url(#_clip1)"><path d="M290.316,292.686c0.598,-10.638 7.947,-93.013 17.49,-106.201c3.201,-4.424 7.962,-10.264 12.795,-12.095c15.168,-5.749 32.863,11.152 42.448,22.652c5.79,6.946 11.431,15.807 13.706,25.222c6.085,25.181 -3.448,57.156 -23.447,69.756c-7.948,5.007 -16.216,8.516 -25.337,8.344c-13.104,-0.247 -26.295,-3.252 -38.694,-8.143c-0.21,-0.083 1.039,0.465 1.039,0.465Z" style="fill:#332a32;"/></g><ellipse cx="303.49" cy="236.381" rx="59.411" ry="57.169" style="fill:none;stroke:#332a32;stroke-width:3.6px;stroke-linecap:round;stroke-miterlimit:1.5;"/><ellipse cx="319.324" cy="230.282" rx="7.346" ry="7.346" style="fill:#fcfbdb;stroke:#332a32;stroke-width:3.6px;stroke-linecap:round;stroke-miterlimit:1.5;"/><ellipse cx="313.954" cy="254.91" rx="4.898" ry="4.285" style="fill:#fcfbdb;stroke:#332a32;stroke-width:3.6px;stroke-linecap:round;stroke-miterlimit:1.5;"/></g><g><ellipse cx="408.637" cy="239.754" rx="59.411" ry="57.169" style="fill:#fcfbdb;"/><clipPath id="_clip2"><ellipse cx="408.637" cy="239.754" rx="59.411" ry="57.169"/></clipPath><g clip-path="url(#_clip2)"><path d="M396.805,295.612c0.598,-10.638 7.947,-93.013 17.49,-106.201c3.201,-4.424 7.962,-10.264 12.795,-12.095c15.168,-5.749 32.863,11.152 42.448,22.652c5.79,6.946 11.431,15.807 13.706,25.222c6.085,25.181 -3.448,57.156 -23.447,69.755c-7.949,5.008 -16.217,8.517 -25.337,8.345c-13.104,-0.247 -26.295,-3.252 -38.694,-8.143c-0.21,-0.083 1.039,0.465 1.039,0.465Z" style="fill:#332a32;"/></g><ellipse cx="408.637" cy="239.754" rx="59.411" ry="57.169" style="fill:none;stroke:#332a32;stroke-width:3.6px;stroke-linecap:round;stroke-miterlimit:1.5;"/><path d="M420.167,229.218c3.929,-1.004 7.933,1.37 8.937,5.298c1.003,3.929 -1.371,7.933 -5.299,8.937c-3.929,1.004 -7.933,-1.371 -8.937,-5.299c-1.003,-3.928 1.371,-7.933 5.299,-8.936Z" style="fill:#fcfbdb;stroke:#332a32;stroke-width:3.6px;stroke-linecap:round;stroke-miterlimit:1.5;"/><path d="M419.57,253.752c2.619,-0.67 5.22,0.648 5.806,2.939c0.586,2.292 -1.065,4.695 -3.684,5.364c-2.619,0.67 -5.221,-0.647 -5.806,-2.939c-0.586,-2.291 1.065,-4.695 3.684,-5.364Z" style="fill:#fcfbdb;stroke:#332a32;stroke-width:3.6px;stroke-linecap:round;stroke-miterlimit:1.5;"/></g><g><path d="M359.504,346.013c21.363,0 40.03,-4.994 40.03,3.029c0,8.022 -18.005,24.832 -39.368,24.832c-21.363,-0 -40.03,-16.81 -40.03,-24.832c0,-8.023 18.006,-3.029 39.368,-3.029Z" style="fill:#fcfbdb;stroke:#332a32;stroke-width:3.6px;stroke-linecap:round;stroke-miterlimit:1.5;"/><path d="M336.493,344.436l-1.654,20.455" style="fill:none;stroke:#332a32;stroke-width:3.6px;stroke-linecap:round;stroke-miterlimit:1.5;"/><path d="M379.218,346.855l1.556,20.461" style="fill:none;stroke:#332a32;stroke-width:3.6px;stroke-linecap:round;stroke-miterlimit:1.5;"/><path d="M359.775,346.228l-0.717,25.346" style="fill:none;stroke:#332a32;stroke-width:3.6px;stroke-linecap:round;stroke-miterlimit:1.5;"/></g><g><path d="M770.92,208.555c-25.403,7.343 -52.889,-5.333 -63.423,-30.292c-11.361,-26.919 1.27,-57.997 28.188,-69.359c26.919,-11.361 57.998,1.27 69.359,28.189c10.133,24.009 3.249,49.857 -17.904,63.543c0.653,0.437 1.191,1.063 1.519,1.841l32.52,72.905c0.894,2.118 -0.1,4.563 -2.218,5.457l-9.743,4.709c-2.118,0.894 -4.563,-0.1 -5.457,-2.218l-32.52,-72.905c-0.258,-0.611 -0.359,-1.249 -0.321,-1.87Z" style="fill:#1bcdf5;stroke:#332a32;stroke-width:1.48px;stroke-linecap:round;stroke-miterlimit:1.5;"/><path d="M740.206,120.997c20.633,-8.708 44.455,0.973 53.163,21.606c8.709,20.634 -0.973,44.455 -21.606,53.164c-20.633,8.708 -44.455,-0.973 -53.163,-21.606c-8.709,-20.634 0.973,-44.455 21.606,-53.164Z" style="fill:#fcfbdb;stroke:#332a32;stroke-width:1.13px;stroke-linecap:round;stroke-miterlimit:1.5;"/></g><g><g><path d="M657.626,319.187c12.179,-6.206 48.443,-2.678 62.038,-4.794c6.939,-1.081 14.509,-3.895 19.53,-7.906c5.021,-4.01 4.962,-13.034 10.595,-16.158c5.825,-3.23 21.016,-7.432 24.357,-3.224c3.341,4.208 0.384,20.102 -4.313,28.474c-5.252,9.357 -15.33,22.526 -27.195,27.67c-17.394,7.541 -61.164,16.181 -77.171,17.577c-6.973,0.608 -17.58,-2.32 -18.875,-9.198c-1.307,-6.94 0.857,-27.255 11.034,-32.441Z" style="fill:#f5e11b;stroke:#332a32;stroke-width:2.69px;stroke-linecap:round;stroke-miterlimit:1.5;"/></g><g><g><path d="M775.703,316.959c9.756,5.328 21.181,8.294 32.217,5.961c11.41,-2.412 22.491,-10.357 31.827,-16.964c7.087,-5.014 17.52,-10.356 19.203,-19.772c2.093,-11.712 -7.164,-16.918 -17.278,-17.327c-0.284,-0.011 0.249,-4.731 0.286,-5.052c0.389,-3.392 0.788,-6.732 -0.447,-10.004c-1.341,-3.552 -4.146,-6.138 -7.732,-7.419c-0.569,-0.203 -5.011,-0.566 -5.059,-0.643c-0.573,-0.925 1.081,-4.634 1.235,-5.796c0.682,-5.158 -1.373,-9.065 -6.088,-11.4c-14.146,-7.007 -23.518,9.278 -33.089,16.008c-1.129,0.794 -7.26,-1.861 -8.603,-2.195c-5.871,-1.462 -11.575,-1.701 -16.818,1.717c-11.174,7.285 -8.584,24.239 -9.626,35.685c-0.074,0.823 -14.676,-3.376 -13.225,6.928c4.069,28.893 29.644,48.311 33.197,30.273Z" style="fill:#fcfbdb;stroke:#332a32;stroke-width:3.31px;stroke-linecap:round;stroke-miterlimit:1.5;"/><path d="M850.788,298.109c-4.074,2.437 -8.267,4.516 -12.593,6.46c-6.542,2.94 -13.979,5.768 -21.144,3c-2.012,-0.778 -4.311,-2.306 -5.41,-4.223c-1.788,-3.118 -1.13,-8.279 0.214,-11.462c1.971,-4.671 5.915,-8.065 9.833,-11.105c3.237,-2.513 6.515,-4.989 10.083,-7.026" style="fill:none;stroke:#332a32;stroke-width:3.31px;stroke-linecap:round;stroke-miterlimit:1.5;"/><path d="M816.961,284.127c-6.051,1.427 -13.932,0.56 -16.01,-6.46c-0.381,-1.287 -0.577,-2.581 -0.568,-3.924c0.01,-1.578 0.281,-3.196 0.941,-4.637c2.138,-4.668 5.923,-7.871 9.936,-10.86c3.596,-2.677 7.267,-5.044 11.145,-7.285" style="fill:none;stroke:#332a32;stroke-width:3.31px;stroke-linecap:round;stroke-miterlimit:1.5;"/><path d="M802.801,264.833c-2.324,0.602 -5.074,1.052 -7.428,0.4c-5.309,-1.471 -9.532,-7.852 -8.755,-13.33c0.795,-5.599 3.595,-6.448 7.565,-10.062" style="fill:none;stroke:#332a32;stroke-width:3.31px;stroke-linecap:round;stroke-miterlimit:1.5;"/><path d="M796.533,265.958c1.754,2.656 4.031,3.723 3.701,6.9c-0.22,2.118 0.408,6.492 3.251,9.082c1.137,1.036 0.86,2.237 0.4,3.799c-0.953,3.244 -6.166,3.422 -8.776,2.946c-0.695,-0.127 -1.395,-0.246 -2.081,-0.411c-0.869,-0.209 -1.745,-0.446 -2.575,-0.782c-2.478,-1.004 -4.524,-2.605 -6.693,-4.132c-1.805,-1.272 -3.696,-2.438 -5.303,-3.966c-3.822,-3.636 -6.576,-8.92 -6.669,-14.277" style="fill:none;stroke:#332a32;stroke-width:3.31px;stroke-linecap:round;stroke-miterlimit:1.5;"/><path d="M777.386,317.455c-3.044,-3.494 -5.054,-7.041 -6.73,-11.353" style="fill:none;stroke:#332a32;stroke-width:3.31px;stroke-linecap:round;stroke-miterlimit:1.5;"/><path d="M762.881,292.028c-1.697,-3.866 -3.964,-10.269 -7.957,-12.299" style="fill:none;stroke:#332a32;stroke-width:3.31px;stroke-linecap:round;stroke-miterlimit:1.5;"/></g></g></g><g><g><path d="M182.067,351.977c-3.075,-11.783 6.259,-27.526 6.259,-27.526l-39.486,-6.517l-38.998,-8.98c-0,0 2.65,18.11 -4.674,27.84c-7.323,9.73 -26.224,10.468 -26.744,41.659c-0.52,31.191 0.393,87.625 0.393,87.625c0,-0 9.341,5.353 27.214,10.904l21.955,4.335c18.641,1.658 29.316,0.257 29.316,0.257c0,0 22.294,-51.851 33.668,-80.899c11.375,-29.048 -5.828,-36.915 -8.903,-48.698Z" style="fill:#1bcdf5;fill-rule:nonzero;"/><path d="M182.067,351.977c-3.075,-11.783 6.259,-27.526 6.259,-27.526l-39.486,-6.517l-38.999,-8.98c-0,-0 2.65,18.11 -4.673,27.84c-7.323,9.73 -26.224,10.469 -26.744,41.66c-0.519,31.191 0.393,87.625 0.393,87.625c-0,-0 9.341,5.352 27.214,10.904l21.955,4.335c18.641,1.658 29.316,0.257 29.316,0.257c-0,0 22.293,-51.852 33.668,-80.899c11.375,-29.049 -5.828,-36.916 -8.903,-48.699Zm-21.473,10.601c-2.066,1.327 -4.348,2.325 -6.615,3.252c-4.757,1.95 -9.675,3.443 -14.493,5.227c-2.193,0.813 -4.16,1.968 -6.089,3.298c-3.313,2.285 -6.276,5.045 -8.907,8.086c-5.325,6.157 -9.304,13.403 -12.379,20.912c-3.734,9.115 -6.715,18.488 -9.431,27.949c-0.956,3.332 -1.918,6.658 -2.907,9.98c-0.833,2.794 -1.729,5.642 -3.193,8.18c-1.166,2.02 -2.781,3.896 -5.223,4.18c-1.126,0.13 -2.209,-0.227 -3.104,-0.904c-1.05,-0.794 -1.808,-1.945 -2.406,-3.1c-0.81,-1.563 -1.389,-3.238 -1.865,-4.928c-1.27,-4.503 -1.899,-9.19 -2.368,-13.835c-0.542,-5.37 -0.812,-10.767 -0.952,-16.161c-0.133,-5.089 -0.141,-10.181 -0.058,-15.271c0.058,-3.584 0.158,-7.167 0.328,-10.747c0.22,-4.639 0.537,-9.287 1.204,-13.885c0.875,-6.029 2.354,-12.233 5.641,-17.442c0.664,-1.052 1.409,-2.052 2.227,-2.987c0.255,-0.315 0.516,-0.626 0.787,-0.929c3.731,-4.164 8.815,-6.671 14.243,-7.781c5.755,-1.178 11.738,-0.93 17.524,-0.119c5.836,0.818 11.572,2.249 17.216,3.921c1.968,0.583 3.904,1.117 5.909,1.557c2.63,0.576 5.26,1.166 7.856,1.886c2.502,0.693 5.075,1.454 7.36,2.711c1.273,0.701 2.976,1.842 2.743,3.526c-0.214,1.538 -1.854,2.658 -3.048,3.424Z" style="fill:#8c959d;fill-opacity:0.18;fill-rule:nonzero;"/><path d="M120.284,321.901c8.276,2.171 16.666,3.871 25.055,5.531c7.903,1.563 15.81,3.116 23.767,4.374c4.964,0.785 9.95,1.458 14.954,1.944c1.945,-5.385 4.266,-9.299 4.266,-9.299l-39.486,-6.517l-38.999,-8.98c-0,-0 0.642,4.401 0.419,10.027c3.312,1.069 6.659,2.037 10.024,2.92Z" style="fill:#76818a;fill-opacity:0.49;fill-rule:nonzero;"/></g><g><path d="M263.966,261.189c-0.138,-2.514 -4.033,-4.225 -5.832,-5.297c-3.248,-1.935 -6.647,-3.612 -10.141,-5.055c-7.058,-2.914 -14.497,-4.951 -22.067,-5.974c-14.073,-1.902 -29.447,-0.326 -42.214,6.248c-6.478,3.335 -11.686,8.178 -16.455,13.616c-0.526,0.6 -1.044,1.211 -1.553,1.826c0.052,-4.183 -0.573,-8.341 -2.27,-12.295c-2.876,-6.702 -8.794,-10.874 -15.857,-12.246c-14.941,-2.902 -30.669,3.875 -42.195,12.983c-11.82,9.341 -20.671,21.626 -28.004,34.662c-1.618,2.877 -7.526,12.644 -2.052,14.761c2.314,0.895 5.018,-0.66 6.927,-1.837c2.229,-1.376 4.212,-3.097 6.454,-4.454c9.061,-5.481 19.194,-9.714 29.719,-11.242c2.293,-0.333 4.604,-0.599 6.919,-0.768c-7.517,2.876 -14.675,6.691 -20.987,11.501c-12.06,9.19 -21.961,21.028 -27.957,34.997c-2.994,6.976 -6.558,14.871 -5.275,22.648c0.109,0.661 0.709,1.103 1.388,1.044c3.632,-0.315 6.287,-3.538 8.693,-5.957c3.719,-3.739 7.911,-7.122 12.048,-10.385c2.529,-1.995 5.177,-3.663 7.903,-5.259c-1.739,2.658 -3.297,5.412 -4.787,7.959c-1.776,3.034 -3.798,5.88 -5.628,8.874c-1.446,2.364 -3.883,6.336 -2.144,9.11c1.95,3.11 7.414,1.879 10.309,1.293c5.153,-1.044 10.228,-2.401 15.153,-4.254c11.168,-4.201 21.725,-10.754 31.386,-17.692c4.929,-3.541 9.659,-7.381 14.375,-11.203c-0.768,1.639 -1.548,3.271 -2.343,4.896c-2.744,5.603 -6.416,10.95 -7.881,17.087c-0.355,1.485 1.592,1.284 2.369,0.843c5.074,-2.881 8.644,-7.693 12.315,-12.09c3.124,-3.745 6.769,-7.067 9.804,-10.877c1.052,7.824 2.112,15.611 3.889,23.33c0.787,3.423 1.702,7.039 3.806,9.921c0.937,1.282 2.175,2.261 3.843,2.151c3.827,-0.253 5.652,-4.925 6.818,-7.938c1.853,-4.792 3.014,-9.86 4.127,-14.864c0.392,-1.766 0.718,-3.576 1.064,-5.383c0.076,0.654 0.139,1.299 0.206,1.91c0.332,3.025 0.786,5.984 1.339,8.979c1.374,7.448 3.027,14.969 3.435,22.548c0.2,3.742 0.095,7.496 -0.171,11.233c-0.169,2.359 -1.175,5.887 -0.134,8.167c0.932,2.037 3.454,1.115 4.747,0.027c2.508,-2.113 4.433,-5.286 6.243,-7.993c7.769,-11.624 12.619,-25.393 12.319,-39.476c-0.217,-10.231 -2.749,-20.914 -7.416,-30.032c-2.15,-4.199 -4.898,-8.036 -8.216,-11.125c6.077,-2.665 11.97,-5.701 17.617,-9.217c7.307,-4.547 14.05,-9.925 20.744,-15.316c3.477,-2.801 6.935,-5.628 10.424,-8.413c1.69,-1.349 5.338,-3.381 5.196,-5.972Z" style="fill:#2e4a17;fill-rule:nonzero;"/><path d="M247.646,262.732c-3.608,-0.464 -7.234,-0.92 -10.86,-1.237c-4.436,-0.389 -8.977,-0.311 -13.419,-0.062c-4.448,0.249 -8.883,0.78 -13.253,1.651c-8.835,1.759 -17.4,4.992 -24.913,9.999c-0.506,0.336 -1.386,-0.126 -1.173,-0.781c1.714,-5.296 5.727,-9.341 10.192,-12.481c4.353,-3.062 9.212,-5.385 14.131,-7.385c4.987,-2.027 10.086,-3.759 15.311,-5.059c2.506,-0.622 5.061,-1.165 7.644,-1.608c-1.784,-0.357 -3.578,-0.662 -5.38,-0.905c-14.073,-1.902 -29.448,-0.326 -42.215,6.248c-6.477,3.335 -11.685,8.178 -16.454,13.616c-0.526,0.6 -1.044,1.21 -1.553,1.826c0.052,-4.183 -0.574,-8.341 -2.27,-12.295c-2.876,-6.702 -8.794,-10.874 -15.857,-12.246c-8.455,-1.643 -17.16,-0.182 -25.216,3.044c0.309,0.027 0.619,0.03 0.926,0.062c2.174,0.229 4.39,0.583 6.476,1.253c1.655,0.533 3.263,1.283 4.826,2.038c4.013,1.936 7.942,4.281 11.275,7.258c2.838,2.535 5.687,5.97 5.592,9.997c-0.011,0.447 -0.391,0.957 -0.909,0.804c-8.258,-2.441 -17.048,-1.774 -25.347,0.123c-13.042,2.982 -25.807,8.217 -35.753,17.369c-6.216,5.72 -11.015,12.672 -14.407,20.304c0.101,0.049 0.178,0.113 0.288,0.156c2.313,0.894 5.017,-0.661 6.926,-1.838c2.23,-1.375 4.213,-3.097 6.455,-4.453c9.061,-5.482 19.193,-9.715 29.718,-11.243c2.293,-0.333 4.604,-0.599 6.92,-0.768c-2.075,0.794 -4.118,1.667 -6.128,2.605c2.97,-0.727 5.99,-1.272 9.038,-1.389c4.138,-0.159 8.422,0.498 11.761,3.111c0.457,0.358 0.263,1.114 -0.255,1.292c-7.557,2.598 -14.917,5.788 -21.969,9.546c-13.085,6.972 -25.481,15.923 -34.888,27.485c-4.572,5.621 -8.378,11.894 -10.899,18.702c-0.42,1.135 -0.785,2.285 -1.126,3.443c-0.062,1.45 0.008,2.902 0.246,4.35c0.11,0.661 0.709,1.104 1.389,1.044c3.631,-0.315 6.286,-3.538 8.692,-5.957c3.596,-3.613 7.633,-6.893 11.635,-10.055c4.34,-4.202 9.188,-7.903 14.136,-11.33c4.709,-3.26 9.795,-6.029 15.091,-8.21c5.145,-2.118 10.663,-3.767 16.262,-3.909c0.516,-0.013 1.082,0.583 0.738,1.102c-3.617,5.464 -8.425,10.002 -13.364,14.257c-4.486,3.864 -9.184,7.474 -13.68,11.325c-4.284,3.669 -8.4,7.531 -12.614,11.278c-2.836,2.522 -5.735,5.045 -8.726,7.456c2.493,0.905 6.069,0.114 8.223,-0.322c5.154,-1.043 10.229,-2.401 15.154,-4.254c11.168,-4.201 21.724,-10.754 31.386,-17.692c4.238,-3.044 8.326,-6.311 12.388,-9.595c0.828,-0.814 1.673,-1.607 2.538,-2.369c3.667,-3.231 7.723,-6.181 12.232,-8.121c0.613,-0.264 1.238,0.501 0.931,1.062c-1.755,3.212 -3.762,6.276 -5.919,9.232c-5.469,7.491 -11.881,14.281 -17.522,21.638c0.56,0.201 1.415,0.036 1.872,-0.225c5.073,-2.881 8.644,-7.692 12.314,-12.09c3.125,-3.744 6.77,-7.066 9.805,-10.877c1.052,7.825 2.112,15.612 3.889,23.331c0.787,3.423 1.702,7.039 3.806,9.92c0.937,1.282 2.175,2.261 3.843,2.151c3.827,-0.253 5.652,-4.925 6.818,-7.937c1.853,-4.793 3.014,-9.86 4.127,-14.865c0.392,-1.766 0.718,-3.576 1.064,-5.383c0.076,0.655 0.139,1.299 0.206,1.91c0.332,3.025 0.785,5.985 1.339,8.98c0.742,4.024 1.561,8.07 2.225,12.135c0.245,-4.704 0.38,-9.412 0.154,-14.123c-0.388,-8.077 -2.408,-15.96 -3.006,-24.015c-0.055,-0.752 0.978,-1.124 1.394,-0.481c3.764,5.821 6.826,12.102 8.9,18.722c3.444,10.995 4.061,22.676 2.229,34.028c-0.867,5.368 -2.275,10.623 -4.071,15.747c0.015,-0.013 0.036,-0.025 0.051,-0.039c2.507,-2.112 4.433,-5.286 6.242,-7.993c7.77,-11.624 12.619,-25.393 12.32,-39.476c-0.217,-10.231 -2.749,-20.914 -7.416,-30.032c-2.15,-4.199 -4.898,-8.036 -8.216,-11.125c6.077,-2.665 11.97,-5.701 17.617,-9.217c7.307,-4.547 14.05,-9.924 20.744,-15.316c3.477,-2.801 6.934,-5.628 10.424,-8.413c0.735,-0.586 1.84,-1.303 2.844,-2.137c-4.613,-0.991 -9.295,-1.691 -13.969,-2.292Z" style="fill:#2e4a17;fill-rule:nonzero;"/><path d="M225.243,321.472c-1.171,-2.975 -2.429,-5.962 -3.805,-8.847c-2.901,-6.075 -6.784,-11.716 -11.643,-16.393c-3.752,-3.61 -8.325,-6.713 -13.252,-9.065c2.252,-0.618 4.495,-1.265 6.714,-1.991c5.863,-1.919 11.647,-4.207 17.31,-6.644c2.15,-0.925 15.406,-5.769 11.973,-9.841c-1.377,-1.635 -4.019,-1.665 -5.973,-1.674c-3.008,-0.012 -6.009,-0.086 -9.016,0.035c-6.827,0.275 -13.604,1.217 -20.24,2.845c-5.106,1.253 -9.989,2.975 -14.714,5.143c5.062,-4.66 9.871,-9.609 14.544,-14.637c9.752,-10.49 19.38,-21.081 27.418,-32.973c2.375,-3.511 4.475,-7.201 6.87,-10.695c2.423,-3.536 5.102,-6.898 7.224,-10.633c0.665,-1.169 -0.248,-2.047 -1.406,-2.094c-7.061,-0.288 -14.284,4.074 -20.303,7.31c-7.17,3.856 -13.727,8.706 -19.783,14.127c-6.068,5.431 -11.593,11.477 -16.492,17.979c-2.91,3.86 -5.376,7.96 -7.549,12.219c0.015,-0.109 0.039,-0.215 0.053,-0.324c1.429,-10.918 0.705,-21.907 -0.737,-32.782c-2.339,-17.633 -10.51,-35.833 -26.796,-44.585c-4.631,-2.488 -9.704,-4.29 -14.899,-5.124c-5.393,-0.866 -10.959,-0.507 -16.355,0.109c-3.591,0.411 -7.213,0.885 -10.767,1.556c-1.681,0.317 -6.231,1.063 -5.808,3.681c0.374,2.32 4.333,3.101 6.171,3.616c3.886,1.089 7.511,2.891 10.753,5.312c7.629,5.696 13.308,13.403 17.796,21.727c9.273,17.198 11.735,37.198 10.473,56.565c-3.76,-5.561 -10.295,-9.067 -16.733,-11.289c-10.658,-3.677 -22.459,-5.034 -33.642,-3.654c-7.396,0.913 -14.552,3.262 -21.051,6.908c-0.639,0.358 -1.899,1.788 -0.585,2.282c2.805,1.055 6.135,0.356 9.088,0.422c3.489,0.076 6.984,0.329 10.417,0.978c6.316,1.192 12.353,3.605 17.978,6.683c9.513,5.205 18.517,12.615 25.348,21.056c2.856,3.53 5.384,7.486 6.847,11.807c-5.528,-1.979 -13.055,0.367 -18.002,2.032c-9.278,3.123 -17.712,7.665 -24.834,14.468c-4.122,3.938 -8.892,8.23 -10.416,13.932c-0.296,1.109 0.913,1.455 1.746,1.314c3.753,-0.636 6.987,-2.832 10.213,-4.714c3.866,-2.256 8.169,-3.883 12.432,-5.216c7.037,-2.201 14.359,-3.544 21.726,-3.969c-7.045,4.237 -12.382,11.092 -16.514,18.156c-2.793,4.772 -5.112,9.817 -7.119,14.967c-0.962,2.47 -1.845,4.972 -2.648,7.499c-0.726,2.287 -1.676,4.734 -1.774,7.15c-0.208,5.146 5.541,2.303 7.714,0.587c4.8,-3.791 8.812,-8.655 12.824,-13.231c5.307,-6.053 10.438,-12.258 15.712,-18.339c4.96,-5.718 10.095,-11.282 14.711,-17.288c1.524,-1.983 3.011,-4.026 4.412,-6.129c0.74,2.611 1.247,5.279 1.673,7.962c1.023,6.455 1.502,12.98 1.932,19.497c0.45,6.846 0.891,13.693 1.344,20.54c0.366,5.536 1.048,11.1 0.917,16.65c-0.084,3.586 -0.707,9.193 2.668,11.55c0.677,0.472 1.972,0.137 2.562,-0.331c5.756,-4.56 8.378,-11.943 11.171,-18.487c3.284,-7.693 5.6,-15.86 6.404,-24.2c0.742,-7.694 -0.162,-15.544 -2.843,-22.813c-2.498,-6.77 -6.792,-12.417 -12.011,-17.316c-0.502,-0.472 -1.096,-1.027 -1.744,-1.611c6.444,1.354 12.753,3.527 18.753,5.972c5.905,2.407 11.837,4.874 17.267,8.249c5.901,3.668 10.061,8.499 14.327,13.884c0.874,1.103 3.449,0.106 3.61,-1.202c0.367,-3.007 -0.547,-5.9 -1.641,-8.678Z" style="fill:#648833;fill-rule:nonzero;"/><path d="M225.243,321.472c-0.109,-0.274 -0.227,-0.547 -0.336,-0.82c-4.514,-6.492 -10.502,-12.028 -17.151,-16.148c-9.175,-5.685 -20.318,-9.177 -31.133,-7.132c-0.806,0.153 -1.032,-0.983 -0.481,-1.393c2.396,-1.785 5.018,-3.248 7.778,-4.388c4.759,-1.964 9.919,-3.003 15.101,-3.125c-0.82,-0.445 -1.634,-0.898 -2.477,-1.3c2.252,-0.618 4.495,-1.265 6.714,-1.991c5.863,-1.919 11.647,-4.206 17.31,-6.644c1.762,-0.758 10.973,-4.147 12.358,-7.587c-7.33,0.771 -14.589,2.272 -21.854,3.451c-12.229,1.983 -26.218,4.854 -34.745,14.654c-0.568,0.652 -1.658,-0.08 -1.254,-0.846c1.355,-2.569 3.049,-4.951 4.917,-7.169c2.659,-3.16 5.695,-6.024 8.957,-8.582c-2.149,0.78 -4.266,1.632 -6.349,2.588c5.063,-4.66 9.871,-9.608 14.545,-14.637c9.752,-10.49 19.379,-21.081 27.418,-32.972c2.375,-3.512 4.475,-7.201 6.869,-10.696c2.424,-3.535 5.103,-6.898 7.225,-10.632c0.558,-0.983 -0,-1.752 -0.879,-2.003c-0.386,0.185 -0.779,0.363 -1.159,0.553c-6.524,3.266 -12.589,7.417 -18.374,11.843c-5.96,4.561 -11.636,9.442 -16.966,14.729c-6.336,6.285 -12.225,13.059 -17.292,20.414c-2.518,3.655 -4.577,7.456 -6.46,11.474c-1.754,3.743 -3.476,7.501 -5.8,10.933c-0.385,0.569 -1.287,0.144 -1.331,-0.448c-0.326,-4.298 0.767,-8.642 1.996,-12.724c1.06,-3.519 2.347,-6.961 3.601,-10.413c-1.008,1.7 -1.971,3.424 -2.87,5.184c0.015,-0.109 0.039,-0.215 0.053,-0.324c1.43,-10.918 0.705,-21.907 -0.736,-32.782c-2.341,-17.635 -10.512,-35.835 -26.798,-44.587c-4.631,-2.488 -9.704,-4.29 -14.899,-5.124c-5.393,-0.866 -10.959,-0.507 -16.355,0.109c-0.741,0.084 -1.484,0.19 -2.227,0.281c3.316,0.223 6.607,0.775 9.816,1.731c7.437,2.217 14.102,6.462 19.189,12.33c5.589,6.447 8.969,14.54 11.086,22.733c4.449,17.219 3.672,36.26 -2.335,53.01c-0.289,0.805 -1.313,0.342 -1.442,-0.285c-0.625,-3.024 -0.716,-6.12 -1.048,-9.182c-0.557,-5.126 -2.311,-9.875 -5.227,-14.083c1.185,8.565 1.367,17.306 0.805,25.923c-3.752,-5.551 -10.268,-9.052 -16.692,-11.274c1.967,1.427 3.851,2.965 5.618,4.618c7.057,6.599 12.492,15.245 13.552,24.996c0.068,0.627 -0.808,1.12 -1.265,0.627c-4.321,-4.646 -8.785,-9.205 -13.807,-13.104c-4.275,-3.32 -8.961,-6.07 -13.992,-8.081c-5.701,-2.279 -11.76,-3.526 -17.799,-4.531c-8.87,-1.476 -18.043,-2.151 -27.041,-1.286c-0.639,0.358 -1.899,1.788 -0.586,2.282c2.806,1.055 6.136,0.356 9.089,0.421c3.489,0.077 6.984,0.33 10.417,0.979c6.316,1.192 12.353,3.604 17.978,6.682c9.513,5.206 18.517,12.616 25.348,21.057c2.856,3.529 5.384,7.486 6.847,11.807c-3.493,-1.251 -7.783,-0.773 -11.717,0.168c4.944,0.063 9.781,1.635 12.425,6.234c0.275,0.477 0.031,1.157 -0.577,1.185c-4.697,0.223 -9.377,0.88 -13.97,1.886c-8.973,1.964 -17.835,5.163 -25.651,10.042c-5.09,3.177 -9.784,7.18 -13.19,12.095c0.356,0.159 0.8,0.2 1.175,0.137c3.752,-0.636 6.986,-2.832 10.212,-4.714c3.867,-2.256 8.169,-3.883 12.433,-5.216c7.037,-2.201 14.358,-3.544 21.725,-3.969c-7.044,4.237 -12.381,11.092 -16.514,18.155c-2.792,4.773 -5.112,9.817 -7.118,14.968c-0.963,2.47 -1.845,4.972 -2.648,7.498c-0.727,2.288 -1.676,4.735 -1.774,7.151c-0.102,2.515 1.221,3.116 2.853,2.878c2.964,-6.399 6.859,-12.438 10.666,-18.236c3.216,-4.897 6.385,-9.83 9.805,-14.587c3.663,-5.096 7.563,-10.02 11.708,-14.733c3.877,-4.407 7.916,-8.859 12.36,-12.705c1.297,-1.122 3.587,-3.079 5.441,-2.039c1.582,0.887 1.484,3.326 1.388,4.86c-0.045,0.717 -0.125,1.432 -0.226,2.144c0.463,-0.658 0.931,-1.312 1.378,-1.983c0.74,2.611 1.247,5.279 1.672,7.962c1.024,6.455 1.503,12.98 1.932,19.497c0.451,6.846 0.891,13.693 1.345,20.539c0.366,5.537 1.047,11.101 0.917,16.651c-0.084,3.586 -0.707,9.193 2.668,11.55c0.677,0.472 1.972,0.137 2.562,-0.331c1.711,-1.355 3.122,-2.979 4.365,-4.737c1.769,-6.393 3.343,-12.81 4.241,-19.408c1.031,-7.587 1.294,-15.441 0.468,-23.066c-1.434,-13.251 -7.042,-25.37 -15.588,-35.532c-0.389,-0.461 0.058,-1.131 0.577,-1.184c3.257,-0.334 6.36,0.358 9.23,1.674c-0.193,-0.186 -0.377,-0.377 -0.573,-0.561c-0.503,-0.473 -1.096,-1.028 -1.744,-1.612c6.443,1.354 12.752,3.528 18.753,5.973c5.904,2.406 11.837,4.874 17.267,8.249c5.901,3.668 10.061,8.499 14.326,13.884c0.874,1.103 3.45,0.105 3.61,-1.203c0.369,-3.009 -0.545,-5.902 -1.639,-8.68Z" style="fill:#648833;fill-rule:nonzero;"/><g><path d="M200.278,291.419c-0.371,-0.302 -0.759,-0.57 -1.156,-0.82c-10.642,-7.548 -26.697,-9.566 -37.69,-2.025c0.506,-1.496 1.295,-2.946 1.958,-4.252c1.142,-2.255 2.401,-4.471 3.204,-6.877c1.713,-5.135 3.317,-11.402 1.004,-16.585c-0.559,-1.251 -2.323,-0.847 -3.195,-0.288c-2.433,1.56 -3.05,4.451 -3.662,7.079c-0.895,3.837 -2.222,7.561 -3.19,11.38c-0.429,1.69 -0.853,3.467 -1.215,5.285c-3.904,-4.468 -9.867,-7.684 -14.895,-9.499c-8.05,-2.905 -16.709,-1.884 -24.639,1.005c-4.238,1.544 -8.652,3.878 -11.456,7.516c-0.287,0.372 -0.522,1.078 0.094,1.321c4.032,1.589 8.553,-0.383 12.754,-0.235c5.448,0.194 10.882,1.059 16.081,2.713c4.841,1.541 9.633,3.414 13.963,6.103c1.932,1.201 3.907,2.555 5.256,4.423c1.227,1.701 1.949,3.751 2.882,5.616c0.026,0.05 0.068,0.075 0.097,0.121c-0.735,3.297 -1.781,6.552 -2.68,9.771c-1.218,4.354 -2.178,8.692 -2.684,13.187c-0.76,6.75 -2.142,14.34 0.751,20.781c0.649,1.446 3.205,0.733 3.751,-0.465c0.878,-1.935 1.263,-3.921 1.613,-6.005c0.391,-2.331 0.98,-4.614 1.573,-6.901c1.164,-4.475 2.435,-8.923 3.544,-13.412c1.421,-5.753 2.973,-12.426 1.696,-18.419c4.481,1.633 8.051,5.228 10.909,9.128c3.779,5.158 6.198,11.093 8.625,16.957c0.811,1.959 4.196,0.357 4.195,-1.382c-0.006,-7.605 -1.702,-15.359 -6.116,-21.66c-2.272,-3.243 -5.392,-6.193 -9.094,-7.714c-2.714,-1.115 -5.567,-1.467 -8.442,-1.723c5.117,-1.644 10.318,-3.072 15.666,-3.598c2.853,-0.282 5.741,-0.506 8.609,-0.458c2.526,0.043 5.364,0.278 7.591,1.606c0.323,0.226 0.657,0.443 0.966,0.678c1.487,1.13 4.998,-0.995 3.332,-2.352Z" style="fill:#69ac45;fill-rule:nonzero;"/><path d="M191.465,288.54c-2.646,-0.936 -5.278,-1.687 -8.078,-2.005c-3.906,-0.445 -7.988,-0.321 -11.82,0.6c-3.516,0.845 -7.023,2.411 -9.173,5.438c-0.528,0.743 -1.575,-0.1 -1.254,-0.846c0.64,-1.484 1.427,-2.981 2.335,-4.411c-0.697,0.386 -1.381,0.803 -2.044,1.258c0.506,-1.496 1.295,-2.946 1.958,-4.253c1.142,-2.254 2.401,-4.471 3.204,-6.877c1.713,-5.134 3.317,-11.401 1.004,-16.584c-0.036,-0.081 -0.09,-0.136 -0.135,-0.204c-0.119,0.218 -0.247,0.432 -0.362,0.651c-2.107,4.044 -3.797,8.551 -4.718,13.022c-1.064,5.163 -1.146,10.798 -3.754,15.511c-0.249,0.448 -1.039,0.628 -1.315,0.083c-0.975,-1.929 -1.423,-4.097 -1.617,-6.272c-1.849,-1.953 -4.062,-3.664 -6.41,-5.094c2.976,2.198 5.422,5.117 5.943,8.91c0.099,0.716 -0.777,0.987 -1.266,0.627c-3.051,-2.247 -6.459,-3.995 -9.983,-5.372c-6.873,-2.685 -14.409,-4.026 -21.788,-3.647c-5.998,0.307 -12.118,1.854 -17.069,5.314c0.06,0.111 0.158,0.207 0.318,0.269c4.032,1.589 8.553,-0.382 12.754,-0.234c5.448,0.193 10.882,1.058 16.081,2.712c4.841,1.541 9.633,3.414 13.963,6.104c1.932,1.2 3.907,2.555 5.256,4.422c0.605,0.84 1.087,1.766 1.533,2.711c1.365,-0.929 2.89,-1.627 4.524,-1.769c0.369,-0.031 0.838,0.296 0.817,0.705c-0.246,4.518 -0.697,9.021 -1.326,13.501c-0.57,4.072 -1.278,8.124 -2.078,12.156c-0.776,3.907 -1.704,7.782 -2.411,11.702c-0.668,3.711 -1.24,7.448 -1.951,11.152c1.018,0.388 2.592,-0.236 3.007,-1.148c0.879,-1.935 1.263,-3.921 1.613,-6.005c0.391,-2.331 0.98,-4.614 1.574,-6.901c1.163,-4.475 2.435,-8.923 3.544,-13.412c1.421,-5.753 2.972,-12.426 1.696,-18.419c4.481,1.633 8.05,5.228 10.909,9.128c3.778,5.158 6.197,11.093 8.625,16.957c0.603,1.457 2.629,0.943 3.627,-0.132c0.016,-0.527 0.055,-1.052 0.04,-1.579c-0.372,-13.725 -10.514,-27.244 -24.807,-28.189c-0.642,-0.042 -0.84,-1.096 -0.277,-1.381c0.904,-0.459 1.855,-0.813 2.825,-1.11c-0.289,-0.028 -0.577,-0.062 -0.866,-0.088c5.117,-1.644 10.318,-3.072 15.666,-3.599c2.853,-0.281 5.741,-0.506 8.609,-0.457c2.525,0.043 5.364,0.278 7.591,1.606c0.322,0.226 0.656,0.443 0.965,0.678c1.135,0.863 3.442,-0.17 3.734,-1.311c-2.946,-1.567 -6.069,-2.806 -9.213,-3.918Z" style="fill:#69ac45;fill-rule:nonzero;"/></g><g><path d="M245.755,249.108c-0.326,-0.266 -0.667,-0.501 -1.016,-0.721c-9.347,-6.629 -23.447,-8.401 -33.102,-1.778c0.444,-1.314 1.137,-2.587 1.719,-3.734c1.003,-1.98 2.109,-3.927 2.814,-6.041c1.505,-4.509 2.914,-10.014 0.882,-14.566c-0.49,-1.099 -2.039,-0.744 -2.805,-0.253c-2.137,1.37 -2.679,3.91 -3.217,6.217c-0.785,3.371 -1.952,6.641 -2.802,9.995c-0.376,1.485 -0.749,3.045 -1.067,4.641c-3.429,-3.923 -8.665,-6.748 -13.081,-8.343c-7.07,-2.551 -14.675,-1.655 -21.641,0.883c-3.722,1.357 -7.598,3.405 -10.061,6.601c-0.252,0.328 -0.458,0.948 0.082,1.16c3.542,1.395 7.513,-0.336 11.202,-0.205c4.784,0.169 9.557,0.93 14.123,2.382c4.252,1.352 8.461,2.998 12.264,5.361c1.696,1.054 3.432,2.244 4.616,3.885c1.077,1.493 1.712,3.295 2.531,4.932c0.022,0.044 0.06,0.066 0.084,0.107c-0.645,2.896 -1.563,5.754 -2.354,8.582c-1.07,3.825 -1.913,7.634 -2.358,11.583c-0.667,5.929 -1.881,12.595 0.659,18.251c0.571,1.27 2.816,0.644 3.294,-0.408c0.773,-1.7 1.11,-3.443 1.417,-5.274c0.344,-2.048 0.861,-4.053 1.383,-6.061c1.021,-3.931 2.138,-7.837 3.112,-11.781c1.248,-5.053 2.611,-10.913 1.49,-16.176c3.936,1.435 7.071,4.592 9.581,8.017c3.319,4.53 5.444,9.743 7.576,14.894c0.712,1.72 3.685,0.313 3.684,-1.214c-0.005,-6.679 -1.494,-13.489 -5.372,-19.024c-1.995,-2.848 -4.735,-5.44 -7.986,-6.776c-2.383,-0.979 -4.89,-1.288 -7.415,-1.512c4.494,-1.444 9.063,-2.698 13.759,-3.161c2.506,-0.247 5.043,-0.444 7.562,-0.401c2.218,0.037 4.711,0.244 6.667,1.41c0.283,0.198 0.576,0.388 0.848,0.595c1.308,0.991 4.392,-0.875 2.928,-2.067Z" style="fill:#69ac45;fill-rule:nonzero;"/><path d="M238.015,246.579c-2.323,-0.822 -4.635,-1.481 -7.095,-1.762c-3.43,-0.391 -7.016,-0.281 -10.382,0.527c-3.088,0.741 -6.168,2.118 -8.056,4.777c-0.464,0.652 -1.384,-0.089 -1.102,-0.744c0.562,-1.304 1.254,-2.618 2.051,-3.874c-0.612,0.34 -1.213,0.705 -1.795,1.104c0.445,-1.314 1.138,-2.587 1.72,-3.734c1.003,-1.98 2.108,-3.927 2.814,-6.041c1.504,-4.509 2.913,-10.014 0.882,-14.566c-0.032,-0.07 -0.079,-0.119 -0.118,-0.178c-0.105,0.191 -0.217,0.378 -0.318,0.571c-1.851,3.551 -3.335,7.51 -4.144,11.437c-0.934,4.535 -1.006,9.484 -3.297,13.622c-0.218,0.394 -0.913,0.553 -1.156,0.073c-0.856,-1.694 -1.251,-3.599 -1.419,-5.509c-1.624,-1.715 -3.569,-3.218 -5.631,-4.473c2.614,1.93 4.762,4.494 5.22,7.824c0.086,0.629 -0.682,0.867 -1.111,0.551c-2.68,-1.974 -5.673,-3.509 -8.769,-4.718c-6.037,-2.359 -12.656,-3.536 -19.136,-3.203c-5.267,0.27 -10.643,1.628 -14.991,4.668c0.052,0.097 0.139,0.181 0.279,0.237c3.541,1.395 7.512,-0.337 11.201,-0.206c4.785,0.169 9.558,0.93 14.123,2.382c4.253,1.352 8.461,2.998 12.264,5.361c1.696,1.054 3.432,2.244 4.616,3.885c0.532,0.737 0.955,1.551 1.347,2.381c1.197,-0.816 2.537,-1.429 3.973,-1.553c0.324,-0.028 0.736,0.259 0.717,0.618c-0.216,3.968 -0.612,7.923 -1.164,11.859c-0.501,3.576 -1.122,7.134 -1.826,10.676c-0.68,3.432 -1.496,6.835 -2.116,10.278c-0.587,3.26 -1.09,6.542 -1.714,9.795c0.893,0.341 2.276,-0.207 2.641,-1.008c0.772,-1.699 1.109,-3.443 1.417,-5.274c0.343,-2.048 0.86,-4.053 1.382,-6.061c1.022,-3.93 2.139,-7.837 3.113,-11.78c1.248,-5.053 2.61,-10.914 1.49,-16.177c3.935,1.435 7.071,4.592 9.58,8.018c3.319,4.529 5.444,9.742 7.576,14.893c0.53,1.28 2.309,0.828 3.186,-0.116c0.014,-0.461 0.049,-0.924 0.036,-1.387c-0.327,-12.055 -9.234,-23.928 -21.788,-24.757c-0.563,-0.038 -0.737,-0.963 -0.243,-1.213c0.794,-0.403 1.629,-0.714 2.481,-0.974c-0.253,-0.025 -0.506,-0.056 -0.76,-0.079c4.494,-1.444 9.063,-2.697 13.759,-3.16c2.505,-0.248 5.042,-0.444 7.561,-0.402c2.219,0.037 4.711,0.244 6.667,1.41c0.283,0.198 0.576,0.389 0.848,0.595c0.998,0.758 3.024,-0.149 3.279,-1.151c-2.588,-1.377 -5.331,-2.466 -8.092,-3.442Z" style="fill:#69ac45;fill-rule:nonzero;"/></g><g><path d="M154.714,218.851c-0.42,0.007 -0.832,0.047 -1.241,0.104c-11.418,0.959 -23.34,8.694 -26.45,19.983c-0.508,-1.291 -0.799,-2.711 -1.094,-3.963c-0.51,-2.16 -0.92,-4.361 -1.743,-6.431c-1.756,-4.418 -4.229,-9.534 -8.716,-11.703c-1.084,-0.524 -2.039,0.746 -2.308,1.614c-0.751,2.426 0.473,4.716 1.55,6.828c1.573,3.082 2.79,6.334 4.302,9.446c0.669,1.378 1.391,2.81 2.177,4.236c-5.15,-0.788 -10.975,0.428 -15.378,2.057c-7.049,2.607 -12.286,8.197 -15.973,14.626c-1.971,3.437 -3.614,7.502 -3.435,11.533c0.018,0.413 0.26,1.02 0.811,0.834c3.607,-1.216 5.526,-5.101 8.43,-7.379c3.767,-2.955 7.906,-5.451 12.331,-7.285c4.124,-1.708 8.401,-3.163 12.831,-3.809c1.976,-0.287 4.07,-0.497 6.033,-0.006c1.786,0.446 3.433,1.415 5.115,2.138c0.046,0.019 0.089,0.011 0.133,0.026c1.374,2.63 2.515,5.407 3.734,8.077c1.649,3.613 3.46,7.069 5.666,10.374c3.313,4.962 6.683,10.84 12.272,13.526c1.255,0.603 2.567,-1.323 2.254,-2.436c-0.421,-1.494 -1.091,-2.818 -1.848,-4.139c-1.22,-2.13 -3.035,-5.713 -4.081,-7.933c-1.48,-3.139 -2.919,-6.297 -4.454,-9.41c-2.304,-4.667 -5.041,-10.025 -9.291,-13.326c3.933,-1.441 8.365,-1.049 12.493,-0.048c5.457,1.322 10.442,3.938 15.392,6.5c1.654,0.856 3.02,-2.136 2.034,-3.303c-4.31,-5.102 -9.839,-9.348 -16.371,-11.078c-3.362,-0.891 -7.127,-1.106 -10.473,-0.031c-2.454,0.788 -4.569,2.168 -6.644,3.624c2.505,-4.001 5.188,-7.905 8.48,-11.287c1.756,-1.804 3.568,-3.59 5.521,-5.183c1.72,-1.402 3.759,-2.851 6.005,-3.22c0.345,-0.03 0.692,-0.074 1.033,-0.092c1.636,-0.082 2.791,-3.496 0.903,-3.464Z" style="fill:#69ac45;fill-rule:nonzero;"/><path d="M146.851,222.028c-2.425,0.923 -4.771,2.069 -6.898,3.556c-2.624,1.834 -5.046,4.074 -6.941,6.649c-1.882,2.558 -3.349,5.595 -3.079,8.845c0.067,0.798 -1.114,0.824 -1.32,0.142c-0.411,-1.359 -0.731,-2.809 -0.93,-4.284c-0.25,0.654 -0.472,1.321 -0.66,2.002c-0.508,-1.291 -0.799,-2.711 -1.094,-3.963c-0.51,-2.16 -0.92,-4.361 -1.743,-6.431c-1.756,-4.418 -4.229,-9.534 -8.716,-11.703c-0.07,-0.034 -0.138,-0.041 -0.206,-0.061c0.043,0.213 0.078,0.43 0.126,0.642c0.875,3.907 2.292,7.891 4.206,11.415c2.209,4.069 5.345,7.899 6.262,12.539c0.088,0.441 -0.341,1.011 -0.835,0.8c-1.748,-0.744 -3.276,-1.944 -4.638,-3.296c-2.347,-0.263 -4.802,-0.159 -7.187,0.211c3.243,-0.21 6.538,0.366 9.035,2.616c0.472,0.425 0.039,1.103 -0.493,1.138c-3.322,0.219 -6.599,0.976 -9.745,2.047c-6.134,2.089 -11.953,5.457 -16.693,9.889c-3.853,3.603 -7.086,8.107 -8.449,13.233c0.102,0.041 0.222,0.05 0.365,0.001c3.606,-1.216 5.526,-5.101 8.43,-7.379c3.767,-2.955 7.906,-5.451 12.331,-7.285c4.123,-1.707 8.401,-3.163 12.831,-3.808c1.975,-0.288 4.07,-0.498 6.033,-0.007c0.882,0.221 1.73,0.569 2.564,0.952c0.39,-1.397 1.018,-2.729 2.036,-3.749c0.23,-0.23 0.73,-0.277 0.947,0.01c2.393,3.172 4.641,6.451 6.755,9.815c1.922,3.057 3.742,6.178 5.488,9.339c1.692,3.062 3.263,6.189 5.008,9.222c1.653,2.87 3.385,5.703 5.005,8.592c0.903,-0.315 1.607,-1.626 1.368,-2.473c-0.42,-1.494 -1.09,-2.818 -1.847,-4.14c-1.22,-2.129 -3.036,-5.712 -4.081,-7.932c-1.48,-3.139 -2.919,-6.298 -4.455,-9.41c-2.303,-4.667 -5.041,-10.026 -9.291,-13.326c3.934,-1.441 8.365,-1.049 12.493,-0.048c5.457,1.322 10.442,3.938 15.393,6.5c1.23,0.637 2.299,-0.856 2.361,-2.142c-0.288,-0.362 -0.559,-0.737 -0.867,-1.083c-8.023,-9.004 -22.486,-12.337 -32.617,-4.878c-0.454,0.335 -1.184,-0.26 -0.968,-0.77c0.348,-0.82 0.785,-1.597 1.269,-2.345c-0.21,0.145 -0.423,0.285 -0.632,0.432c2.504,-4.001 5.187,-7.906 8.479,-11.287c1.756,-1.805 3.568,-3.591 5.521,-5.183c1.72,-1.402 3.759,-2.852 6.005,-3.22c0.345,-0.031 0.692,-0.075 1.033,-0.092c1.25,-0.063 2.214,-2.063 1.764,-2.994c-2.979,0.635 -5.882,1.621 -8.723,2.702Z" style="fill:#69ac45;fill-rule:nonzero;"/></g></g></g><g><g><path d="M69.182,381.414c-3.168,8.047 -20.031,7.963 -22.826,12.768c-2.795,4.806 2.782,11.381 6.057,16.066c3.275,4.685 10.403,6.899 13.592,12.044c4.08,6.585 18.261,24.603 10.891,27.464c-7.369,2.862 -42.581,0.122 -55.11,-10.293c-12.528,-10.415 -22.098,-37.672 -20.061,-52.198c2.036,-14.526 21.674,-28.064 32.281,-34.958c8.945,-5.814 25.495,-11.255 31.358,-6.404c5.862,4.851 6.986,27.465 3.818,35.511Z" style="fill:#f5e11b;stroke:#332a32;stroke-width:2.9px;stroke-linecap:round;stroke-miterlimit:1.5;"/></g><g><path d="M73.454,415.751c-1.738,-0.503 -4.097,-2.898 -6.049,-2.647c-3.807,0.489 -4.312,6.302 -4.731,8.804c-1.386,8.275 2.434,16.812 7.076,23.46c2.217,3.175 5.782,8.688 9.718,9.899c3.606,1.11 12.278,0.673 11.795,-4.421c-0.351,-3.696 3.444,-2.324 6.852,-0.76c6.481,2.974 11.326,7.728 16.091,12.874c2.16,2.333 5.441,6.652 9.088,6.335c5.267,-0.457 6.877,-8.047 5.766,-12.128c-1.23,-4.515 -3.523,-7.928 -6.291,-11.609c-1.062,-1.411 -3.591,-3.683 -3.667,-5.53c-0.094,-2.294 2.358,-4.883 3.813,-6.326c3.437,-3.41 7.665,-6.006 10.923,-9.608c6.21,-6.866 10.896,-15.9 14.265,-24.483c1.891,-4.818 4.55,-10.668 2.51,-15.861c-1.778,-4.527 -5.452,-6.065 -9.845,-4.139c-0.757,0.331 -8.316,6.19 -8.821,5.014c-1.612,-3.759 1.059,-24.224 -4.186,-27.858c-3.596,-2.491 -8.301,0.013 -10.821,2.983c-0.296,0.349 -3.943,6.56 -4.119,6.285c-1.776,-2.784 -3.827,-8.012 -8.195,-6.624c-9.027,2.869 -9.426,17.042 -11.505,24.473c-3.336,11.922 -12.792,22.094 -19.667,31.867Z" style="fill:#fcfbdb;stroke:#332a32;stroke-width:3.15px;stroke-linecap:round;stroke-miterlimit:1.5;"/><path d="M75.872,427.91c-2.664,-3.818 -4.312,-7.263 -2.687,-11.204" style="fill:none;stroke:#332a32;stroke-width:3.15px;stroke-linecap:round;stroke-miterlimit:1.5;"/><path d="M90.756,448.976c-2.602,-0.859 -8.077,-7.298 -8.558,-10.38" style="fill:none;stroke:#332a32;stroke-width:3.15px;stroke-linecap:round;stroke-miterlimit:1.5;"/><path d="M114.053,413.445c8.775,-6.076 11.862,-21.367 19.092,-29.022" style="fill:none;stroke:#332a32;stroke-width:3.15px;stroke-linecap:round;stroke-miterlimit:1.5;"/><path d="M100.971,400.825c6.643,-9.829 7.393,-23.025 12.843,-35.918" style="fill:none;stroke:#332a32;stroke-width:3.15px;stroke-linecap:round;stroke-miterlimit:1.5;"/></g></g></g></svg>