<?xml version="1.0" encoding="UTF-8" standalone="no"?><!DOCTYPE svg PUBLIC "-//W3C//DTD SVG 1.1//EN" "http://www.w3.org/Graphics/SVG/1.1/DTD/svg11.dtd"><svg width="100%" height="100%" viewBox="0 0 847 597" version="1.1" xmlns="http://www.w3.org/2000/svg" xmlns:xlink="http://www.w3.org/1999/xlink" xml:space="preserve" xmlns:serif="http://www.serif.com/" style="fill-rule:evenodd;clip-rule:evenodd;stroke-linejoin:round;stroke-miterlimit:2;"><g><path d="M79.493,559.761c-30.593,-86.335 -30.242,-429.566 -0,-515.901c20.097,-57.372 148.992,-53.825 181.451,-2.108c33.559,53.468 65.269,218.477 99.794,218.828c34.524,0.352 60.272,-180.6 107.352,-216.72c46.411,-35.607 156.267,-55.556 175.126,0c29.188,85.984 29.715,429.39 0,515.901c-19.406,56.497 -148.574,35.153 -178.289,3.162c-29.715,-31.99 11.391,-182.392 0,-195.106c-11.391,-12.713 -46.392,99.023 -68.346,118.827c-15.727,14.187 -47.728,14.268 -63.382,0c-21.728,-19.804 -55.293,-131.364 -66.984,-118.827c-11.691,12.538 27.958,162.062 -3.162,194.052c-31.121,31.991 -163.02,55.856 -183.56,-2.108Z" style="fill:#f5e11b;fill-rule:nonzero;stroke:#332a32;stroke-width:3.79px;"/><path d="M100.68,540.56c-23.945,-79.204 -23.945,-396.021 0,-475.225c13.859,-45.842 113.605,-47.64 143.673,-0c31.086,49.253 68.87,191.576 108.012,191.576c39.142,0 81.752,-159.647 126.837,-191.576c39.083,-27.679 129.814,-45.842 143.673,-0c23.946,79.204 23.946,396.021 0,475.225c-13.859,45.841 -119.727,41.444 -143.673,-0c-23.945,-41.444 14.621,-234.85 0,-248.664c-14.62,-13.815 -63.317,138.146 -87.723,165.776c-12.956,14.667 -45.721,14.637 -58.712,-0c-24.521,-27.63 -73.679,-179.591 -88.414,-165.776c-14.736,13.814 23.945,207.22 -0,248.664c-23.946,41.444 -129.814,45.841 -143.673,-0Z" style="fill:#e6136a;fill-rule:nonzero;"/><g><path d="M309.237,335.277c-5.114,1.959 -7.646,5.401 -5.832,10.94" style="fill:none;stroke:#332a32;stroke-width:3.41px;stroke-linecap:round;stroke-miterlimit:1.5;"/><path d="M409.37,337.856c3.542,2.324 7.795,6.148 6.271,10.915" style="fill:none;stroke:#332a32;stroke-width:3.41px;stroke-linecap:round;stroke-miterlimit:1.5;"/></g><g><ellipse cx="303.49" cy="236.381" rx="59.411" ry="57.169" style="fill:#fcfbdb;"/><clipPath id="_clip1"><ellipse cx="303.49" cy="236.381" rx="59.411" ry="57.169"/></clipPath><g clip-path="url(#_clip1)"><path d="M290.316,292.686c0.598,-10.638 7.947,-93.013 17.49,-106.201c3.201,-4.424 7.962,-10.264 12.795,-12.095c15.168,-5.749 32.863,11.152 42.448,22.652c5.79,6.946 11.431,15.807 13.706,25.222c6.085,25.181 -3.448,57.156 -23.447,69.756c-7.948,5.007 -16.216,8.516 -25.337,8.344c-13.104,-0.247 -26.295,-3.252 -38.694,-8.143c-0.21,-0.083 1.039,0.465 1.039,0.465Z" style="fill:#332a32;"/></g><ellipse cx="303.49" cy="236.381" rx="59.411" ry="57.169" style="fill:none;stroke:#332a32;stroke-width:3.6px;stroke-linecap:round;stroke-miterlimit:1.5;"/><ellipse cx="319.324" cy="230.282" rx="7.346" ry="7.346" style="fill:#fcfbdb;stroke:#332a32;stroke-width:3.6px;stroke-linecap:round;stroke-miterlimit:1.5;"/><ellipse cx="313.954" cy="254.91" rx="4.898" ry="4.285" style="fill:#fcfbdb;stroke:#332a32;stroke-width:3.6px;stroke-linecap:round;stroke-miterlimit:1.5;"/></g><g><ellipse cx="408.637" cy="239.754" rx="59.411" ry="57.169" style="fill:#fcfbdb;"/><clipPath id="_clip2"><ellipse cx="408.637" cy="239.754" rx="59.411" ry="57.169"/></clipPath><g clip-path="url(#_clip2)"><path d="M396.805,295.612c0.598,-10.638 7.947,-93.013 17.49,-106.201c3.201,-4.424 7.962,-10.264 12.795,-12.095c15.168,-5.749 32.863,11.152 42.448,22.652c5.79,6.946 11.431,15.807 13.706,25.222c6.085,25.181 -3.448,57.156 -23.447,69.755c-7.949,5.008 -16.217,8.517 -25.337,8.345c-13.104,-0.247 -26.295,-3.252 -38.694,-8.143c-0.21,-0.083 1.039,0.465 1.039,0.465Z" style="fill:#332a32;"/></g><ellipse cx="408.637" cy="239.754" rx="59.411" ry="57.169" style="fill:none;stroke:#332a32;stroke-width:3.6px;stroke-linecap:round;stroke-miterlimit:1.5;"/><path d="M420.167,229.218c3.929,-1.004 7.933,1.37 8.937,5.298c1.003,3.929 -1.371,7.933 -5.299,8.937c-3.929,1.004 -7.933,-1.371 -8.937,-5.299c-1.003,-3.928 1.371,-7.933 5.299,-8.936Z" style="fill:#fcfbdb;stroke:#332a32;stroke-width:3.6px;stroke-linecap:round;stroke-miterlimit:1.5;"/><path d="M419.57,253.752c2.619,-0.67 5.22,0.648 5.806,2.939c0.586,2.292 -1.065,4.695 -3.684,5.364c-2.619,0.67 -5.221,-0.647 -5.806,-2.939c-0.586,-2.291 1.065,-4.695 3.684,-5.364Z" style="fill:#fcfbdb;stroke:#332a32;stroke-width:3.6px;stroke-linecap:round;stroke-miterlimit:1.5;"/></g><g><path d="M359.504,346.013c21.363,0 40.03,-4.994 40.03,3.029c0,8.022 -18.005,24.832 -39.368,24.832c-21.363,-0 -40.03,-16.81 -40.03,-24.832c0,-8.023 18.006,-3.029 39.368,-3.029Z" style="fill:#fcfbdb;stroke:#332a32;stroke-width:3.6px;stroke-linecap:round;stroke-miterlimit:1.5;"/><path d="M336.493,344.436l-1.654,20.455" style="fill:none;stroke:#332a32;stroke-width:3.6px;stroke-linecap:round;stroke-miterlimit:1.5;"/><path d="M379.218,346.855l1.556,20.461" style="fill:none;stroke:#332a32;stroke-width:3.6px;stroke-linecap:round;stroke-miterlimit:1.5;"/><path d="M359.775,346.228l-0.717,25.346" style="fill:none;stroke:#332a32;stroke-width:3.6px;stroke-linecap:round;stroke-miterlimit:1.5;"/></g><g><path d="M649.416,346.854c3.652,6.857 20.753,1.871 24.665,5.556c3.911,3.685 0.55,11.312 -1.196,16.554c-1.747,5.242 -11.403,10.235 -9.284,14.899c2.118,4.664 14.937,14.922 21.995,13.084c7.058,-1.838 16.827,-14.203 20.353,-24.112c3.72,-10.455 7.293,-28.184 1.971,-38.621c-5.323,-10.438 -24.616,-20.182 -33.908,-24.006c-6.742,-2.775 -17.783,-4.995 -21.846,1.059c-4.099,6.107 -6.402,28.73 -2.75,35.587Z" style="fill:#f5e11b;stroke:#332a32;stroke-width:2.8px;stroke-linecap:round;stroke-miterlimit:1.5;"/><g><path d="M671.595,369.891c-12.022,-11.94 -24.456,1.869 -25.328,11.522c-0.098,1.077 -6.397,4.857 -10.222,13.712c-10.247,23.727 -3.898,51.435 18.318,67.489c4.063,2.936 8.668,4.885 13.455,6.277c5.357,1.558 10.954,2.897 16.565,2.138c5.682,-0.769 14.621,-3.846 15.416,-10.755c0.259,-2.248 -3.023,-8.767 -1.771,-7.045c0.265,0.364 9.723,-3.328 10.097,-7.631c0.664,-7.655 -4.46,-9.417 -4.156,-9.292c3.622,1.484 6.691,-2.177 7.016,-2.936c2.996,-6.999 -0.539,-11.043 -3.477,-13.615c-2.941,-2.576 -7.899,-4.524 -7.136,-4.661c3.999,-0.717 13.024,-3.5 8.954,-15.311c-1.529,-4.434 -8.135,-3.817 -11.932,-2.678c-1.425,0.428 -0.438,-3.714 -2.001,-4.967c-2.125,-1.703 -6.829,-0.791 -8.897,-1.09c-4.14,-0.599 -9.084,0.028 -12.92,-1.899c-7.219,-3.626 -6.813,-12.562 -3.351,-18.644c0.149,-0.261 1.37,-0.614 1.37,-0.614Z" style="fill:#fcfbdb;stroke:#332a32;stroke-width:2.8px;stroke-linecap:round;stroke-miterlimit:1.5;"/><path d="M653.551,391.981c-3.959,-3.685 -7.604,-6.698 -6.979,-12.351" style="fill:none;stroke:#332a32;stroke-width:2.8px;stroke-linecap:round;stroke-miterlimit:1.5;"/><path d="M696.051,393.734c0.707,7.139 -3.401,14.863 -11.154,16.749c-3.232,0.787 -6.995,0.255 -10.199,-0.515" style="fill:none;stroke:#332a32;stroke-width:2.8px;stroke-linecap:round;stroke-miterlimit:1.5;"/><path d="M691.282,413.058c5.395,1.178 8.269,1.214 13.938,5.053" style="fill:none;stroke:#332a32;stroke-width:2.8px;stroke-linecap:round;stroke-miterlimit:1.5;"/><path d="M685.418,426.595c5.129,4.964 13.758,9.17 20.927,9.993" style="fill:none;stroke:#332a32;stroke-width:2.8px;stroke-linecap:round;stroke-miterlimit:1.5;"/><path d="M674.248,440.466c6.224,5.769 15.567,12.501 24.376,12.552" style="fill:none;stroke:#332a32;stroke-width:2.8px;stroke-linecap:round;stroke-miterlimit:1.5;"/></g></g><g><path d="M214.656,297.608l-6.816,3.031l-8.643,-1.376l-4.055,-0.646l-5.784,-0.92l-4.055,-0.646l-5.783,-0.921l-4.055,-0.645l-0,-0l-5.784,-0.921l-4.055,-0.646l-0,0l-4.822,-0.767c0.119,-0.254 0.18,-0.535 0.174,-0.825c-0.029,-1.378 -1.493,-2.269 -2.763,-1.682l-85.557,39.571c-0.693,0.32 -1.129,1.01 -1.114,1.761l3.415,167.391c0.056,2.76 1.738,5.231 4.311,6.342c4.813,2.08 11.106,4.212 18.646,5.382c0.003,0 0.006,0.001 0.01,0.001c0.158,0.025 0.316,0.049 0.476,0.073c0.009,0.001 0.018,0.003 0.027,0.004c0.168,0.025 0.336,0.05 0.505,0.073c0.021,0.003 0.043,0.007 0.064,0.009c0.175,0.025 0.35,0.049 0.526,0.072c0.036,0.005 0.072,0.01 0.108,0.015c0.064,0.009 0.128,0.017 0.192,0.024c0.062,0.009 0.124,0.017 0.187,0.024c0.056,0.008 0.112,0.015 0.169,0.022c0.081,0.01 0.162,0.02 0.243,0.03c0.041,0.005 0.082,0.01 0.123,0.015c0.126,0.015 0.253,0.03 0.379,0.044c14.662,1.681 26.468,-1.266 32.969,-3.409c27.489,-12.142 54.98,-24.285 82.469,-36.428c2.732,-1.206 4.465,-3.897 4.405,-6.836l-3.376,-165.522c-0.028,-1.366 -1.469,-2.258 -2.736,-1.694Z" style="fill:#e7ddb9;fill-rule:nonzero;"/><path d="M199.197,299.263l-4.055,-0.646l-61.965,30.216c-0.322,-0.688 -0.624,-1.386 -0.902,-2.092c-0.134,-0.339 -0.262,-0.679 -0.386,-1.021l57.469,-28.023l-4.055,-0.646l-54.154,26.407c-0.324,-1.102 -0.598,-2.216 -0.825,-3.339l49.196,-23.989l-4.055,-0.645l-0,-0l-45.554,22.212c-0.165,-1.185 -0.278,-2.378 -0.341,-3.574l40.111,-19.559l-4.055,-0.646l-0,0l-36.113,17.609c0.01,-1.156 0.066,-2.313 0.168,-3.467c-15.37,7.277 -30.737,14.676 -46.112,21.649c0.976,0.959 2.018,1.86 3.128,2.696c0.715,0.54 1.458,1.052 2.23,1.536c0.231,0.145 0.464,0.288 0.7,0.428c0.941,0.557 1.906,1.075 2.89,1.562c0.908,0.451 1.832,0.874 2.767,1.274c1.401,0.6 2.826,1.149 4.26,1.664c0.884,0.317 1.771,0.621 2.657,0.915c0.247,0.019 0.492,0.037 0.737,0.053c2.691,0.176 5.256,0.157 7.675,-0.002c2.613,-0.171 5.055,-0.506 7.295,-0.934c5.496,-1.05 9.787,-2.661 12.457,-3.803l5.009,-2.228c-0.396,-0.634 -0.773,-1.279 -1.132,-1.934l64.955,-31.673Z" style="fill:#c7c0a2;fill-rule:nonzero;"/><path d="M214.656,297.608l-6.816,3.031l-72.466,32.231l-5.009,2.228c-2.67,1.142 -6.961,2.753 -12.457,3.803c-2.24,0.428 -4.682,0.763 -7.295,0.934c-2.419,0.159 -4.984,0.178 -7.675,0.002c-0.245,-0.016 -0.49,-0.034 -0.737,-0.053c-0.886,-0.294 -1.773,-0.598 -2.657,-0.915c-1.434,-0.515 -2.859,-1.064 -4.26,-1.664c-0.935,-0.4 -1.859,-0.823 -2.767,-1.274c-0.984,-0.487 -1.949,-1.005 -2.89,-1.562c-0.236,-0.14 -0.469,-0.283 -0.7,-0.428c-0.772,-0.484 -1.515,-0.996 -2.23,-1.536c-1.11,-0.836 -2.152,-1.737 -3.128,-2.696c15.375,-6.973 30.742,-14.372 46.112,-21.649c10.053,-4.759 20.106,-9.466 30.164,-13.967c0.435,-0.194 0.77,-0.533 0.959,-0.942c0.119,-0.254 0.18,-0.535 0.174,-0.825c-0.029,-1.378 -1.493,-2.269 -2.763,-1.682l-85.557,39.571c-0.693,0.32 -1.129,1.01 -1.114,1.761l3.415,167.391c0.056,2.76 1.738,5.231 4.311,6.342c4.813,2.08 11.106,4.212 18.646,5.382c0.003,0 0.006,0.001 0.01,0.001c0.158,0.025 0.316,0.049 0.476,0.073c0.009,0.001 0.018,0.003 0.027,0.004c0.168,0.025 0.336,0.05 0.505,0.073c0.021,0.003 0.043,0.007 0.064,0.009c0.175,0.025 0.35,0.049 0.526,0.072c0.036,0.005 0.072,0.01 0.108,0.015c0.064,0.009 0.128,0.017 0.192,0.024c0.062,0.009 0.124,0.017 0.187,0.024c0.056,0.008 0.112,0.015 0.169,0.022c0.081,0.01 0.162,0.02 0.243,0.03c0.041,0.005 0.082,0.01 0.123,0.015c0.126,0.015 0.253,0.03 0.379,0.044c14.662,1.681 26.468,-1.266 32.969,-3.409c27.489,-12.142 54.98,-24.285 82.469,-36.428c2.732,-1.206 4.465,-3.897 4.405,-6.836l-3.376,-165.522c-0.028,-1.366 -1.469,-2.258 -2.736,-1.694Z" style="fill:#db77a0;fill-rule:nonzero;"/><path d="M86.697,332.405c0.715,0.54 1.458,1.052 2.23,1.536l40.643,-19.818l40.111,-19.559l-4.055,-0.646l-0,0l-36.113,17.609l-42.816,20.878Z" style="fill:#a49f87;fill-rule:nonzero;"/><path d="M92.517,335.931c0.908,0.451 1.832,0.874 2.767,1.274l35.04,-17.086l49.196,-23.989l-4.055,-0.645l-0,-0l-45.554,22.212l-37.394,18.234Z" style="fill:#a49f87;fill-rule:nonzero;"/><path d="M99.544,338.869c0.884,0.317 1.771,0.621 2.657,0.915c0.247,0.019 0.492,0.037 0.737,0.053l28.951,-14.117l57.469,-28.023l-4.055,-0.646l-54.154,26.407l-31.605,15.411Z" style="fill:#a49f87;fill-rule:nonzero;"/><path d="M110.613,339.835c2.613,-0.171 5.055,-0.506 7.295,-0.934l16.334,-7.965l64.955,-31.673l-4.055,-0.646l-61.965,30.216l-22.564,11.002Z" style="fill:#a49f87;fill-rule:nonzero;"/><path d="M99.544,338.869c-1.434,-0.515 -2.859,-1.064 -4.26,-1.664c-0.935,-0.4 -1.859,-0.823 -2.767,-1.274c-0.984,-0.487 -1.949,-1.005 -2.89,-1.562c-0.236,-0.14 -0.469,-0.283 -0.7,-0.428c-0.772,-0.484 -1.515,-0.996 -2.23,-1.536c-1.11,-0.836 -2.152,-1.737 -3.128,-2.696c-1.929,0.874 -3.858,1.742 -5.787,2.603c1.245,0.703 2.733,1.485 4.447,2.272c0.894,0.41 1.85,0.822 2.866,1.226c0.798,0.317 1.634,0.628 2.505,0.929l3.529,172.979c2.433,0.608 5.037,1.132 7.805,1.524c0.021,0.003 0.043,0.007 0.064,0.009c0.175,0.025 0.35,0.049 0.526,0.072c0.036,0.005 0.072,0.01 0.108,0.015c0.064,0.009 0.128,0.017 0.192,0.024c0.062,0.009 0.124,0.017 0.187,0.024c0.056,0.008 0.112,0.015 0.169,0.022c0.081,0.01 0.162,0.02 0.243,0.03c0.041,0.005 0.082,0.01 0.123,0.015c0.126,0.015 0.253,0.03 0.379,0.044c1.406,0.162 2.775,0.268 4.126,0.349l-3.511,-172.117c0.221,0.019 0.442,0.038 0.661,0.055c-0.886,-0.294 -1.773,-0.598 -2.657,-0.915Z" style="fill:#dc8aaa;fill-rule:nonzero;"/><path d="M208.713,450.873c0.086,4.239 -2.381,8.131 -6.293,9.929l-60.531,27.814c-3.567,1.639 -7.668,-0.865 -7.747,-4.73l-2.538,-124.426c-0.043,-2.111 1.183,-4.05 3.129,-4.948l69.38,-32.037c0.929,-0.414 1.985,0.24 2.006,1.241l2.594,127.157Zm2.275,-143.312l-19.206,8.868l-50.817,23.466l-15.663,7.233c-2.403,1.11 -3.917,3.504 -3.864,6.11l2.9,142.162c0.098,4.773 5.163,7.865 9.568,5.841l74.757,-34.351c4.831,-2.22 7.878,-7.026 7.771,-12.261l-2.969,-145.535c-0.025,-1.236 -1.329,-2.043 -2.477,-1.533Z" style="fill:#ec8fac;fill-rule:nonzero;"/><path d="M95.284,337.205c-0.935,-0.4 -1.859,-0.823 -2.767,-1.274c-0.984,-0.487 -1.949,-1.005 -2.89,-1.562c-0.236,-0.14 -0.469,-0.283 -0.7,-0.428c-0.772,-0.484 -1.515,-0.996 -2.23,-1.536c-1.11,-0.836 -2.152,-1.737 -3.128,-2.696c-1.929,0.874 -3.858,1.742 -5.787,2.603c1.245,0.703 2.733,1.485 4.447,2.272c0.894,0.41 1.85,0.822 2.866,1.226c0.798,0.317 1.634,0.628 2.505,0.929l-0,-0.005c0.634,0.22 1.287,0.433 1.959,0.64c1.098,0.337 2.244,0.656 3.44,0.945c1.277,0.31 2.609,0.587 3.994,0.822l0.005,0.001c0.128,0.022 0.258,0.043 0.387,0.064c0.025,0.004 0.05,0.008 0.075,0.012c0.111,0.018 0.223,0.036 0.335,0.053c0.042,0.007 0.085,0.013 0.128,0.02c0.098,0.015 0.196,0.029 0.295,0.044c0.058,0.008 0.116,0.017 0.174,0.025c0.037,0.006 0.074,0.011 0.111,0.016c0.05,0.007 0.099,0.014 0.148,0.021c0.07,0.01 0.141,0.02 0.212,0.029c0.076,0.011 0.153,0.021 0.229,0.031c0.091,0.012 0.181,0.024 0.272,0.035c0.059,0.008 0.117,0.015 0.176,0.023c0.151,0.019 0.302,0.037 0.454,0.054c0.52,0.061 1.034,0.112 1.546,0.158l-0,0.002c0.221,0.019 0.442,0.038 0.661,0.055c-0.886,-0.294 -1.773,-0.598 -2.657,-0.915c-1.434,-0.515 -2.859,-1.064 -4.26,-1.664Z" style="fill:#d95892;fill-rule:nonzero;"/></g><g><g><path d="M69.182,365.406c-3.168,8.047 -20.031,7.963 -22.826,12.768c-2.795,4.806 2.782,11.381 6.057,16.066c3.275,4.685 10.403,6.899 13.592,12.044c4.08,6.585 18.261,24.603 10.891,27.464c-7.369,2.862 -42.581,0.122 -55.11,-10.293c-12.528,-10.415 -22.098,-37.672 -20.061,-52.198c2.036,-14.526 21.674,-28.064 32.281,-34.958c8.945,-5.814 25.495,-11.255 31.358,-6.404c5.862,4.851 6.986,27.465 3.818,35.511Z" style="fill:#f5e11b;stroke:#332a32;stroke-width:2.9px;stroke-linecap:round;stroke-miterlimit:1.5;"/></g><g><path d="M73.454,399.743c-1.738,-0.503 -4.097,-2.898 -6.049,-2.647c-3.807,0.489 -4.312,6.302 -4.731,8.804c-1.386,8.275 2.434,16.812 7.076,23.46c2.217,3.175 5.782,8.688 9.718,9.899c3.606,1.11 12.278,0.673 11.795,-4.421c-0.351,-3.696 3.444,-2.324 6.852,-0.76c6.481,2.974 11.326,7.728 16.091,12.874c2.16,2.333 5.441,6.652 9.088,6.335c5.267,-0.457 6.877,-8.047 5.766,-12.128c-1.23,-4.515 -3.523,-7.928 -6.291,-11.609c-1.062,-1.411 -3.591,-3.683 -3.667,-5.53c-0.094,-2.294 2.358,-4.883 3.813,-6.326c3.437,-3.41 7.665,-6.006 10.923,-9.608c6.21,-6.866 10.896,-15.9 14.265,-24.483c1.891,-4.818 4.55,-10.668 2.51,-15.861c-1.778,-4.527 -5.452,-6.065 -9.845,-4.14c-0.757,0.332 -8.316,6.191 -8.821,5.015c-1.612,-3.759 1.059,-24.224 -4.186,-27.858c-3.596,-2.491 -8.301,0.013 -10.821,2.983c-0.296,0.349 -3.943,6.56 -4.119,6.285c-1.776,-2.784 -3.827,-8.012 -8.195,-6.624c-9.027,2.869 -9.426,17.042 -11.505,24.473c-3.336,11.922 -12.792,22.094 -19.667,31.867Z" style="fill:#fcfbdb;stroke:#332a32;stroke-width:3.15px;stroke-linecap:round;stroke-miterlimit:1.5;"/><path d="M75.872,411.902c-2.664,-3.818 -4.312,-7.263 -2.687,-11.204" style="fill:none;stroke:#332a32;stroke-width:3.15px;stroke-linecap:round;stroke-miterlimit:1.5;"/><path d="M90.756,432.968c-2.602,-0.859 -8.077,-7.298 -8.558,-10.38" style="fill:none;stroke:#332a32;stroke-width:3.15px;stroke-linecap:round;stroke-miterlimit:1.5;"/><path d="M114.053,397.437c8.775,-6.076 11.862,-21.367 19.092,-29.022" style="fill:none;stroke:#332a32;stroke-width:3.15px;stroke-linecap:round;stroke-miterlimit:1.5;"/><path d="M100.971,384.817c6.643,-9.829 7.393,-23.025 12.843,-35.918" style="fill:none;stroke:#332a32;stroke-width:3.15px;stroke-linecap:round;stroke-miterlimit:1.5;"/></g></g><path d="M843.612,215.705c10.108,-51.237 -62.615,-108.801 -162.297,-128.466c-99.683,-19.664 -188.818,5.969 -198.926,57.207c-5.973,30.28 17.157,64.324 61.975,91.216l-35.262,58.727l89.413,-33.879c14.847,5.115 30.37,9.285 46.172,12.402c99.682,19.664 188.818,-5.969 198.925,-57.207Z" style="fill:#fcfbdb;stroke:#332a32;stroke-width:3.02px;stroke-linecap:round;stroke-miterlimit:1.5;"/><g transform="matrix(0.994154,0.10797,-0.10797,0.994154,-1333.97,-172.224)"><g transform="matrix(43.9078,0,0,43.9078,2112.55,148.273)"></g><text x="1944.49px" y="148.273px" style="font-family:'ArialNarrow-Bold', 'Arial', sans-serif;font-weight:700;font-stretch:condensed;font-size:43.908px;">BlaBlaBla</text></g></g></svg>