<?xml version="1.0" encoding="UTF-8" standalone="no"?><!DOCTYPE svg PUBLIC "-//W3C//DTD SVG 1.1//EN" "http://www.w3.org/Graphics/SVG/1.1/DTD/svg11.dtd"><svg width="100%" height="100%" viewBox="0 0 940 597" version="1.1" xmlns="http://www.w3.org/2000/svg" xmlns:xlink="http://www.w3.org/1999/xlink" xml:space="preserve" xmlns:serif="http://www.serif.com/" style="fill-rule:evenodd;clip-rule:evenodd;stroke-linejoin:round;stroke-miterlimit:2;"><g><path d="M87.605,559.761c-30.593,-86.335 -30.242,-429.566 0,-515.901c20.097,-57.372 148.992,-53.825 181.451,-2.108c33.559,53.468 65.27,218.477 99.794,218.828c34.524,0.352 60.272,-180.6 107.352,-216.72c46.411,-35.607 156.267,-55.556 175.126,0c29.188,85.984 29.715,429.39 0,515.901c-19.406,56.497 -148.574,35.153 -178.289,3.162c-29.715,-31.99 11.391,-182.392 0,-195.106c-11.391,-12.713 -46.392,99.023 -68.346,118.827c-15.727,14.187 -47.728,14.268 -63.382,0c-21.728,-19.804 -55.293,-131.364 -66.984,-118.827c-11.691,12.538 27.958,162.062 -3.162,194.052c-31.121,31.991 -163.02,55.856 -183.56,-2.108Z" style="fill:#f5e11b;fill-rule:nonzero;stroke:#332a32;stroke-width:3.79px;"/><path d="M108.792,540.56c-23.945,-79.204 -23.945,-396.021 0,-475.225c13.859,-45.842 113.605,-47.64 143.673,-0c31.086,49.253 68.87,191.576 108.012,191.576c39.142,0 81.752,-159.647 126.838,-191.576c39.082,-27.679 129.813,-45.842 143.672,-0c23.946,79.204 23.946,396.021 0,475.225c-13.859,45.841 -119.727,41.444 -143.672,-0c-23.946,-41.444 14.62,-234.85 -0,-248.664c-14.621,-13.815 -63.318,138.146 -87.724,165.776c-12.956,14.667 -45.721,14.637 -58.712,-0c-24.521,-27.63 -73.678,-179.591 -88.414,-165.776c-14.736,13.814 23.945,207.22 -0,248.664c-23.946,41.444 -129.814,45.841 -143.673,-0Z" style="fill:#e6136a;fill-rule:nonzero;"/><g><path d="M317.349,335.277c-5.114,1.959 -7.646,5.401 -5.832,10.94" style="fill:none;stroke:#332a32;stroke-width:3.41px;stroke-linecap:round;stroke-miterlimit:1.5;"/><path d="M417.482,337.856c3.543,2.324 7.795,6.148 6.272,10.915" style="fill:none;stroke:#332a32;stroke-width:3.41px;stroke-linecap:round;stroke-miterlimit:1.5;"/></g><g><ellipse cx="311.602" cy="236.381" rx="59.411" ry="57.169" style="fill:#fcfbdb;"/><clipPath id="_clip1"><ellipse cx="311.602" cy="236.381" rx="59.411" ry="57.169"/></clipPath><g clip-path="url(#_clip1)"><path d="M298.428,292.686c0.598,-10.638 7.947,-93.013 17.49,-106.201c3.201,-4.424 7.962,-10.264 12.795,-12.095c15.168,-5.749 32.864,11.152 42.448,22.652c5.79,6.946 11.431,15.807 13.707,25.222c6.084,25.181 -3.449,57.156 -23.448,69.756c-7.948,5.007 -16.216,8.516 -25.336,8.344c-13.105,-0.247 -26.296,-3.252 -38.694,-8.143c-0.211,-0.083 1.038,0.465 1.038,0.465Z" style="fill:#332a32;"/></g><ellipse cx="311.602" cy="236.381" rx="59.411" ry="57.169" style="fill:none;stroke:#332a32;stroke-width:3.6px;stroke-linecap:round;stroke-miterlimit:1.5;"/><ellipse cx="327.436" cy="230.282" rx="7.346" ry="7.346" style="fill:#fcfbdb;stroke:#332a32;stroke-width:3.6px;stroke-linecap:round;stroke-miterlimit:1.5;"/><ellipse cx="322.066" cy="254.91" rx="4.898" ry="4.285" style="fill:#fcfbdb;stroke:#332a32;stroke-width:3.6px;stroke-linecap:round;stroke-miterlimit:1.5;"/></g><g><ellipse cx="416.749" cy="239.754" rx="59.411" ry="57.169" style="fill:#fcfbdb;"/><clipPath id="_clip2"><ellipse cx="416.749" cy="239.754" rx="59.411" ry="57.169"/></clipPath><g clip-path="url(#_clip2)"><path d="M404.917,295.612c0.598,-10.638 7.947,-93.013 17.49,-106.201c3.201,-4.424 7.962,-10.264 12.795,-12.095c15.168,-5.749 32.863,11.152 42.448,22.652c5.79,6.946 11.431,15.807 13.706,25.222c6.085,25.181 -3.448,57.156 -23.447,69.755c-7.948,5.008 -16.216,8.517 -25.336,8.345c-13.105,-0.247 -26.296,-3.252 -38.694,-8.143c-0.211,-0.083 1.038,0.465 1.038,0.465Z" style="fill:#332a32;"/></g><ellipse cx="416.749" cy="239.754" rx="59.411" ry="57.169" style="fill:none;stroke:#332a32;stroke-width:3.6px;stroke-linecap:round;stroke-miterlimit:1.5;"/><path d="M428.279,229.218c3.929,-1.004 7.933,1.37 8.937,5.298c1.004,3.929 -1.371,7.933 -5.299,8.937c-3.928,1.004 -7.933,-1.371 -8.937,-5.299c-1.003,-3.928 1.371,-7.933 5.299,-8.936Z" style="fill:#fcfbdb;stroke:#332a32;stroke-width:3.6px;stroke-linecap:round;stroke-miterlimit:1.5;"/><path d="M427.682,253.752c2.619,-0.67 5.221,0.648 5.806,2.939c0.586,2.292 -1.065,4.695 -3.684,5.364c-2.619,0.67 -5.221,-0.647 -5.806,-2.939c-0.586,-2.291 1.065,-4.695 3.684,-5.364Z" style="fill:#fcfbdb;stroke:#332a32;stroke-width:3.6px;stroke-linecap:round;stroke-miterlimit:1.5;"/></g><g><path d="M367.617,346.013c21.362,0 40.029,-4.994 40.029,3.029c0,8.022 -18.005,24.832 -39.368,24.832c-21.362,-0 -40.029,-16.81 -40.029,-24.832c-0,-8.023 18.005,-3.029 39.368,-3.029Z" style="fill:#fcfbdb;stroke:#332a32;stroke-width:3.6px;stroke-linecap:round;stroke-miterlimit:1.5;"/><path d="M344.605,344.436l-1.654,20.455" style="fill:none;stroke:#332a32;stroke-width:3.6px;stroke-linecap:round;stroke-miterlimit:1.5;"/><path d="M387.33,346.855l1.556,20.461" style="fill:none;stroke:#332a32;stroke-width:3.6px;stroke-linecap:round;stroke-miterlimit:1.5;"/><path d="M367.887,346.228l-0.717,25.346" style="fill:none;stroke:#332a32;stroke-width:3.6px;stroke-linecap:round;stroke-miterlimit:1.5;"/></g><g><path d="M75.911,360.705c-4.654,6.221 -20.796,-1.311 -25.223,1.735c-4.427,3.046 -2.267,11.095 -1.339,16.542c0.927,5.447 9.71,11.853 6.906,16.14c-2.805,4.287 -17.037,12.472 -23.732,9.58c-6.696,-2.891 -14.467,-16.6 -16.442,-26.93c-2.085,-10.901 -2.916,-28.966 3.935,-38.471c6.851,-9.506 27.402,-16.197 37.168,-18.561c7.086,-1.716 18.337,-2.227 21.43,4.374c3.121,6.661 1.952,29.37 -2.703,35.591Z" style="fill:#f5e11b;stroke:#332a32;stroke-width:2.8px;stroke-linecap:round;stroke-miterlimit:1.5;"/><g><path d="M50.482,380.095c13.7,-9.97 23.886,5.572 23.278,15.246c-0.068,1.079 5.582,5.774 8.013,15.108c6.514,25.012 -3.982,51.429 -28.384,63.912c-4.463,2.282 -9.311,3.507 -14.255,4.154c-5.531,0.723 -11.267,1.194 -16.696,-0.411c-5.499,-1.625 -13.865,-6.027 -13.599,-12.977c0.087,-2.261 4.323,-8.205 2.824,-6.693c-0.317,0.319 -9.103,-4.77 -8.817,-9.08c0.509,-7.667 5.842,-8.627 5.523,-8.55c-3.806,0.915 -6.282,-3.171 -6.487,-3.971c-1.895,-7.373 2.215,-10.832 5.511,-12.927c3.299,-2.097 8.495,-3.268 7.762,-3.519c-3.843,-1.318 -12.339,-5.443 -6.517,-16.496c2.186,-4.149 8.621,-2.534 12.2,-0.83c1.344,0.64 0.999,-3.604 2.735,-4.604c2.36,-1.359 6.87,0.259 8.959,0.278c4.183,0.038 8.973,1.411 13.059,0.091c7.687,-2.483 8.647,-11.377 6.151,-17.916c-0.107,-0.28 -1.26,-0.815 -1.26,-0.815Z" style="fill:#fcfbdb;stroke:#332a32;stroke-width:2.8px;stroke-linecap:round;stroke-miterlimit:1.5;"/><path d="M64.95,404.676c4.474,-3.039 8.536,-5.462 8.779,-11.144" style="fill:none;stroke:#332a32;stroke-width:2.8px;stroke-linecap:round;stroke-miterlimit:1.5;"/><path d="M22.68,399.934c-1.786,6.949 1.097,15.208 8.472,18.253c3.075,1.27 6.874,1.317 10.158,1.045" style="fill:none;stroke:#332a32;stroke-width:2.8px;stroke-linecap:round;stroke-miterlimit:1.5;"/><path d="M24.449,419.759c-5.511,0.343 -8.357,-0.059 -14.545,2.871" style="fill:none;stroke:#332a32;stroke-width:2.8px;stroke-linecap:round;stroke-miterlimit:1.5;"/><path d="M28.183,434.032c-5.826,4.124 -14.994,6.967 -22.205,6.689" style="fill:none;stroke:#332a32;stroke-width:2.8px;stroke-linecap:round;stroke-miterlimit:1.5;"/><path d="M37.109,449.442c-7.029,4.754 -17.289,9.984 -26.003,8.693" style="fill:none;stroke:#332a32;stroke-width:2.8px;stroke-linecap:round;stroke-miterlimit:1.5;"/></g></g><g><g><g><path d="M359.352,289.212c-13.138,10.91 -30.307,17.519 -49.082,17.519c-41.274,0 -74.783,-31.943 -74.783,-71.288c-0,-39.346 33.509,-71.289 74.783,-71.289c20.329,0 38.774,7.749 52.26,20.315" style="fill:none;stroke:#1bcdf5;stroke-width:17.7px;stroke-linecap:round;stroke-miterlimit:1.5;"/><g><path d="M236.902,217.11l-57.744,-43.896l-5.414,7.122l57.744,43.896l5.414,-7.122Z" style="fill:#1bcdf5;stroke:#1bcdf5;stroke-width:14.54px;stroke-linecap:round;stroke-miterlimit:1.5;"/><path d="M184.901,180.822c-4.761,-8.932 -18.178,-11.093 -29.942,-4.822c-11.764,6.27 -17.45,18.613 -12.689,27.545c-1.795,-7.646 4.246,-17.849 14.845,-23.499c10.6,-5.65 22.439,-4.976 27.786,0.776Z" style="fill:none;stroke:#1bcdf5;stroke-width:16.73px;stroke-linecap:round;stroke-miterlimit:1.5;"/></g><g><path d="M490.915,223.225l57.744,-43.895l5.414,7.122l-57.744,43.895l-5.414,-7.122Z" style="fill:#1bcdf5;stroke:#1bcdf5;stroke-width:14.54px;stroke-linecap:round;stroke-miterlimit:1.5;"/><path d="M542.916,186.938c4.761,-8.933 18.178,-11.093 29.942,-4.823c11.764,6.271 17.45,18.614 12.689,27.546c1.794,-7.646 -4.246,-17.85 -14.846,-23.5c-10.599,-5.65 -22.438,-4.976 -27.785,0.777Z" style="fill:none;stroke:#1bcdf5;stroke-width:16.73px;stroke-linecap:round;stroke-miterlimit:1.5;"/></g></g><path d="M370.53,184.469c13.138,-10.909 30.307,-17.519 49.082,-17.519c41.274,-0 74.783,31.943 74.783,71.288c0,39.346 -33.509,71.289 -74.783,71.289c-20.329,0 -38.774,-7.749 -52.26,-20.315" style="fill:none;stroke:#1bcdf5;stroke-width:17.7px;stroke-linecap:round;stroke-miterlimit:1.5;"/></g><path d="M367.141,290.525c-13.894,-12.947 -22.523,-31.008 -22.523,-50.974c-0,-21.447 9.957,-40.695 25.701,-53.769" style="fill:none;stroke:#1bcdf5;stroke-width:17.7px;stroke-linecap:round;stroke-miterlimit:1.5;"/></g><g><path d="M811.129,281.396l26.454,-12.891l34.322,67.44l47.246,39.934l-78.883,34.592l1.002,-60.995l-30.141,-68.08Z" style="fill:#1bcdf5;stroke:#1bcdf5;stroke-width:2.55px;stroke-linecap:round;stroke-miterlimit:1.5;"/><path d="M873.62,389.396c12.245,-5.356 23.377,-20.601 34.48,-16.926c10.884,3.602 19.922,11.125 24.567,21.747c9.385,21.457 -2.682,47.488 -26.931,58.094c-24.249,10.606 -51.555,1.796 -60.94,-19.661c-4.522,-10.339 -4.064,-21.739 0.338,-31.965c4.734,-10.996 15.921,-5.793 28.486,-11.289Z" style="fill:#ff83b2;stroke:#1bcdf5;stroke-width:6.89px;stroke-linecap:round;stroke-miterlimit:1.5;"/></g><g><g><path d="M665.739,319.187c12.178,-6.206 48.442,-2.678 62.037,-4.794c6.939,-1.081 14.509,-3.895 19.53,-7.906c5.021,-4.01 4.962,-13.034 10.595,-16.158c5.825,-3.23 21.016,-7.432 24.357,-3.224c3.341,4.208 0.385,20.102 -4.313,28.474c-5.252,9.357 -15.33,22.526 -27.195,27.67c-17.394,7.541 -61.163,16.181 -77.171,17.577c-6.973,0.608 -17.58,-2.32 -18.875,-9.198c-1.307,-6.94 0.857,-27.255 11.035,-32.441Z" style="fill:#f5e11b;stroke:#332a32;stroke-width:2.69px;stroke-linecap:round;stroke-miterlimit:1.5;"/></g><g><g><path d="M783.815,316.959c9.756,5.328 21.181,8.294 32.217,5.961c11.41,-2.412 22.491,-10.357 31.828,-16.964c7.086,-5.014 17.519,-10.356 19.202,-19.772c2.093,-11.712 -7.164,-16.918 -17.278,-17.327c-0.284,-0.011 0.249,-4.731 0.286,-5.052c0.389,-3.392 0.788,-6.732 -0.447,-10.004c-1.341,-3.552 -4.146,-6.138 -7.732,-7.419c-0.569,-0.203 -5.011,-0.566 -5.058,-0.643c-0.574,-0.925 1.08,-4.634 1.234,-5.796c0.682,-5.158 -1.373,-9.065 -6.088,-11.4c-14.145,-7.007 -23.518,9.278 -33.089,16.008c-1.129,0.794 -7.26,-1.861 -8.603,-2.195c-5.871,-1.462 -11.575,-1.701 -16.818,1.717c-11.174,7.285 -8.584,24.239 -9.625,35.685c-0.075,0.823 -14.677,-3.376 -13.226,6.928c4.069,28.893 29.644,48.311 33.197,30.273Z" style="fill:#fcfbdb;stroke:#332a32;stroke-width:3.31px;stroke-linecap:round;stroke-miterlimit:1.5;"/><path d="M858.901,298.109c-4.075,2.437 -8.268,4.516 -12.594,6.46c-6.541,2.94 -13.979,5.768 -21.144,3c-2.012,-0.778 -4.311,-2.306 -5.41,-4.223c-1.788,-3.118 -1.13,-8.279 0.214,-11.462c1.971,-4.671 5.915,-8.065 9.833,-11.105c3.237,-2.513 6.515,-4.989 10.083,-7.026" style="fill:none;stroke:#332a32;stroke-width:3.31px;stroke-linecap:round;stroke-miterlimit:1.5;"/><path d="M825.073,284.127c-6.051,1.427 -13.932,0.56 -16.01,-6.46c-0.381,-1.287 -0.577,-2.581 -0.568,-3.924c0.01,-1.578 0.281,-3.196 0.941,-4.637c2.138,-4.668 5.923,-7.871 9.937,-10.86c3.595,-2.677 7.266,-5.044 11.144,-7.285" style="fill:none;stroke:#332a32;stroke-width:3.31px;stroke-linecap:round;stroke-miterlimit:1.5;"/><path d="M810.913,264.833c-2.324,0.602 -5.073,1.052 -7.428,0.4c-5.309,-1.471 -9.532,-7.852 -8.755,-13.33c0.795,-5.599 3.595,-6.448 7.565,-10.062" style="fill:none;stroke:#332a32;stroke-width:3.31px;stroke-linecap:round;stroke-miterlimit:1.5;"/><path d="M804.645,265.958c1.754,2.656 4.031,3.723 3.701,6.9c-0.22,2.118 0.408,6.492 3.251,9.082c1.137,1.036 0.86,2.237 0.401,3.799c-0.954,3.244 -6.167,3.422 -8.777,2.946c-0.695,-0.127 -1.395,-0.246 -2.081,-0.411c-0.869,-0.209 -1.745,-0.446 -2.575,-0.782c-2.478,-1.004 -4.524,-2.605 -6.692,-4.132c-1.806,-1.272 -3.697,-2.438 -5.304,-3.966c-3.822,-3.636 -6.576,-8.92 -6.669,-14.277" style="fill:none;stroke:#332a32;stroke-width:3.31px;stroke-linecap:round;stroke-miterlimit:1.5;"/><path d="M785.499,317.455c-3.045,-3.494 -5.055,-7.041 -6.731,-11.353" style="fill:none;stroke:#332a32;stroke-width:3.31px;stroke-linecap:round;stroke-miterlimit:1.5;"/><path d="M770.993,292.028c-1.697,-3.866 -3.964,-10.269 -7.957,-12.299" style="fill:none;stroke:#332a32;stroke-width:3.31px;stroke-linecap:round;stroke-miterlimit:1.5;"/></g></g></g><path d="M828.479,323.35l-9.624,-18.608c6.649,9.848 24.15,4.492 36.987,-2.145l-27.363,20.753Z" style="fill:#1bcdf5;stroke:#1bcdf5;stroke-width:0.05px;stroke-linecap:round;stroke-miterlimit:1.5;"/><path d="M816.949,296.668l-4.693,-8.605c0.797,-0.316 1.387,-1.25 1.662,-3.129c2.13,1.385 4.715,1.71 7.627,1.271c-2.396,2.911 -3.764,6.508 -4.596,10.463Z" style="fill:#1bcdf5;stroke:#1bcdf5;stroke-width:0.05px;stroke-linecap:round;stroke-miterlimit:1.5;"/></g></svg>