<?xml version="1.0" encoding="UTF-8" standalone="no"?><!DOCTYPE svg PUBLIC "-//W3C//DTD SVG 1.1//EN" "http://www.w3.org/Graphics/SVG/1.1/DTD/svg11.dtd"><svg width="100%" height="100%" viewBox="0 0 944 597" version="1.1" xmlns="http://www.w3.org/2000/svg" xmlns:xlink="http://www.w3.org/1999/xlink" xml:space="preserve" xmlns:serif="http://www.serif.com/" style="fill-rule:evenodd;clip-rule:evenodd;stroke-linejoin:round;stroke-miterlimit:2;"><g><g><path d="M835.904,301.795c-3.888,-1.921 -7.635,-4.07 -11.44,-6.135c-0.323,-0.175 -0.646,-0.35 -0.969,-0.524c-1.213,-0.65 -9.924,-5.414 -9.17,-7.153l-2.927,6.743l-0.002,0.096c-0.106,0.371 -0.195,0.86 -0.251,1.442c2.196,2.156 4.677,4.028 7.253,5.701c3.835,2.491 7.903,4.597 12.008,6.602c4.658,2.275 9.389,4.367 14.292,6.06c0.461,0.159 0.924,0.309 1.387,0.46c3.513,1.398 7.121,2.565 10.756,3.6c4.398,1.253 8.984,2.204 13.564,2.035c-0.066,0.101 -0.142,0.208 -0.224,0.317c0.144,-0.192 0.272,-0.376 0.37,-0.54l0.069,-0.067l2.33,-5.368c-12.991,-2.488 -25.209,-7.421 -37.046,-13.269Z" style="fill:#f26862;fill-rule:nonzero;"/><path d="M811.139,296.311c0.002,-0.017 0.004,-0.031 0.006,-0.047c-0.001,-0.001 -0.002,-0.002 -0.002,-0.002c-0.002,0.015 -0.002,0.033 -0.004,0.049Z" style="fill:#f26862;fill-rule:nonzero;"/><path d="M861.84,339.66c-0.512,-0.014 -1.022,-0.035 -1.535,-0.058c-2.278,-0.517 -4.52,-1.229 -6.725,-1.992c-4.236,-1.467 -8.476,-2.912 -12.723,-4.35c-4.473,-1.514 -8.916,-3.144 -13.198,-5.145c-4.142,-1.936 -8.029,-4.312 -11.868,-6.784c-3.947,-2.541 -7.821,-5.197 -11.611,-7.966c-1.165,1.203 -1.786,2.104 -1.786,2.104l-33.609,77.429c-1.115,2.569 3.329,6.789 10.863,11.333c5.102,-12.111 30.429,-72.111 32.018,-73.701c1.768,-1.768 5.671,-1.439 5.671,-1.439c5.623,3.221 23.139,10.044 23.139,10.044c4.811,1.913 3.322,8.073 3.322,8.073l-30.204,71.765c7.696,2.181 13.188,2.452 14.412,-0.369l33.61,-77.429c-0,0 0.124,-0.566 0.224,-1.515Z" style="fill:#f26862;fill-rule:nonzero;"/><path d="M823.495,295.136c0.323,0.174 0.646,0.349 0.969,0.524c3.805,2.065 7.552,4.214 11.44,6.135c11.837,5.848 24.055,10.781 37.046,13.269l1.97,-4.539c-1.551,-0.486 -3.404,-1.118 -5.551,-1.895c-6.655,-2.409 -15.363,-5.924 -24.52,-9.899c-9.156,-3.974 -17.671,-7.934 -23.975,-11.151c-2.035,-1.038 -3.762,-1.96 -5.175,-2.761l-1.374,3.164c-0.754,1.739 7.957,6.503 9.17,7.153Z" style="fill:#c25354;fill-rule:nonzero;"/><path d="M815.791,321.331c3.839,2.472 7.726,4.848 11.868,6.784c4.282,2.001 8.725,3.631 13.198,5.145c4.247,1.438 8.487,2.883 12.723,4.35c2.205,0.763 4.447,1.475 6.725,1.992c0.513,0.023 1.023,0.044 1.535,0.058c0.001,-0.002 0,-0.003 0,-0.004c0.012,-0.107 0.023,-0.219 0.033,-0.335c0.001,-0.013 0.002,-0.026 0.003,-0.039c0.009,-0.106 0.019,-0.216 0.026,-0.329c0.003,-0.03 0.005,-0.061 0.007,-0.09c0.007,-0.102 0.014,-0.205 0.02,-0.312c0.002,-0.045 0.004,-0.092 0.006,-0.137c0.005,-0.096 0.009,-0.192 0.013,-0.292c0.002,-0.064 0.003,-0.131 0.006,-0.198c0.002,-0.086 0.004,-0.171 0.006,-0.26c0.002,-0.084 0.001,-0.173 0.002,-0.26c-0,-0.074 0.001,-0.147 0.001,-0.223c-0.001,-0.11 -0.003,-0.223 -0.005,-0.335c-0.001,-0.06 -0.002,-0.116 -0.003,-0.175c-0.005,-0.174 -0.012,-0.351 -0.02,-0.532c-0.134,-2.679 0.623,-5.319 1.676,-7.483c0.658,-1.353 1.433,-2.521 2.177,-3.396c0.446,-0.526 0.882,-0.946 1.277,-1.238c0.216,-0.16 0.423,-0.32 0.62,-0.48c0.072,-0.057 0.137,-0.114 0.207,-0.171c0.121,-0.101 0.243,-0.201 0.356,-0.3c0.083,-0.072 0.16,-0.143 0.238,-0.214c0.09,-0.081 0.181,-0.163 0.266,-0.243c0.087,-0.082 0.168,-0.162 0.249,-0.243c0.066,-0.064 0.132,-0.129 0.194,-0.193c0.089,-0.09 0.173,-0.179 0.255,-0.268c0.043,-0.047 0.088,-0.095 0.13,-0.142c0.088,-0.099 0.172,-0.195 0.252,-0.29c0.025,-0.03 0.051,-0.06 0.075,-0.091c0.087,-0.105 0.169,-0.208 0.244,-0.307c0.01,-0.014 0.02,-0.027 0.03,-0.041c0.082,-0.109 0.158,-0.216 0.224,-0.317c-4.58,0.169 -9.166,-0.782 -13.564,-2.035c-3.635,-1.035 -7.243,-2.202 -10.756,-3.6c-0.463,-0.151 -0.926,-0.301 -1.387,-0.46c-4.903,-1.693 -9.634,-3.785 -14.292,-6.06c-4.105,-2.005 -8.173,-4.111 -12.008,-6.602c-2.577,-1.674 -5.059,-3.546 -7.255,-5.703c-0.021,0.215 -0.036,0.447 -0.047,0.687c-0.003,0.066 -0.005,0.135 -0.007,0.202c-0.006,0.182 -0.008,0.371 -0.008,0.566c0,0.088 0.001,0.176 0.003,0.267c0.004,0.194 0.012,0.397 0.023,0.602c0.005,0.09 0.008,0.177 0.014,0.268c0.02,0.297 0.046,0.603 0.082,0.921c0.056,0.487 0.047,1.093 -0.032,1.778c-0.131,1.141 -0.455,2.504 -0.994,3.909c-0.862,2.247 -2.273,4.603 -4.322,6.335c-0.154,0.131 -0.302,0.259 -0.446,0.388c-0.036,0.032 -0.07,0.063 -0.105,0.096c-0.11,0.099 -0.218,0.197 -0.321,0.294c-0.03,0.028 -0.059,0.056 -0.089,0.084c-0.111,0.105 -0.219,0.209 -0.323,0.312c-0.015,0.015 -0.031,0.03 -0.046,0.045c-0.12,0.119 -0.235,0.235 -0.346,0.349c3.791,2.769 7.665,5.425 11.612,7.966Z" style="fill:#c25354;fill-rule:nonzero;"/><path d="M840.141,278.8c-4.793,-2.205 -9.156,-4.303 -12.784,-6.154c-0.315,-0.161 -0.617,-0.316 -0.917,-0.471l-6.119,14.095c3.671,1.898 8.363,4.17 13.702,6.626l6.118,-14.096Z" style="fill:#685f7f;fill-rule:nonzero;"/><path d="M855.987,302.443c-1.679,-0.688 -3.409,-1.407 -5.182,-2.155c1.774,0.748 3.503,1.467 5.182,2.155Z" style="fill:#685f7f;fill-rule:nonzero;"/><path d="M862.128,288.356l-6.119,14.096c4.586,1.879 8.773,3.517 12.335,4.831l6.119,-14.095c-3.65,-1.347 -7.841,-2.99 -12.335,-4.832Z" style="fill:#685f7f;fill-rule:nonzero;"/><path d="M795.48,412.244c-0.669,-0.291 -1.329,-0.585 -1.984,-0.878c-0.164,-0.074 -0.327,-0.148 -0.491,-0.221c-0.621,-0.282 -1.237,-0.564 -1.843,-0.848c-0.029,-0.014 -0.059,-0.027 -0.088,-0.04c-0.649,-0.305 -1.286,-0.61 -1.917,-0.916c-0.122,-0.059 -0.243,-0.118 -0.365,-0.178c-0.61,-0.299 -1.214,-0.598 -1.806,-0.897c-0.012,-0.006 -0.023,-0.012 -0.035,-0.017c-0.632,-0.32 -1.25,-0.64 -1.858,-0.96c-0.071,-0.038 -0.141,-0.074 -0.211,-0.112c-1.222,-0.646 -2.393,-1.29 -3.508,-1.93c-0.027,-0.017 -0.054,-0.032 -0.082,-0.048c-0.562,-0.324 -1.111,-0.646 -1.643,-0.968c-0,0 -0.001,0 -0.001,0c-7.534,-4.544 -11.978,-8.764 -10.863,-11.333l33.609,-77.429c0,0 0.743,-1.08 2.131,-2.453c0.015,-0.015 0.031,-0.03 0.046,-0.045c0.104,-0.103 0.212,-0.207 0.323,-0.312c0.03,-0.028 0.059,-0.056 0.089,-0.084c0.103,-0.097 0.211,-0.195 0.321,-0.294c0.035,-0.033 0.069,-0.064 0.105,-0.096c0.144,-0.129 0.293,-0.258 0.446,-0.388c2.049,-1.732 3.46,-4.088 4.322,-6.335c0.539,-1.405 0.863,-2.768 0.994,-3.909c0.079,-0.685 0.088,-1.291 0.032,-1.778c-0.036,-0.318 -0.062,-0.623 -0.082,-0.921c-0.006,-0.091 -0.009,-0.178 -0.014,-0.268c-0.011,-0.206 -0.019,-0.407 -0.023,-0.602c-0.002,-0.091 -0.003,-0.179 -0.003,-0.267c-0,-0.195 0.002,-0.383 0.008,-0.566c0.002,-0.067 0.004,-0.136 0.007,-0.202c0.04,-0.891 0.154,-1.617 0.3,-2.127l0.002,-0.096l4.301,-9.907c1.413,0.801 3.14,1.723 5.175,2.761c6.304,3.217 14.819,7.177 23.975,11.151c9.157,3.975 17.865,7.49 24.52,9.899c2.147,0.777 4,1.409 5.551,1.895l-4.3,9.907l-0.069,0.067c-0.098,0.164 -0.226,0.348 -0.37,0.54c-0.01,0.014 -0.02,0.027 -0.03,0.041c-0.075,0.099 -0.156,0.202 -0.244,0.307c-0.024,0.031 -0.05,0.061 -0.075,0.091c-0.08,0.095 -0.163,0.191 -0.252,0.29c-0.042,0.047 -0.087,0.095 -0.13,0.142c-0.083,0.089 -0.165,0.177 -0.255,0.268c-0.062,0.064 -0.128,0.129 -0.194,0.193c-0.081,0.081 -0.162,0.161 -0.249,0.243c-0.085,0.08 -0.176,0.162 -0.266,0.243c-0.078,0.071 -0.155,0.142 -0.238,0.214c-0.113,0.099 -0.235,0.199 -0.356,0.3c-0.07,0.057 -0.135,0.114 -0.207,0.171c-0.197,0.16 -0.404,0.32 -0.62,0.48c-0.395,0.292 -0.831,0.712 -1.277,1.238c-0.744,0.875 -1.519,2.043 -2.177,3.396c-1.053,2.164 -1.81,4.804 -1.676,7.483c0.008,0.181 0.015,0.358 0.02,0.532c0.001,0.059 0.002,0.115 0.003,0.175c0.002,0.112 0.004,0.225 0.005,0.335c0,0.076 -0.001,0.149 -0.001,0.223c-0.001,0.087 -0,0.176 -0.002,0.26c-0.001,0.089 -0.004,0.174 -0.006,0.26c-0.003,0.067 -0.004,0.134 -0.006,0.198c-0.003,0.1 -0.008,0.196 -0.013,0.292c-0.002,0.045 -0.004,0.092 -0.006,0.137c-0.006,0.107 -0.013,0.21 -0.02,0.312c-0.002,0.029 -0.004,0.06 -0.007,0.09c-0.008,0.114 -0.017,0.223 -0.026,0.329c-0.001,0.013 -0.002,0.026 -0.003,0.039c-0.01,0.117 -0.021,0.228 -0.033,0.335c0,0.001 0.001,0.002 -0,0.004c-0.1,0.949 -0.224,1.515 -0.224,1.515l-33.61,77.429c-1.31,3.019 -7.506,2.498 -16.061,-0.116c-0.148,-0.046 -0.296,-0.09 -0.446,-0.137c-0.22,-0.068 -0.443,-0.139 -0.666,-0.21c-0.165,-0.053 -0.33,-0.106 -0.496,-0.16c-0.221,-0.072 -0.441,-0.143 -0.664,-0.217c-0.176,-0.058 -0.351,-0.118 -0.528,-0.177c-0.219,-0.074 -0.438,-0.147 -0.659,-0.223c-0.238,-0.082 -0.477,-0.166 -0.717,-0.25c-0.324,-0.113 -0.65,-0.229 -0.979,-0.347c-0.221,-0.079 -0.441,-0.158 -0.664,-0.239c-0.204,-0.075 -0.409,-0.151 -0.614,-0.227c-0.224,-0.083 -0.449,-0.166 -0.675,-0.251c-0.201,-0.076 -0.403,-0.151 -0.606,-0.228c-0.247,-0.095 -0.496,-0.19 -0.745,-0.286c-0.182,-0.07 -0.364,-0.14 -0.546,-0.21c-0.412,-0.161 -0.825,-0.324 -1.243,-0.489c-0.114,-0.046 -0.23,-0.093 -0.345,-0.139c-0.343,-0.137 -0.687,-0.276 -1.033,-0.416c-0.164,-0.067 -0.329,-0.135 -0.494,-0.203c-0.296,-0.121 -0.594,-0.244 -0.893,-0.368c-0.169,-0.071 -0.338,-0.141 -0.508,-0.213c-0.313,-0.13 -0.626,-0.262 -0.94,-0.395c-0.15,-0.064 -0.3,-0.127 -0.451,-0.192c-0.461,-0.196 -0.924,-0.394 -1.389,-0.596l-0.082,-0.036l-0.082,-0.035Zm84.779,-101.539c-0.041,0.021 -0.096,0.036 -0.161,0.046c-0.008,0.001 -0.016,0.003 -0.025,0.004c-0.066,0.009 -0.144,0.012 -0.231,0.011c-0.015,-0 -0.029,-0 -0.044,-0c-0.089,-0.003 -0.188,-0.011 -0.297,-0.023c-0.02,-0.002 -0.041,-0.004 -0.062,-0.006c-0.111,-0.014 -0.231,-0.031 -0.362,-0.054c-0.025,-0.004 -0.052,-0.009 -0.079,-0.014c-0.134,-0.023 -0.275,-0.051 -0.428,-0.083c-0.028,-0.006 -0.058,-0.013 -0.088,-0.02c-0.157,-0.034 -0.322,-0.072 -0.498,-0.115c-0.028,-0.007 -0.058,-0.015 -0.086,-0.022c-0.171,-0.042 -0.35,-0.088 -0.537,-0.138c-0.035,-0.01 -0.07,-0.019 -0.106,-0.029c-0.186,-0.05 -0.381,-0.105 -0.582,-0.162c-0.046,-0.014 -0.092,-0.026 -0.14,-0.04c-0.204,-0.059 -0.417,-0.123 -0.635,-0.189c-0.064,-0.019 -0.126,-0.037 -0.19,-0.057c-0.215,-0.066 -0.436,-0.135 -0.664,-0.207c-0.076,-0.024 -0.153,-0.048 -0.231,-0.073c-0.226,-0.072 -0.459,-0.147 -0.696,-0.225c-0.088,-0.028 -0.175,-0.057 -0.264,-0.087c-0.238,-0.078 -0.481,-0.159 -0.73,-0.243c-0.099,-0.033 -0.2,-0.068 -0.301,-0.102c-0.251,-0.086 -0.506,-0.173 -0.767,-0.263c-0.102,-0.036 -0.206,-0.072 -0.309,-0.108c-0.242,-0.084 -0.489,-0.171 -0.74,-0.26c-0.125,-0.044 -0.252,-0.089 -0.378,-0.134c-0.241,-0.086 -0.484,-0.173 -0.731,-0.262c-0.143,-0.051 -0.286,-0.104 -0.431,-0.156c-0.25,-0.091 -0.504,-0.184 -0.761,-0.278c-4.932,-1.81 -11.108,-4.262 -17.9,-7.128c-0.031,-0.014 -0.063,-0.027 -0.095,-0.04c-0.826,-0.349 -1.663,-0.705 -2.507,-1.066c-0.152,-0.065 -0.305,-0.131 -0.458,-0.196c-0.838,-0.359 -1.68,-0.722 -2.532,-1.092l-0,0c-0.903,-0.392 -1.794,-0.782 -2.678,-1.17c-0.132,-0.059 -0.265,-0.117 -0.397,-0.175c-0.874,-0.385 -1.738,-0.768 -2.59,-1.149c-0.08,-0.036 -0.159,-0.071 -0.238,-0.107c-1.82,-0.813 -3.585,-1.613 -5.284,-2.395c-0.001,-0.001 -0.002,-0.001 -0.003,-0.002c-5.339,-2.456 -10.031,-4.728 -13.702,-6.626l0,-0c-0.296,-0.154 -0.583,-0.304 -0.867,-0.452c-0.048,-0.026 -0.099,-0.052 -0.148,-0.077c-0.254,-0.134 -0.5,-0.265 -0.743,-0.394c-0.072,-0.039 -0.147,-0.078 -0.219,-0.116c-0.223,-0.12 -0.438,-0.236 -0.651,-0.351c-0.084,-0.046 -0.171,-0.093 -0.254,-0.138c-0.195,-0.107 -0.383,-0.21 -0.568,-0.313c-0.094,-0.052 -0.188,-0.104 -0.279,-0.155c-0.172,-0.096 -0.338,-0.19 -0.502,-0.283c-0.094,-0.053 -0.188,-0.106 -0.279,-0.158c-0.153,-0.088 -0.3,-0.174 -0.445,-0.259c-0.092,-0.053 -0.183,-0.106 -0.271,-0.159c-0.135,-0.079 -0.265,-0.157 -0.392,-0.234c-0.088,-0.053 -0.175,-0.105 -0.259,-0.157c-0.117,-0.072 -0.231,-0.143 -0.341,-0.211c-0.083,-0.053 -0.162,-0.103 -0.241,-0.154c-0.099,-0.064 -0.197,-0.127 -0.29,-0.188c-0.077,-0.051 -0.149,-0.1 -0.221,-0.149c-0.083,-0.056 -0.166,-0.112 -0.242,-0.166c-0.069,-0.049 -0.132,-0.095 -0.195,-0.141c-0.067,-0.049 -0.135,-0.099 -0.196,-0.145c-0.06,-0.046 -0.112,-0.089 -0.166,-0.133c-0.052,-0.042 -0.105,-0.084 -0.151,-0.124c-0.05,-0.043 -0.09,-0.082 -0.132,-0.122c-0.037,-0.035 -0.077,-0.071 -0.109,-0.104c-0.038,-0.039 -0.065,-0.075 -0.094,-0.111c-0.023,-0.027 -0.05,-0.057 -0.067,-0.082c-0.026,-0.038 -0.039,-0.071 -0.053,-0.104c-0.008,-0.018 -0.023,-0.039 -0.027,-0.056c-0.013,-0.046 -0.012,-0.087 0.003,-0.123c0,-0.001 -0.001,-0.002 -0,-0.003l6.017,-13.863c0.455,0.493 1.233,1.032 2.312,1.702c1.468,0.912 3.55,2.064 6.189,3.428c0.3,0.155 0.602,0.31 0.917,0.471c3.628,1.851 7.991,3.949 12.784,6.154c3.536,1.626 7.304,3.31 11.191,4.997c3.709,1.61 7.341,3.143 10.796,4.559c4.494,1.842 8.685,3.485 12.335,4.832c0.471,0.174 0.935,0.344 1.388,0.508c3.252,1.177 5.842,2.027 7.7,2.527c1.228,0.331 2.151,0.532 2.823,0.527l-6.018,13.863c-0.015,0.035 -0.046,0.063 -0.088,0.086c-0.003,0.002 -0.005,0.004 -0.009,0.006Zm-48.761,-39.095c1.097,0.681 2.698,1.56 4.759,2.612c4.208,2.147 9.891,4.79 16.001,7.442c6.11,2.652 11.921,4.998 16.364,6.606c2.175,0.787 3.911,1.357 5.157,1.693c1.512,0.407 2.701,0.644 3.108,-0.293l0.051,-0.119c6.34,3.213 10.163,5.522 9.9,6.128c-0.511,1.179 -16.246,-4.516 -35.143,-12.719c-18.897,-8.202 -33.802,-15.807 -33.291,-16.986c0.263,-0.606 4.561,0.61 11.238,3.047l-0.052,0.119c-0.407,0.937 0.578,1.644 1.908,2.47Zm2.47,-5.689c1.097,0.681 2.698,1.56 4.759,2.611c4.208,2.148 9.89,4.791 16,7.443c6.11,2.652 11.922,4.998 16.364,6.606c2.176,0.787 3.911,1.357 5.158,1.692c0.694,0.188 1.318,0.337 1.832,0.355l-2.031,4.678c-0.341,0.786 -10.83,-3.011 -23.429,-8.479c-12.598,-5.469 -22.535,-10.539 -22.194,-11.324l2.031,-4.678c0.364,0.362 0.899,0.717 1.51,1.096Zm44.551,17.696c-0.01,0.025 -0.033,0.046 -0.065,0.061c-0.01,0.006 -0.028,0.008 -0.041,0.012c-0.025,0.009 -0.05,0.018 -0.085,0.022c-0.021,0.003 -0.048,0.002 -0.072,0.003c-0.035,0.002 -0.071,0.004 -0.115,0.003c-0.03,-0.001 -0.066,-0.005 -0.099,-0.007c-0.047,-0.004 -0.093,-0.007 -0.146,-0.014c-0.039,-0.004 -0.082,-0.012 -0.124,-0.018c-0.058,-0.009 -0.115,-0.017 -0.179,-0.029c-0.046,-0.008 -0.097,-0.019 -0.147,-0.029c-0.068,-0.013 -0.138,-0.027 -0.212,-0.044c-0.053,-0.011 -0.11,-0.025 -0.166,-0.038c-0.08,-0.019 -0.161,-0.038 -0.247,-0.06c-0.06,-0.015 -0.124,-0.032 -0.186,-0.048c-0.091,-0.024 -0.184,-0.049 -0.281,-0.075c-0.065,-0.018 -0.132,-0.037 -0.201,-0.057c-0.102,-0.028 -0.208,-0.059 -0.317,-0.091c-0.071,-0.021 -0.143,-0.042 -0.217,-0.064c-0.114,-0.035 -0.231,-0.07 -0.351,-0.107c-0.075,-0.024 -0.151,-0.047 -0.229,-0.072c-0.127,-0.04 -0.259,-0.082 -0.393,-0.125c-0.077,-0.025 -0.154,-0.049 -0.233,-0.075c-0.14,-0.046 -0.285,-0.094 -0.431,-0.143c-0.081,-0.027 -0.161,-0.053 -0.243,-0.081c-0.155,-0.052 -0.316,-0.107 -0.478,-0.163c-0.079,-0.027 -0.156,-0.053 -0.236,-0.08c-0.182,-0.063 -0.369,-0.129 -0.558,-0.196c-0.065,-0.022 -0.128,-0.044 -0.193,-0.067c-0.217,-0.077 -0.44,-0.157 -0.665,-0.238c-0.045,-0.016 -0.088,-0.031 -0.133,-0.048c-2.592,-0.936 -5.766,-2.169 -9.286,-3.613c-0.003,-0.001 -0.005,-0.002 -0.007,-0.003c-0.361,-0.148 -0.726,-0.298 -1.095,-0.451c-0.016,-0.007 -0.032,-0.013 -0.049,-0.02c-0.355,-0.147 -0.714,-0.297 -1.076,-0.448c-0.028,-0.012 -0.055,-0.023 -0.083,-0.035c-0.332,-0.138 -0.666,-0.279 -1.001,-0.421c-0.064,-0.026 -0.127,-0.053 -0.191,-0.08c-0.304,-0.128 -0.611,-0.259 -0.919,-0.39c-0.092,-0.039 -0.183,-0.077 -0.275,-0.116c-0.303,-0.13 -0.609,-0.261 -0.916,-0.393c-0.094,-0.04 -0.187,-0.079 -0.281,-0.12c-0.4,-0.172 -0.802,-0.346 -1.206,-0.521c-4.086,-1.774 -7.889,-3.504 -11.155,-5.061c-0.081,-0.039 -0.162,-0.078 -0.242,-0.116c-0.561,-0.268 -1.104,-0.53 -1.631,-0.787c-0.076,-0.037 -0.152,-0.074 -0.228,-0.111c-0.157,-0.077 -0.312,-0.153 -0.466,-0.229c-0.08,-0.039 -0.158,-0.078 -0.237,-0.117c-0.259,-0.127 -0.513,-0.254 -0.762,-0.378c-0.086,-0.043 -0.173,-0.086 -0.258,-0.129c-0.136,-0.068 -0.27,-0.136 -0.403,-0.203c-0.086,-0.043 -0.17,-0.086 -0.255,-0.129c-0.212,-0.108 -0.42,-0.214 -0.624,-0.318c-0.094,-0.049 -0.19,-0.098 -0.283,-0.146c-0.11,-0.057 -0.219,-0.113 -0.327,-0.17c-0.1,-0.051 -0.197,-0.103 -0.294,-0.153c-0.099,-0.052 -0.198,-0.104 -0.293,-0.154c-0.167,-0.088 -0.33,-0.175 -0.489,-0.26c-0.084,-0.045 -0.164,-0.088 -0.246,-0.132c-0.102,-0.056 -0.203,-0.11 -0.302,-0.164c-0.077,-0.042 -0.154,-0.084 -0.228,-0.125c-0.152,-0.084 -0.3,-0.166 -0.443,-0.246c-0.058,-0.032 -0.114,-0.064 -0.17,-0.096c-0.103,-0.058 -0.203,-0.115 -0.3,-0.171c-0.058,-0.033 -0.115,-0.066 -0.171,-0.098c-0.118,-0.069 -0.231,-0.135 -0.34,-0.2c-0.045,-0.027 -0.089,-0.053 -0.132,-0.079c-0.104,-0.062 -0.204,-0.123 -0.3,-0.182c-0.042,-0.026 -0.083,-0.052 -0.124,-0.077c-0.09,-0.057 -0.177,-0.112 -0.259,-0.165c-0.025,-0.016 -0.051,-0.032 -0.075,-0.048c-0.1,-0.065 -0.192,-0.128 -0.28,-0.188c-0.028,-0.019 -0.054,-0.038 -0.081,-0.057c-0.066,-0.047 -0.129,-0.092 -0.188,-0.136c-0.02,-0.014 -0.041,-0.03 -0.059,-0.044c-0.072,-0.055 -0.137,-0.106 -0.195,-0.155c-0.014,-0.012 -0.026,-0.023 -0.04,-0.035c-0.045,-0.039 -0.085,-0.077 -0.121,-0.112c-0.012,-0.011 -0.024,-0.023 -0.034,-0.034c-0.041,-0.042 -0.075,-0.082 -0.101,-0.118c-0.004,-0.006 -0.006,-0.011 -0.01,-0.016c-0.02,-0.031 -0.034,-0.059 -0.043,-0.085c-0.003,-0.008 -0.005,-0.016 -0.007,-0.023c-0.006,-0.029 -0.008,-0.055 0.002,-0.077l21.052,-1.626c0.296,0.408 0.952,0.745 1.784,1.17c0.072,0.037 0.149,0.075 0.225,0.113c0.745,0.374 1.658,0.803 2.649,1.245c0.281,0.126 0.567,0.252 0.859,0.378c0.629,0.274 1.243,0.531 1.824,0.768c0.725,0.296 1.397,0.557 1.972,0.766c0.007,0.002 0.014,0.005 0.021,0.007c0.869,0.315 1.558,0.56 2.057,0.505l13.179,16.477Zm-7.696,-26.419c-0.1,0.229 -3.168,-0.881 -6.853,-2.48c-3.685,-1.6 -6.591,-3.083 -6.492,-3.313c0.1,-0.229 3.168,0.881 6.853,2.48c3.685,1.6 6.591,3.083 6.492,3.313Zm-15.42,-1.012l1.68,-3.871c0.412,0.329 1.033,0.651 1.807,1.045c0.365,0.187 0.771,0.386 1.203,0.594c0.67,0.322 1.408,0.665 2.191,1.017c0.43,0.193 0.872,0.388 1.323,0.583c0.702,0.305 1.389,0.596 2.047,0.865c0.776,0.32 1.507,0.608 2.163,0.855c0.212,0.08 0.419,0.157 0.613,0.227c0.817,0.296 1.477,0.531 1.998,0.607l-1.681,3.87c-0.006,0.016 -0.029,0.024 -0.062,0.028c-0.01,0.001 -0.026,-0.001 -0.038,-0.001c-0.03,-0 -0.061,-0.001 -0.102,-0.007c-0.02,-0.003 -0.044,-0.007 -0.066,-0.011c-0.045,-0.008 -0.095,-0.018 -0.152,-0.031c-0.026,-0.006 -0.052,-0.013 -0.08,-0.02c-0.067,-0.017 -0.139,-0.036 -0.218,-0.059c-0.026,-0.007 -0.05,-0.014 -0.077,-0.022c-0.096,-0.028 -0.201,-0.061 -0.313,-0.097c-0.014,-0.004 -0.028,-0.009 -0.043,-0.013c-1.034,-0.335 -2.679,-0.966 -4.574,-1.765c-0.057,-0.024 -0.116,-0.049 -0.174,-0.073c-0.313,-0.133 -0.629,-0.268 -0.953,-0.409c-0,0 -0,0 -0,0c-1.303,-0.565 -2.504,-1.115 -3.514,-1.601l-0,0c-0.021,-0.01 -0.04,-0.019 -0.061,-0.029c-0.078,-0.038 -0.154,-0.075 -0.23,-0.111c-0.082,-0.041 -0.162,-0.08 -0.241,-0.119c-0.102,-0.05 -0.201,-0.099 -0.297,-0.147c-0.073,-0.037 -0.144,-0.073 -0.214,-0.108c-0.06,-0.03 -0.119,-0.06 -0.176,-0.09c-0.106,-0.054 -0.209,-0.107 -0.307,-0.159c-0.047,-0.024 -0.09,-0.047 -0.135,-0.071c-0.067,-0.036 -0.133,-0.071 -0.196,-0.105c-0.04,-0.022 -0.081,-0.044 -0.12,-0.066c-0.088,-0.048 -0.171,-0.095 -0.248,-0.139c-0.029,-0.017 -0.055,-0.032 -0.082,-0.048c-0.061,-0.036 -0.119,-0.07 -0.172,-0.103c-0.02,-0.012 -0.041,-0.024 -0.059,-0.036c-0.065,-0.04 -0.122,-0.077 -0.173,-0.112c-0.014,-0.01 -0.027,-0.02 -0.041,-0.029c-0.043,-0.031 -0.082,-0.06 -0.113,-0.086c-0.005,-0.004 -0.012,-0.009 -0.016,-0.013c-0.033,-0.028 -0.056,-0.052 -0.072,-0.074c-0.004,-0.005 -0.008,-0.01 -0.011,-0.015c-0.012,-0.02 -0.019,-0.038 -0.014,-0.051Zm-0.696,5.458l1.628,-3.75c0.154,0.08 0.311,0.161 0.48,0.247c1.242,0.634 2.918,1.413 4.716,2.194c1.8,0.781 3.513,1.473 4.824,1.947c0.179,0.065 0.345,0.125 0.509,0.183l-1.628,3.75c-0.078,0.181 -2.499,-0.695 -5.407,-1.958c-2.908,-1.262 -5.201,-2.432 -5.122,-2.613Zm-40.938,22.037c0.342,0.213 0.725,0.442 1.134,0.68l-4.342,10.002c-0.049,0.113 -0.076,0.231 -0.082,0.355c-0.337,1.297 -0.406,3.21 -0.182,5.161c0.261,2.279 -1.197,7.979 -5.031,11.221c-2.31,1.954 -3.572,3.777 -3.624,3.853c-0.033,0.048 -0.062,0.099 -0.085,0.153l-33.609,77.429c-1.051,2.422 1.263,5.668 6.879,9.65c4.897,3.472 12.102,7.341 20.29,10.895l0.164,0.071c8.702,3.778 16.204,6.415 21.695,7.625c6.806,1.501 10.688,0.909 11.868,-1.808l33.609,-77.429c0.023,-0.054 0.041,-0.109 0.054,-0.166c0.02,-0.091 0.49,-2.257 0.34,-5.279c-0.251,-5.015 2.917,-9.972 4.761,-11.339c1.577,-1.169 2.928,-2.525 3.646,-3.657c0.086,-0.089 0.154,-0.189 0.203,-0.302l4.342,-10.002c0.452,0.135 0.881,0.259 1.27,0.364c2.454,0.661 3.697,0.802 4.123,-0.181l6.483,-14.934c0.427,-0.984 -0.525,-1.795 -2.684,-3.136c-1.634,-1.016 -4.025,-2.327 -7.105,-3.899c-0.19,-0.097 -0.389,-0.197 -0.584,-0.296l2.054,-4.732c0.031,-0.071 0.049,-0.143 0.061,-0.216c0.003,-0.02 0.004,-0.04 0.007,-0.06c0.005,-0.057 0.005,-0.114 -0,-0.171c-0.002,-0.018 -0.002,-0.036 -0.005,-0.054c-0.012,-0.072 -0.03,-0.142 -0.057,-0.209c-0.005,-0.012 -0.012,-0.023 -0.018,-0.035c-0.026,-0.056 -0.058,-0.109 -0.096,-0.16c-0.006,-0.009 -0.009,-0.019 -0.016,-0.028l-13.165,-16.459c0.001,-0.004 0.004,-0.006 0.006,-0.01l1.662,-3.83c0.943,0.272 1.558,0.266 1.85,-0.406l2.075,-4.781c0.033,-0.076 0.051,-0.155 0.062,-0.233c0.163,-0.812 -0.792,-1.31 -2.311,-2.086c-1.242,-0.633 -2.918,-1.413 -4.717,-2.193c-1.799,-0.781 -3.512,-1.473 -4.823,-1.948c-1.604,-0.58 -2.62,-0.937 -3.102,-0.264c-0.049,0.062 -0.094,0.129 -0.128,0.205l-2.075,4.781c-0.292,0.672 0.124,1.126 0.966,1.628l-1.661,3.828l-21.045,1.625c-0.01,0.001 -0.02,0.006 -0.031,0.007c-0.063,0.007 -0.124,0.02 -0.183,0.04c-0.012,0.004 -0.025,0.006 -0.037,0.01c-0.068,0.026 -0.132,0.06 -0.192,0.101c-0.015,0.011 -0.028,0.022 -0.042,0.033c-0.045,0.035 -0.087,0.075 -0.126,0.118c-0.013,0.015 -0.026,0.029 -0.038,0.045c-0.045,0.059 -0.086,0.121 -0.117,0.193l-2.054,4.732c-0.205,-0.075 -0.414,-0.152 -0.615,-0.225c-3.251,-1.177 -5.842,-2.027 -7.7,-2.528c-2.454,-0.661 -3.697,-0.802 -4.124,0.181l-6.482,14.934c-0.427,0.984 0.525,1.795 2.684,3.136Z" style="fill:#1e1a32;fill-rule:nonzero;"/><path d="M862.128,288.356c-3.455,-1.416 -7.087,-2.949 -10.796,-4.559c-3.887,-1.687 -7.655,-3.371 -11.191,-4.997l-6.118,14.096c0.001,0.001 0.002,0.001 0.003,0.002c1.699,0.782 3.466,1.582 5.284,2.395c0.079,0.036 0.158,0.071 0.238,0.107c0.852,0.38 1.716,0.764 2.59,1.149c0.132,0.058 0.265,0.116 0.397,0.175c0.883,0.388 1.775,0.778 2.678,1.17l-0,0c0.852,0.37 1.695,0.733 2.532,1.092c0.153,0.065 0.306,0.131 0.458,0.196c0.844,0.361 1.681,0.717 2.507,1.066c0.032,0.013 0.064,0.026 0.095,0.04c1.781,0.751 3.519,1.474 5.204,2.164l6.119,-14.096Z" style="fill:#81789c;fill-rule:nonzero;"/><path d="M826.44,272.175c-2.639,-1.364 -4.721,-2.516 -6.189,-3.428c-1.079,-0.67 -1.857,-1.209 -2.312,-1.702l-6.017,13.863c-0.001,0.001 0,0.002 -0,0.003c-0.015,0.036 -0.016,0.077 -0.003,0.123c0.004,0.017 0.019,0.038 0.027,0.056c0.014,0.033 0.027,0.066 0.053,0.104c0.017,0.025 0.044,0.055 0.067,0.082c0.029,0.036 0.056,0.072 0.094,0.111c0.032,0.033 0.072,0.069 0.109,0.104c0.042,0.04 0.082,0.079 0.132,0.122c0.046,0.04 0.099,0.082 0.151,0.124c0.054,0.044 0.106,0.087 0.166,0.133c0.061,0.046 0.129,0.096 0.196,0.145c0.063,0.046 0.126,0.092 0.195,0.141c0.076,0.053 0.159,0.11 0.242,0.166c0.072,0.049 0.144,0.098 0.221,0.149c0.093,0.061 0.19,0.124 0.29,0.188c0.079,0.051 0.158,0.101 0.241,0.154c0.11,0.068 0.224,0.139 0.341,0.211c0.084,0.052 0.171,0.104 0.259,0.157c0.127,0.077 0.257,0.155 0.392,0.234c0.088,0.053 0.179,0.106 0.271,0.159c0.145,0.085 0.292,0.171 0.445,0.259c0.091,0.052 0.185,0.105 0.279,0.158c0.164,0.093 0.33,0.187 0.502,0.283c0.091,0.051 0.185,0.103 0.279,0.155c0.185,0.103 0.373,0.206 0.568,0.313c0.083,0.045 0.17,0.092 0.254,0.138c0.213,0.115 0.428,0.231 0.651,0.351c0.072,0.038 0.147,0.077 0.219,0.116c0.243,0.129 0.489,0.26 0.743,0.394c0.049,0.025 0.1,0.051 0.148,0.077c0.283,0.148 0.571,0.298 0.867,0.452l0,-0l6.119,-14.095Z" style="fill:#524c68;fill-rule:nonzero;"/><path d="M886.374,296.75c-0.672,0.005 -1.595,-0.196 -2.823,-0.527c-1.858,-0.5 -4.448,-1.35 -7.7,-2.527c-0.453,-0.164 -0.917,-0.334 -1.388,-0.508l-6.119,14.095c0.121,0.045 0.24,0.089 0.361,0.133c0.257,0.094 0.511,0.187 0.761,0.278c0.145,0.052 0.288,0.105 0.431,0.156c0.247,0.089 0.49,0.176 0.731,0.262c0.126,0.045 0.253,0.09 0.378,0.134c0.251,0.089 0.498,0.176 0.74,0.26c0.103,0.036 0.207,0.072 0.309,0.108c0.261,0.09 0.516,0.177 0.767,0.263c0.101,0.034 0.202,0.069 0.301,0.102c0.249,0.084 0.492,0.165 0.73,0.243c0.089,0.03 0.176,0.059 0.264,0.087c0.237,0.078 0.47,0.153 0.696,0.225c0.078,0.025 0.155,0.049 0.231,0.073c0.228,0.072 0.449,0.141 0.664,0.207c0.064,0.02 0.126,0.038 0.19,0.057c0.218,0.066 0.431,0.13 0.635,0.189c0.048,0.013 0.094,0.026 0.14,0.04c0.201,0.057 0.396,0.112 0.582,0.162c0.036,0.01 0.071,0.019 0.106,0.029c0.187,0.05 0.366,0.096 0.537,0.138c0.028,0.007 0.058,0.015 0.086,0.022c0.176,0.043 0.341,0.081 0.498,0.115c0.03,0.007 0.06,0.013 0.088,0.02c0.153,0.032 0.294,0.06 0.428,0.083c0.027,0.005 0.054,0.01 0.079,0.014c0.131,0.023 0.251,0.04 0.362,0.054c0.021,0.002 0.042,0.004 0.062,0.006c0.109,0.012 0.208,0.02 0.297,0.023c0.015,-0 0.029,-0 0.044,0c0.087,0.001 0.165,-0.002 0.231,-0.011c0.009,-0.001 0.017,-0.003 0.025,-0.004c0.065,-0.01 0.12,-0.025 0.161,-0.046c0.004,-0.002 0.006,-0.004 0.009,-0.006c0.042,-0.023 0.073,-0.051 0.088,-0.086l6.018,-13.863Z" style="fill:#524c68;fill-rule:nonzero;"/><path d="M818.404,265.974c-0.511,1.179 14.394,8.784 33.291,16.986c18.897,8.203 34.632,13.898 35.143,12.719c0.263,-0.606 -3.56,-2.915 -9.9,-6.128l-0.051,0.119c-0.407,0.937 -1.596,0.7 -3.108,0.293c-1.246,-0.336 -2.982,-0.906 -5.157,-1.693c-4.443,-1.608 -10.254,-3.954 -16.364,-6.606c-6.11,-2.652 -11.793,-5.295 -16.001,-7.442c-2.061,-1.052 -3.662,-1.931 -4.759,-2.612c-1.33,-0.826 -2.315,-1.533 -1.908,-2.47l0.052,-0.119c-6.677,-2.437 -10.975,-3.653 -11.238,-3.047Z" style="fill:#685f7f;fill-rule:nonzero;"/><path d="M830.427,269.503c-0.341,0.785 9.596,5.855 22.194,11.324c12.599,5.468 23.088,9.265 23.429,8.479l2.031,-4.678c-0.514,-0.018 -1.138,-0.167 -1.832,-0.355c-1.247,-0.335 -2.982,-0.905 -5.158,-1.692c-4.442,-1.608 -10.254,-3.954 -16.364,-6.606c-6.11,-2.652 -11.792,-5.295 -16,-7.443c-2.061,-1.051 -3.662,-1.93 -4.759,-2.611c-0.611,-0.379 -1.146,-0.734 -1.51,-1.096l-2.031,4.678Z" style="fill:#524c68;fill-rule:nonzero;"/><path d="M855.72,272.795c0.612,-1.669 1.248,-3.329 1.817,-5.013c0.348,-1.029 0.701,-2.05 1.07,-3.066c-0.991,-0.442 -1.904,-0.871 -2.649,-1.245c-0.481,0.251 -0.961,0.5 -1.425,0.758c-1.753,0.976 -3.466,2.038 -5.189,3.066c-1.643,0.982 -3.275,1.984 -4.875,3.034c3.098,1.469 6.644,3.08 10.446,4.732c0.26,-0.759 0.53,-1.515 0.805,-2.266Z" style="fill:#685f7f;fill-rule:nonzero;"/><path d="M864.421,268.942c-0.38,-0.771 -0.783,-1.537 -1.159,-2.314c-0.575,-0.209 -1.247,-0.47 -1.972,-0.766c1.205,3.513 1.911,7.166 2.726,10.789c0.118,0.792 0.236,1.584 0.364,2.374c2.296,0.922 4.407,1.737 6.258,2.418c-1.075,-2.324 -2.218,-4.617 -3.382,-6.899c-0.952,-1.864 -1.909,-3.725 -2.835,-5.602Z" style="fill:#685f7f;fill-rule:nonzero;"/><path d="M864.016,276.651c-0.815,-3.623 -1.521,-7.276 -2.726,-10.789c-0.581,-0.237 -1.195,-0.494 -1.824,-0.768c-0.292,-0.126 -0.578,-0.252 -0.859,-0.378c-0.369,1.016 -0.722,2.037 -1.07,3.066c-0.569,1.684 -1.205,3.344 -1.817,5.013c-0.275,0.751 -0.546,1.507 -0.805,2.266c0.059,0.026 0.117,0.051 0.176,0.077c0.404,0.175 0.806,0.349 1.206,0.521c0.094,0.041 0.187,0.08 0.281,0.12c0.307,0.132 0.613,0.263 0.916,0.393c0.092,0.039 0.183,0.077 0.275,0.116c0.308,0.131 0.615,0.262 0.919,0.39c0.064,0.027 0.127,0.054 0.191,0.08c0.335,0.142 0.669,0.283 1.001,0.421c0.028,0.012 0.055,0.023 0.083,0.035c0.361,0.151 0.721,0.301 1.076,0.448c0.017,0.007 0.033,0.013 0.049,0.02c0.369,0.153 0.734,0.303 1.095,0.451c0.002,0.001 0.004,0.002 0.007,0.003c0.746,0.306 1.477,0.603 2.19,0.889c-0.128,-0.79 -0.246,-1.582 -0.364,-2.374Z" style="fill:#81789c;fill-rule:nonzero;"/><path d="M849.344,267.295c1.723,-1.028 3.436,-2.09 5.189,-3.066c0.464,-0.258 0.944,-0.507 1.425,-0.758c-0.076,-0.038 -0.153,-0.076 -0.225,-0.113c-0.832,-0.425 -1.488,-0.762 -1.784,-1.17l-21.052,1.626c-0.01,0.022 -0.008,0.048 -0.002,0.077c0.002,0.007 0.004,0.015 0.007,0.023c0.009,0.026 0.023,0.054 0.043,0.085c0.004,0.005 0.006,0.01 0.01,0.016c0.026,0.036 0.06,0.076 0.101,0.118c0.01,0.011 0.022,0.023 0.034,0.034c0.036,0.035 0.076,0.073 0.121,0.112c0.014,0.012 0.026,0.023 0.04,0.035c0.058,0.049 0.123,0.1 0.195,0.155c0.018,0.014 0.039,0.03 0.059,0.044c0.059,0.044 0.122,0.089 0.188,0.136c0.027,0.019 0.053,0.038 0.081,0.057c0.088,0.06 0.18,0.123 0.28,0.188c0.024,0.016 0.05,0.032 0.075,0.048c0.082,0.053 0.169,0.108 0.259,0.165c0.041,0.025 0.082,0.051 0.124,0.077c0.096,0.059 0.196,0.12 0.3,0.182c0.043,0.026 0.087,0.052 0.132,0.079c0.109,0.065 0.222,0.131 0.34,0.2c0.055,0.032 0.113,0.065 0.171,0.098c0.097,0.056 0.197,0.113 0.3,0.171c0.056,0.032 0.112,0.064 0.17,0.096c0.143,0.08 0.291,0.162 0.443,0.246c0.074,0.041 0.151,0.083 0.228,0.125c0.099,0.054 0.2,0.108 0.302,0.164c0.082,0.044 0.162,0.087 0.246,0.132c0.159,0.085 0.322,0.172 0.489,0.26c0.095,0.05 0.194,0.102 0.293,0.154c0.097,0.05 0.194,0.102 0.294,0.153c0.108,0.057 0.216,0.113 0.327,0.17c0.093,0.048 0.189,0.097 0.283,0.146c0.204,0.104 0.412,0.21 0.624,0.318c0.085,0.043 0.169,0.086 0.255,0.129c0.133,0.067 0.267,0.135 0.403,0.203c0.085,0.043 0.172,0.086 0.258,0.129c0.249,0.124 0.503,0.251 0.762,0.378c0.079,0.039 0.157,0.078 0.237,0.117c0.154,0.076 0.309,0.152 0.466,0.229c0.076,0.037 0.152,0.074 0.228,0.111c0.527,0.257 1.07,0.519 1.631,0.787c0.08,0.038 0.161,0.077 0.242,0.116c0.176,0.084 0.353,0.168 0.532,0.253c1.6,-1.05 3.232,-2.053 4.876,-3.035Z" style="fill:#524c68;fill-rule:nonzero;"/><path d="M863.283,266.635c-0.007,-0.002 -0.014,-0.005 -0.021,-0.007c0.376,0.777 0.779,1.543 1.159,2.314c0.926,1.877 1.883,3.738 2.835,5.602c1.164,2.282 2.308,4.575 3.383,6.9c0.285,0.105 0.565,0.207 0.837,0.305c0.045,0.017 0.088,0.032 0.133,0.048c0.225,0.081 0.448,0.161 0.665,0.238c0.065,0.023 0.128,0.045 0.193,0.067c0.189,0.067 0.376,0.133 0.558,0.196c0.08,0.027 0.157,0.053 0.236,0.08c0.162,0.056 0.323,0.111 0.478,0.163c0.082,0.028 0.162,0.054 0.243,0.081c0.146,0.049 0.291,0.097 0.431,0.143c0.079,0.026 0.156,0.05 0.233,0.075c0.134,0.043 0.266,0.085 0.393,0.125c0.078,0.025 0.154,0.048 0.229,0.072c0.12,0.037 0.237,0.072 0.351,0.107c0.074,0.022 0.146,0.043 0.217,0.064c0.109,0.032 0.215,0.063 0.317,0.091c0.069,0.02 0.136,0.039 0.201,0.057c0.097,0.026 0.19,0.051 0.281,0.075c0.062,0.016 0.126,0.033 0.186,0.048c0.086,0.022 0.167,0.041 0.247,0.06c0.056,0.013 0.113,0.027 0.166,0.038c0.074,0.017 0.144,0.031 0.212,0.044c0.05,0.01 0.101,0.021 0.147,0.029c0.064,0.012 0.121,0.02 0.179,0.029c0.042,0.006 0.085,0.014 0.124,0.018c0.053,0.007 0.099,0.01 0.146,0.014c0.033,0.002 0.069,0.006 0.099,0.007c0.044,0.001 0.08,-0.001 0.115,-0.003c0.024,-0.001 0.051,-0 0.072,-0.003c0.035,-0.004 0.06,-0.013 0.085,-0.022c0.013,-0.004 0.031,-0.006 0.041,-0.012c0.032,-0.015 0.055,-0.036 0.065,-0.061l-13.179,-16.477c-0.499,0.055 -1.188,-0.19 -2.057,-0.505Z" style="fill:#524c68;fill-rule:nonzero;"/><path d="M859.829,264.257c2.908,1.263 5.329,2.139 5.407,1.958l1.628,-3.75c-0.164,-0.058 -0.33,-0.118 -0.509,-0.183c-1.311,-0.474 -3.024,-1.166 -4.824,-1.947c-1.798,-0.781 -3.474,-1.56 -4.716,-2.194c-0.169,-0.086 -0.326,-0.167 -0.48,-0.247l-1.628,3.75c-0.079,0.181 2.214,1.351 5.122,2.613Z" style="fill:#524c68;fill-rule:nonzero;"/><path d="M865.654,256.419l-1.712,3.943c0.791,0.325 1.523,0.614 2.164,0.855l1.711,-3.943c-0.656,-0.247 -1.387,-0.535 -2.163,-0.855Z" style="fill:#685f7f;fill-rule:nonzero;"/><path d="M860.093,253.954l-1.712,3.943c0.656,0.316 1.399,0.66 2.192,1.016l1.711,-3.942c-0.783,-0.352 -1.521,-0.695 -2.191,-1.017Z" style="fill:#685f7f;fill-rule:nonzero;"/><path d="M860.572,258.914c0.427,0.192 0.869,0.387 1.323,0.584c-0,0 -0,0 0,0c0.324,0.141 0.641,0.276 0.953,0.409c0.058,0.024 0.117,0.049 0.174,0.073c0.313,0.132 0.622,0.261 0.92,0.383l1.712,-3.944c-0.658,-0.269 -1.345,-0.56 -2.047,-0.865c-0.451,-0.195 -0.893,-0.39 -1.323,-0.583l-1.712,3.943Z" style="fill:#81789c;fill-rule:nonzero;"/><path d="M855.5,256.326c0.004,0.004 0.011,0.009 0.016,0.013c0.031,0.026 0.07,0.055 0.113,0.086c0.014,0.009 0.027,0.019 0.041,0.029c0.051,0.035 0.108,0.072 0.173,0.112c0.019,0.012 0.039,0.024 0.059,0.036c0.053,0.033 0.111,0.067 0.172,0.103c0.027,0.016 0.053,0.031 0.082,0.048c0.077,0.044 0.16,0.091 0.248,0.139c0.039,0.022 0.08,0.044 0.12,0.066c0.063,0.034 0.129,0.069 0.196,0.105c0.045,0.024 0.088,0.047 0.135,0.071c0.098,0.052 0.201,0.105 0.307,0.159c0.057,0.03 0.117,0.06 0.176,0.09c0.07,0.035 0.141,0.071 0.214,0.108c0.096,0.048 0.195,0.097 0.297,0.147c0.079,0.039 0.159,0.078 0.241,0.119c0.076,0.036 0.152,0.073 0.23,0.111c0.021,0.01 0.04,0.019 0.061,0.029l1.712,-3.943c-0.432,-0.208 -0.838,-0.407 -1.203,-0.594c-0.774,-0.394 -1.395,-0.716 -1.807,-1.045l-1.68,3.871c-0.005,0.013 0.002,0.031 0.014,0.051c0.003,0.005 0.007,0.01 0.011,0.015c0.016,0.022 0.039,0.046 0.072,0.074Z" style="fill:#524c68;fill-rule:nonzero;"/><path d="M866.106,261.217c0.578,0.217 1.081,0.395 1.49,0.528c0.015,0.004 0.029,0.009 0.043,0.013c0.112,0.036 0.216,0.068 0.313,0.097c0.027,0.008 0.051,0.015 0.077,0.022c0.079,0.023 0.151,0.042 0.218,0.059c0.028,0.007 0.054,0.014 0.08,0.02c0.057,0.013 0.107,0.023 0.152,0.031c0.022,0.004 0.046,0.008 0.066,0.011c0.041,0.006 0.072,0.007 0.102,0.007c0.012,-0 0.028,0.002 0.038,0.001c0.034,-0.004 0.056,-0.012 0.062,-0.028l1.681,-3.87c-0.521,-0.076 -1.181,-0.311 -1.998,-0.607c-0.194,-0.07 -0.401,-0.147 -0.613,-0.227l-1.711,3.943Z" style="fill:#524c68;fill-rule:nonzero;"/><path d="M857.478,251.405c-0.099,0.23 2.807,1.713 6.492,3.313c3.685,1.599 6.753,2.709 6.853,2.48c0.099,-0.23 -2.807,-1.713 -6.492,-3.313c-3.685,-1.599 -6.753,-2.709 -6.853,-2.48Z" style="fill:#685f7f;fill-rule:nonzero;"/><path d="M797.033,412.911c0.151,0.065 0.301,0.128 0.451,0.192c0.314,0.133 0.627,0.265 0.94,0.395c0.169,0.072 0.339,0.142 0.508,0.213c0.299,0.124 0.597,0.247 0.893,0.368c0.165,0.068 0.33,0.136 0.494,0.203c0.346,0.14 0.69,0.279 1.033,0.416c0.115,0.046 0.231,0.093 0.345,0.139c0.418,0.165 0.831,0.328 1.243,0.489c0.182,0.07 0.364,0.14 0.546,0.21c0.249,0.096 0.498,0.191 0.745,0.286c0.203,0.077 0.405,0.152 0.606,0.228c0.226,0.085 0.451,0.168 0.675,0.251c0.205,0.076 0.41,0.152 0.614,0.227c0.223,0.081 0.443,0.16 0.664,0.239c0.329,0.118 0.655,0.234 0.979,0.347c0.24,0.084 0.479,0.168 0.717,0.25c0.222,0.076 0.44,0.149 0.659,0.223c0.177,0.059 0.352,0.119 0.528,0.177c0.223,0.074 0.443,0.145 0.664,0.217c0.166,0.054 0.331,0.107 0.496,0.16c0.223,0.071 0.446,0.142 0.666,0.21c0.15,0.047 0.298,0.091 0.446,0.137c0.559,0.17 1.11,0.334 1.649,0.487l30.204,-71.767c-0,-0 1.489,-6.16 -3.322,-8.073c0,-0 -17.516,-6.823 -23.139,-10.044c-0,-0 -3.903,-0.329 -5.671,1.439c-1.589,1.59 -26.916,61.59 -32.018,73.701c0,0 0.001,0 0.001,0c0.532,0.322 1.081,0.644 1.643,0.968c0.028,0.016 0.055,0.031 0.082,0.048c1.114,0.64 2.287,1.285 3.508,1.93c0.07,0.038 0.14,0.074 0.211,0.112c0.608,0.32 1.227,0.64 1.858,0.96c0.012,0.005 0.023,0.011 0.035,0.017c0.591,0.299 1.196,0.598 1.806,0.897c0.122,0.06 0.243,0.119 0.365,0.178c0.63,0.306 1.268,0.611 1.917,0.916c0.029,0.013 0.059,0.026 0.088,0.04c0.606,0.284 1.222,0.566 1.843,0.848c0.164,0.073 0.327,0.147 0.491,0.221c0.655,0.293 1.315,0.587 1.984,0.878l0.082,0.035l0.082,0.036c0.465,0.202 0.928,0.4 1.389,0.596Z" style="fill:#f37a78;fill-rule:nonzero;"/><path d="M828.529,306.45c1.706,1.911 21.857,10.224 23.797,10.329c1.939,0.106 2.35,-5.415 2.35,-5.415c-3.118,-1.354 -6.977,-2.054 -22.811,-9.902c-2.9,-1.438 -5.042,3.077 -3.336,4.988Z" style="fill:#f37a78;fill-rule:nonzero;"/></g><path d="M79.493,559.761c-30.593,-86.335 -30.242,-429.566 -0,-515.901c20.097,-57.372 148.992,-53.825 181.451,-2.108c33.559,53.468 65.269,218.477 99.794,218.828c34.524,0.352 60.272,-180.6 107.352,-216.72c46.411,-35.607 156.267,-55.556 175.126,0c29.188,85.984 29.715,429.39 0,515.901c-19.406,56.497 -148.574,35.153 -178.289,3.162c-29.715,-31.99 11.391,-182.392 0,-195.106c-11.391,-12.713 -46.392,99.023 -68.346,118.827c-15.727,14.187 -47.728,14.268 -63.382,0c-21.728,-19.804 -55.293,-131.364 -66.984,-118.827c-11.691,12.538 27.958,162.062 -3.162,194.052c-31.121,31.991 -163.02,55.856 -183.56,-2.108Z" style="fill:#f5e11b;fill-rule:nonzero;stroke:#332a32;stroke-width:3.79px;"/><path d="M100.68,540.56c-23.945,-79.204 -23.945,-396.021 0,-475.225c13.859,-45.842 113.605,-47.64 143.673,-0c31.086,49.253 68.87,191.576 108.012,191.576c39.142,0 81.752,-159.647 126.837,-191.576c39.083,-27.679 129.814,-45.842 143.673,-0c23.946,79.204 23.946,396.021 0,475.225c-13.859,45.841 -119.727,41.444 -143.673,-0c-23.945,-41.444 14.621,-234.85 0,-248.664c-14.62,-13.815 -63.317,138.146 -87.723,165.776c-12.956,14.667 -45.721,14.637 -58.712,-0c-24.521,-27.63 -73.679,-179.591 -88.414,-165.776c-14.736,13.814 23.945,207.22 -0,248.664c-23.946,41.444 -129.814,45.841 -143.673,-0Z" style="fill:#e6136a;fill-rule:nonzero;"/><g><g><path d="M669.049,312.406c12.597,5.305 33.288,35.296 43.673,44.32c5.301,4.607 12.333,8.578 18.636,9.829c6.304,1.25 13.163,-4.614 19.182,-2.324c6.226,2.369 19.234,11.269 18.172,16.536c-1.061,5.267 -15.115,13.258 -24.543,15.066c-10.538,2.022 -27.101,2.812 -38.685,-2.939c-16.981,-8.43 -51.811,-36.309 -63.202,-47.643c-4.961,-4.936 -9.564,-14.932 -5.143,-20.357c4.461,-5.475 21.384,-16.922 31.91,-12.488Z" style="fill:#f5e11b;stroke:#332a32;stroke-width:2.69px;stroke-linecap:round;stroke-miterlimit:1.5;"/></g><g><g><path d="M746.9,401.21c2.22,10.892 7.321,21.537 16.222,28.467c9.202,7.164 22.42,10.51 33.49,13.384c8.402,2.182 19.213,6.711 27.495,1.925c10.301,-5.953 8.31,-16.386 2.099,-24.38c-0.174,-0.224 3.777,-2.86 4.046,-3.039c2.843,-1.89 5.653,-3.74 7.357,-6.793c1.85,-3.315 2.018,-7.128 0.684,-10.694c-0.212,-0.566 -2.799,-4.194 -2.771,-4.28c0.337,-1.036 4.238,-2.163 5.226,-2.795c4.382,-2.805 6.043,-6.895 4.787,-12.005c-3.768,-15.329 -22.258,-11.99 -33.574,-14.965c-1.335,-0.351 -3.26,-6.749 -3.871,-7.991c-2.668,-5.429 -6.164,-9.943 -12.157,-11.746c-12.774,-3.841 -24.062,9.072 -33.481,15.658c-0.677,0.473 -6.885,-13.394 -13.824,-5.641c-19.457,21.744 -17.805,53.813 -1.728,44.895Z" style="fill:#fcfbdb;stroke:#332a32;stroke-width:3.31px;stroke-linecap:round;stroke-miterlimit:1.5;"/><path d="M809.729,446.439c-4.489,-1.543 -8.782,-3.406 -13.058,-5.459c-6.465,-3.104 -13.423,-6.964 -15.928,-14.225c-0.704,-2.039 -1.018,-4.782 -0.262,-6.858c1.23,-3.377 5.598,-6.202 8.898,-7.228c4.841,-1.506 9.978,-0.681 14.828,0.353c4.009,0.853 8.014,1.762 11.873,3.176" style="fill:none;stroke:#332a32;stroke-width:3.31px;stroke-linecap:round;stroke-miterlimit:1.5;"/><path d="M798.6,411.569c-4.992,-3.705 -9.413,-10.287 -5.388,-16.402c0.738,-1.122 1.6,-2.106 2.633,-2.965c1.213,-1.01 2.624,-1.846 4.151,-2.271c4.947,-1.377 9.835,-0.55 14.707,0.59c4.365,1.022 8.542,2.301 12.755,3.82" style="fill:none;stroke:#332a32;stroke-width:3.31px;stroke-linecap:round;stroke-miterlimit:1.5;"/><path d="M804.214,388.303c-1.959,-1.387 -4.076,-3.198 -5.096,-5.419c-2.3,-5.005 -0.146,-12.348 4.541,-15.286c4.792,-3.004 7.247,-1.411 12.569,-0.708" style="fill:none;stroke:#332a32;stroke-width:3.31px;stroke-linecap:round;stroke-miterlimit:1.5;"/><path d="M799.312,384.239c-0.899,3.053 -0.246,5.481 -2.887,7.279c-1.76,1.198 -4.698,4.498 -4.844,8.341c-0.059,1.537 -1.155,2.1 -2.645,2.756c-3.094,1.363 -6.592,-2.506 -7.912,-4.808c-0.351,-0.612 -0.712,-1.224 -1.028,-1.855c-0.401,-0.799 -0.785,-1.621 -1.063,-2.472c-0.83,-2.542 -0.926,-5.138 -1.158,-7.78c-0.192,-2.2 -0.521,-4.397 -0.389,-6.611c0.314,-5.265 2.576,-10.778 6.611,-14.304" style="fill:none;stroke:#332a32;stroke-width:3.31px;stroke-linecap:round;stroke-miterlimit:1.5;"/><path d="M747.607,402.817c0.707,-4.58 2.121,-8.404 4.336,-12.466" style="fill:none;stroke:#332a32;stroke-width:3.31px;stroke-linecap:round;stroke-miterlimit:1.5;"/><path d="M757.686,375.333c1.86,-3.79 5.291,-9.652 4.267,-14.014" style="fill:none;stroke:#332a32;stroke-width:3.31px;stroke-linecap:round;stroke-miterlimit:1.5;"/></g></g></g><clipPath id="_clip1"><rect id="_46c5b518-94aa-4dfc-bc80-1086790ceeb4.eps" serif:id="46c5b518-94aa-4dfc-bc80-1086790ceeb4.eps" x="53.125" y="305.675" width="202.861" height="202.861"/></clipPath><g clip-path="url(#_clip1)"><g><g><path d="M144.049,384.355c-0.669,3.612 -1.323,7.231 -1.954,10.857c13.511,3.414 28.451,0.684 39.984,-7.26c8.432,-5.804 14.038,-14.027 18.895,-22.812c-0.596,-2.648 -1.34,-5.256 -2.221,-7.798c-5.558,-16.035 -15.92,-29.911 -26.633,-43.072c-2.008,-2.47 -4.631,-5.177 -7.558,-8.074c-0.448,-0.045 -0.897,-0.083 -1.346,-0.122c-3.459,8.995 -6.417,18.179 -8.751,27.676c-4.113,16.726 -7.276,33.673 -10.416,50.605Z" style="fill:#f27c10;fill-rule:nonzero;"/><path d="M128.074,437.237c-1.469,-0.19 -2.939,-0.387 -4.408,-0.603c-24.209,-3.596 -48.569,-11.071 -70.328,-22.901c1.071,16.697 6.188,32.29 14.377,45.816c4.067,-3.992 8.69,-7.421 13.655,-10.074c14.291,-7.65 30.526,-9.957 46.704,-12.238Z" style="fill:#f27c10;fill-rule:nonzero;"/><path d="M131.968,391.312c1.194,0.639 2.418,1.209 3.657,1.734c0.935,-5.46 1.924,-10.904 2.935,-16.324c3.284,-17.563 6.386,-35.225 11.359,-52.408c1.809,-6.242 3.809,-12.507 6.204,-18.597c-0.525,-0.007 -1.057,-0.015 -1.582,-0.015c-18.27,-0 -35.407,4.828 -50.21,13.282c1.855,9.588 1.46,20.179 1.771,29.074c0.647,18.187 9.535,34.51 25.866,43.254Z" style="fill:#f27c10;fill-rule:nonzero;"/><path d="M130.539,431.95c0.836,-10.849 2.281,-21.676 4.006,-32.442c-3.345,-1.262 -6.584,-2.874 -9.648,-4.851c-14.567,-9.412 -23.927,-25.105 -25.538,-42.318c-0.806,-8.546 0.19,-19.593 -1.301,-29.462c-27.104,18.202 -44.933,49.138 -44.933,84.242c-0,0.251 -0,0.509 0.007,0.76c9.048,4.66 18.331,8.857 27.911,12.362c16.095,5.885 32.716,9.77 49.496,11.709Z" style="fill:#f27c10;fill-rule:nonzero;"/><path d="M195.507,406.465c6.124,-9.822 7.987,-21.64 6.79,-33.25c-6.798,11.019 -15.335,20.387 -28.064,25.578c-10.568,4.304 -22.254,5.246 -33.187,2.692c-1.68,10.324 -3.072,20.703 -3.885,31.134c4.613,0.391 9.234,0.627 13.855,0.726c17.693,-4.088 35.05,-11.749 44.491,-26.88Z" style="fill:#f27c10;fill-rule:nonzero;"/><path d="M208.88,361.189c-2.05,4.139 -4.212,8.182 -6.583,12.026c1.197,11.61 -0.666,23.428 -6.79,33.25c-9.441,15.131 -26.798,22.792 -44.491,26.88c36.214,0.772 72.43,-7.388 104.915,-24.034c0.015,-0.729 0.027,-1.459 0.027,-2.192c-0,-0.861 -0.012,-1.719 -0.034,-2.575c-0.006,-0.283 -0.02,-0.565 -0.029,-0.847c-0.019,-0.572 -0.039,-1.143 -0.067,-1.712c-0.017,-0.338 -0.04,-0.673 -0.06,-1.01c-0.031,-0.511 -0.062,-1.022 -0.1,-1.531c-0.027,-0.36 -0.059,-0.719 -0.09,-1.077c-0.041,-0.484 -0.083,-0.968 -0.131,-1.45c-0.037,-0.368 -0.078,-0.736 -0.119,-1.104c-0.052,-0.468 -0.105,-0.937 -0.164,-1.404c-0.046,-0.373 -0.096,-0.745 -0.147,-1.116c-0.063,-0.46 -0.128,-0.919 -0.197,-1.377c-0.056,-0.373 -0.113,-0.745 -0.173,-1.116c-0.074,-0.455 -0.152,-0.908 -0.231,-1.36c-0.065,-0.37 -0.131,-0.74 -0.199,-1.108c-0.086,-0.454 -0.175,-0.906 -0.266,-1.357c-0.073,-0.363 -0.145,-0.725 -0.222,-1.086c-0.097,-0.459 -0.201,-0.916 -0.306,-1.372c-0.08,-0.35 -0.157,-0.701 -0.24,-1.049c-0.114,-0.478 -0.236,-0.952 -0.356,-1.427c-0.083,-0.323 -0.162,-0.648 -0.246,-0.97c-0.15,-0.563 -0.308,-1.122 -0.467,-1.682c-0.065,-0.23 -0.125,-0.461 -0.192,-0.69c-0.225,-0.773 -0.46,-1.541 -0.702,-2.306c-0.1,-0.312 -0.207,-0.623 -0.309,-0.934c-0.151,-0.462 -0.302,-0.926 -0.46,-1.385c-0.121,-0.348 -0.247,-0.694 -0.37,-1.04c-0.15,-0.419 -0.299,-0.839 -0.454,-1.255c-0.133,-0.36 -0.272,-0.717 -0.41,-1.074c-0.153,-0.399 -0.306,-0.798 -0.465,-1.195c-0.145,-0.362 -0.294,-0.723 -0.444,-1.084c-0.16,-0.388 -0.32,-0.775 -0.485,-1.16c-0.155,-0.362 -0.313,-0.721 -0.471,-1.081c-0.168,-0.38 -0.338,-0.759 -0.511,-1.137c-0.163,-0.359 -0.329,-0.717 -0.497,-1.072c-0.176,-0.374 -0.355,-0.747 -0.535,-1.119c-0.173,-0.354 -0.346,-0.708 -0.521,-1.059c-0.185,-0.371 -0.374,-0.738 -0.564,-1.106c-0.18,-0.348 -0.359,-0.696 -0.542,-1.042c-0.196,-0.369 -0.396,-0.735 -0.597,-1.101c-0.185,-0.338 -0.368,-0.678 -0.557,-1.014c-0.211,-0.376 -0.428,-0.748 -0.644,-1.12c-0.185,-0.321 -0.368,-0.644 -0.558,-0.963c-0.243,-0.41 -0.493,-0.815 -0.742,-1.221c-0.169,-0.277 -0.334,-0.555 -0.506,-0.83c-0.415,-0.662 -0.837,-1.32 -1.266,-1.972c-0.175,-0.267 -0.357,-0.53 -0.536,-0.795c-0.269,-0.399 -0.535,-0.799 -0.808,-1.194c-0.204,-0.294 -0.413,-0.583 -0.62,-0.875c-0.255,-0.361 -0.51,-0.723 -0.772,-1.081c-0.216,-0.297 -0.437,-0.592 -0.657,-0.886c-0.258,-0.347 -0.517,-0.694 -0.779,-1.039c-0.226,-0.294 -0.454,-0.585 -0.683,-0.877c-0.264,-0.339 -0.531,-0.677 -0.799,-1.012c-0.233,-0.289 -0.468,-0.577 -0.703,-0.864c-0.275,-0.333 -0.549,-0.664 -0.826,-0.993c-0.237,-0.281 -0.476,-0.561 -0.716,-0.84c-0.284,-0.33 -0.572,-0.658 -0.86,-0.985c-0.24,-0.271 -0.479,-0.541 -0.721,-0.81c-0.3,-0.331 -0.603,-0.659 -0.906,-0.987c-0.237,-0.256 -0.476,-0.514 -0.717,-0.768c-0.319,-0.337 -0.642,-0.67 -0.965,-1.002c-0.233,-0.239 -0.464,-0.479 -0.697,-0.716c-0.352,-0.353 -0.709,-0.702 -1.063,-1.051c-0.176,-0.171 -0.349,-0.344 -0.526,-0.514c-6.666,8.051 -11.615,18.048 -16.078,27.049Z" style="fill:#f27c10;fill-rule:nonzero;"/><path d="M228.458,427.023c-29.423,10.074 -60.748,13.877 -91.67,11.162c-0.045,0.784 -0.091,1.573 -0.129,2.357c-0.251,5.139 -0.335,10.294 -0.236,15.449c1.597,0.121 3.194,0.311 4.798,0.585c17.069,2.896 32.412,14.263 40.166,29.728c2.334,4.652 4.393,10.573 6.781,16.516c0.101,-0.036 0.202,-0.071 0.303,-0.107c2.12,-0.753 4.207,-1.573 6.259,-2.458c0.18,-0.078 0.359,-0.158 0.538,-0.236c0.991,-0.434 1.974,-0.882 2.947,-1.347l0.087,-0.04c1.016,-0.487 2.021,-0.993 3.018,-1.512c0.165,-0.086 0.329,-0.174 0.493,-0.26c0.919,-0.486 1.831,-0.983 2.733,-1.495c0.071,-0.039 0.141,-0.079 0.212,-0.118c0.97,-0.555 1.93,-1.125 2.881,-1.711c0.148,-0.091 0.294,-0.185 0.442,-0.277c0.86,-0.536 1.711,-1.082 2.554,-1.643c0.097,-0.064 0.197,-0.128 0.295,-0.193c0.922,-0.618 1.833,-1.252 2.734,-1.899c0.131,-0.094 0.259,-0.19 0.39,-0.285c0.806,-0.584 1.603,-1.182 2.391,-1.79c0.117,-0.09 0.236,-0.178 0.353,-0.269c0.871,-0.68 1.731,-1.372 2.58,-2.079c0.109,-0.091 0.218,-0.184 0.329,-0.277c0.758,-0.637 1.508,-1.286 2.247,-1.944c0.127,-0.114 0.257,-0.227 0.383,-0.341c0.819,-0.737 1.628,-1.486 2.422,-2.249c0.086,-0.082 0.171,-0.166 0.257,-0.25c0.716,-0.693 1.422,-1.396 2.118,-2.11c0.132,-0.136 0.265,-0.271 0.397,-0.406c0.764,-0.794 1.519,-1.596 2.257,-2.413c0.058,-0.065 0.114,-0.13 0.172,-0.193c0.68,-0.756 1.347,-1.525 2.004,-2.301c0.131,-0.154 0.261,-0.308 0.391,-0.463c0.709,-0.846 1.407,-1.702 2.089,-2.573l0.066,-0.089c0.65,-0.831 1.284,-1.674 1.909,-2.527c0.124,-0.17 0.249,-0.341 0.372,-0.511c1.286,-1.779 2.513,-3.601 3.683,-5.463c0.115,-0.182 0.229,-0.365 0.343,-0.549c1.157,-1.868 2.255,-3.776 3.292,-5.723c0.102,-0.191 0.202,-0.384 0.303,-0.576c1.026,-1.955 1.988,-3.946 2.886,-5.972c0.089,-0.197 0.175,-0.396 0.261,-0.595c0.417,-0.958 0.824,-1.922 1.212,-2.895c0.023,-0.061 0.049,-0.12 0.073,-0.18c0.411,-1.037 0.802,-2.083 1.18,-3.135c0.072,-0.2 0.141,-0.401 0.212,-0.602c0.337,-0.957 0.661,-1.92 0.968,-2.89c0.035,-0.107 0.072,-0.215 0.106,-0.324c0.335,-1.068 0.652,-2.144 0.952,-3.226c0.055,-0.197 0.107,-0.394 0.16,-0.592c0.261,-0.963 0.51,-1.933 0.743,-2.907c0.036,-0.15 0.074,-0.299 0.11,-0.449c0.257,-1.094 0.495,-2.196 0.715,-3.303c0.039,-0.193 0.075,-0.388 0.112,-0.58c0.188,-0.975 0.363,-1.954 0.523,-2.939c0.031,-0.184 0.063,-0.367 0.092,-0.552c0.176,-1.12 0.333,-2.245 0.473,-3.377c0.023,-0.181 0.041,-0.364 0.063,-0.545c0.116,-0.992 0.218,-1.988 0.306,-2.989c0.012,-0.136 0.024,-0.272 0.036,-0.408c-8.78,4.362 -17.848,8.155 -27.137,11.34Z" style="fill:#f27c10;fill-rule:nonzero;"/><path d="M172.12,314.27c10.713,13.161 21.075,27.037 26.633,43.072c0.881,2.542 1.625,5.15 2.221,7.798c4.191,-7.581 7.827,-15.58 12.239,-22.807c2.362,-3.864 5.134,-7.767 8.299,-11.345c-0.398,-0.35 -0.789,-0.71 -1.192,-1.054c-0.114,-0.097 -0.225,-0.194 -0.339,-0.29c-0.372,-0.315 -0.747,-0.625 -1.124,-0.934c-0.163,-0.134 -0.327,-0.269 -0.491,-0.402c-0.363,-0.293 -0.725,-0.584 -1.092,-0.872c-0.179,-0.142 -0.36,-0.283 -0.541,-0.423c-0.365,-0.284 -0.73,-0.566 -1.099,-0.845c-0.173,-0.131 -0.349,-0.26 -0.523,-0.39c-0.383,-0.286 -0.766,-0.572 -1.153,-0.852l-0.114,-0.081c-0.851,-0.615 -1.714,-1.214 -2.584,-1.803c-0.191,-0.129 -0.38,-0.259 -0.571,-0.387c-0.344,-0.229 -0.691,-0.453 -1.038,-0.678c-0.249,-0.161 -0.498,-0.324 -0.749,-0.483c-0.332,-0.212 -0.666,-0.421 -1.002,-0.628c-0.27,-0.167 -0.541,-0.334 -0.811,-0.498c-0.329,-0.2 -0.659,-0.399 -0.989,-0.594c-0.286,-0.169 -0.573,-0.335 -0.86,-0.501c-0.323,-0.187 -0.645,-0.374 -0.97,-0.557c-0.32,-0.18 -0.64,-0.355 -0.962,-0.532c-0.298,-0.164 -0.595,-0.33 -0.895,-0.491c-0.591,-0.317 -1.184,-0.627 -1.782,-0.933c-0.278,-0.142 -0.558,-0.279 -0.838,-0.419c-0.362,-0.181 -0.724,-0.361 -1.088,-0.538c-0.296,-0.143 -0.594,-0.283 -0.892,-0.424c-0.353,-0.167 -0.708,-0.334 -1.066,-0.497c-0.298,-0.137 -0.597,-0.272 -0.897,-0.406c-0.366,-0.164 -0.734,-0.325 -1.103,-0.484c-0.291,-0.126 -0.582,-0.252 -0.874,-0.375c-0.401,-0.169 -0.806,-0.334 -1.21,-0.498c-0.261,-0.106 -0.521,-0.214 -0.784,-0.318c-0.611,-0.242 -1.224,-0.478 -1.84,-0.708c-0.171,-0.064 -0.344,-0.126 -0.516,-0.19c-0.551,-0.202 -1.103,-0.401 -1.658,-0.594c-0.255,-0.089 -0.512,-0.174 -0.769,-0.26c-0.433,-0.147 -0.866,-0.293 -1.302,-0.434c-0.282,-0.09 -0.564,-0.179 -0.846,-0.267c-0.419,-0.132 -0.839,-0.261 -1.261,-0.388c-0.284,-0.084 -0.57,-0.169 -0.857,-0.252c-0.434,-0.127 -0.87,-0.248 -1.306,-0.368c-0.27,-0.074 -0.54,-0.151 -0.811,-0.223c-0.513,-0.136 -1.029,-0.267 -1.546,-0.396c-0.193,-0.048 -0.386,-0.099 -0.58,-0.147c-0.705,-0.171 -1.413,-0.335 -2.123,-0.492c-0.202,-0.043 -0.404,-0.084 -0.606,-0.127c-0.518,-0.111 -1.037,-0.22 -1.559,-0.323c-0.272,-0.053 -0.546,-0.103 -0.819,-0.155c-0.458,-0.087 -0.917,-0.171 -1.377,-0.251c-0.288,-0.051 -0.577,-0.1 -0.866,-0.148c-0.457,-0.075 -0.915,-0.147 -1.374,-0.216c-0.283,-0.043 -0.566,-0.086 -0.85,-0.127c-0.495,-0.071 -0.992,-0.136 -1.49,-0.2c-0.244,-0.031 -0.487,-0.064 -0.731,-0.093c-0.741,-0.09 -1.484,-0.173 -2.23,-0.246c2.927,2.897 5.55,5.604 7.558,8.074Z" style="fill:#f27c10;fill-rule:nonzero;"/><path d="M95.185,470.764c9.534,-8.926 21.813,-14.219 34.609,-14.857c-0.122,-6.136 0.023,-12.271 0.372,-18.406c-0.697,-0.083 -1.395,-0.175 -2.092,-0.264c-16.178,2.281 -32.413,4.588 -46.704,12.238c-4.965,2.653 -9.588,6.082 -13.655,10.074c0.603,0.997 1.227,1.983 1.864,2.958c0.162,0.247 0.331,0.49 0.494,0.736c0.481,0.721 0.967,1.44 1.465,2.149c0.211,0.3 0.428,0.596 0.642,0.893c0.464,0.644 0.932,1.285 1.411,1.918c0.24,0.319 0.485,0.635 0.729,0.951c0.466,0.601 0.938,1.197 1.417,1.788c0.262,0.323 0.524,0.646 0.79,0.966c0.478,0.574 0.964,1.142 1.454,1.706c0.276,0.316 0.549,0.637 0.829,0.949c0.503,0.565 1.017,1.12 1.532,1.674c0.276,0.296 0.548,0.598 0.828,0.892c0.588,0.615 1.188,1.219 1.79,1.82c0.315,0.314 0.63,0.629 0.95,0.939c0.688,0.669 1.383,1.331 2.091,1.98c0.066,0.061 0.135,0.119 0.201,0.179c2.356,-4.043 5.297,-7.826 8.983,-11.283Z" style="fill:#f27c10;fill-rule:nonzero;"/><path d="M132.972,486.867c-1.589,-8.181 -2.525,-16.392 -2.95,-24.619c-15.07,0.684 -29.607,8.775 -38.114,21.296c-0.494,0.729 -0.964,1.465 -1.412,2.209l0.124,0.103c0.457,0.372 0.923,0.732 1.387,1.096c0.391,0.306 0.779,0.62 1.175,0.921c0.409,0.311 0.826,0.611 1.24,0.915c0.46,0.34 0.917,0.684 1.383,1.016c0.34,0.242 0.686,0.473 1.028,0.71c0.55,0.381 1.097,0.766 1.654,1.137c0.211,0.139 0.427,0.271 0.639,0.41c4.14,2.706 8.488,5.119 13.018,7.207c0.159,0.073 0.314,0.151 0.473,0.224c0.708,0.322 1.425,0.627 2.142,0.933c0.291,0.125 0.578,0.255 0.87,0.377c0.642,0.267 1.292,0.516 1.94,0.771c0.375,0.148 0.747,0.3 1.124,0.444c0.595,0.224 1.197,0.434 1.797,0.648c0.44,0.157 0.877,0.319 1.319,0.471c0.555,0.188 1.117,0.364 1.676,0.543c0.496,0.16 0.99,0.324 1.49,0.477c0.518,0.157 1.043,0.301 1.564,0.451c0.55,0.157 1.097,0.319 1.65,0.467c0.483,0.13 0.97,0.247 1.455,0.37c0.602,0.152 1.203,0.306 1.808,0.447c0.445,0.104 0.895,0.196 1.342,0.295c0.654,0.142 1.308,0.285 1.966,0.416c0.409,0.081 0.821,0.151 1.231,0.227c0.705,0.131 1.411,0.26 2.121,0.377c0.085,0.012 0.171,0.024 0.256,0.038c-2.288,-6.705 -4.066,-13.559 -5.396,-20.377Z" style="fill:#f27c10;fill-rule:nonzero;"/><path d="M177.001,493.413c-7.2,-16.772 -21.866,-29.112 -40.357,-30.983c0.494,9.756 1.711,19.472 3.87,29.014c1.307,5.745 2.963,11.301 4.977,16.68c0.484,0.044 0.968,0.086 1.453,0.121c0.415,0.032 0.83,0.063 1.246,0.088c0.818,0.05 1.639,0.093 2.463,0.123c0.294,0.011 0.588,0.021 0.883,0.03c0.999,0.029 1.999,0.05 3.005,0.05c1.051,-0 2.096,-0.022 3.139,-0.053c0.312,-0.01 0.623,-0.024 0.935,-0.036c0.767,-0.03 1.531,-0.069 2.293,-0.116c0.31,-0.019 0.62,-0.037 0.929,-0.059c1.026,-0.073 2.049,-0.157 3.066,-0.259l0.07,-0.008c1.001,-0.102 1.997,-0.224 2.99,-0.355c0.308,-0.041 0.614,-0.086 0.921,-0.129c0.743,-0.105 1.483,-0.218 2.22,-0.338c0.3,-0.05 0.6,-0.098 0.899,-0.15c1,-0.173 1.995,-0.357 2.985,-0.559l0.029,-0.007c0.983,-0.202 1.96,-0.421 2.932,-0.652c0.285,-0.066 0.569,-0.137 0.853,-0.207c0.733,-0.18 1.463,-0.368 2.189,-0.564c0.175,-0.048 0.349,-0.094 0.523,-0.141c-1.489,-3.838 -2.895,-7.72 -4.513,-11.49Z" style="fill:#f27c10;fill-rule:nonzero;"/></g><path d="M151.016,433.345c-4.621,-0.099 -9.242,-0.335 -13.855,-0.726c0.813,-10.431 2.205,-20.81 3.885,-31.134c10.933,2.554 22.619,1.612 33.187,-2.692c12.729,-5.191 21.266,-14.559 28.064,-25.578c2.371,-3.844 4.533,-7.887 6.583,-12.026c4.463,-9.001 9.412,-18.998 16.078,-27.049l0.003,-0.003l-0.121,-0.113c-0.325,-0.314 -0.657,-0.623 -0.989,-0.932c-0.224,-0.211 -0.447,-0.424 -0.674,-0.633c-0.546,-0.501 -1.096,-0.996 -1.653,-1.485c-0.004,0.005 -0.008,0.01 -0.012,0.014c-3.165,3.578 -5.937,7.481 -8.299,11.345c-4.412,7.227 -8.048,15.226 -12.239,22.807c-4.857,8.785 -10.463,17.008 -18.895,22.812c-11.533,7.944 -26.473,10.674 -39.984,7.26c0.631,-3.626 1.285,-7.245 1.954,-10.857c3.14,-16.932 6.303,-33.879 10.416,-50.605c2.334,-9.497 5.292,-18.681 8.751,-27.676c-2.341,-0.205 -4.706,-0.326 -7.093,-0.357c-2.395,6.09 -4.395,12.355 -6.204,18.597c-4.973,17.183 -8.075,34.845 -11.359,52.408c-1.011,5.42 -2,10.864 -2.935,16.324c-1.239,-0.525 -2.463,-1.095 -3.657,-1.734c-16.331,-8.744 -25.219,-25.067 -25.866,-43.254c-0.311,-8.895 0.084,-19.486 -1.771,-29.074c-2.144,1.225 -4.235,2.525 -6.273,3.893c1.491,9.869 0.495,20.916 1.301,29.462c1.611,17.213 10.971,32.906 25.538,42.318c3.064,1.977 6.303,3.589 9.648,4.851c-1.725,10.766 -3.17,21.593 -4.006,32.442c-16.78,-1.939 -33.401,-5.824 -49.496,-11.709c-9.58,-3.505 -18.863,-7.702 -27.911,-12.362c0.008,1.969 0.084,3.916 0.206,5.854c21.759,11.83 46.119,19.305 70.328,22.901c1.469,0.216 2.939,0.413 4.408,0.603c0.697,0.089 1.395,0.181 2.092,0.264c-0.349,6.135 -0.494,12.27 -0.372,18.406c-12.796,0.638 -25.075,5.931 -34.609,14.857c-3.686,3.457 -6.627,7.24 -8.983,11.283l-0.004,0.007c0.677,0.615 1.363,1.222 2.056,1.821l0.058,0.052c0.718,0.619 1.445,1.23 2.181,1.83l0.003,-0.004c0.448,-0.744 0.918,-1.48 1.412,-2.209c8.507,-12.521 23.044,-20.612 38.114,-21.296c0.425,8.227 1.361,16.438 2.95,24.619c1.33,6.818 3.108,13.672 5.396,20.377l0.002,0.006c0.294,0.048 0.592,0.082 0.887,0.127c0.738,0.113 1.476,0.222 2.219,0.318c0.456,0.058 0.915,0.108 1.373,0.16c0.761,0.087 1.523,0.172 2.291,0.24c0.118,0.01 0.235,0.027 0.354,0.037l-0.003,-0.008c-2.014,-5.379 -3.67,-10.935 -4.977,-16.68c-2.159,-9.542 -3.376,-19.258 -3.87,-29.014c18.491,1.871 33.157,14.211 40.357,30.983c1.618,3.77 3.024,7.652 4.513,11.49l0.003,0.006c0.097,-0.027 0.191,-0.059 0.288,-0.086c2.05,-0.574 4.076,-1.206 6.07,-1.9c0.098,-0.033 0.198,-0.063 0.295,-0.098l-0.002,-0.005c-2.388,-5.943 -4.447,-11.864 -6.781,-16.516c-7.754,-15.465 -23.097,-26.832 -40.166,-29.728c-1.604,-0.274 -3.201,-0.464 -4.798,-0.585c-0.099,-5.155 -0.015,-10.31 0.236,-15.449c0.038,-0.784 0.084,-1.573 0.129,-2.357c30.922,2.715 62.247,-1.088 91.67,-11.162c9.289,-3.185 18.357,-6.978 27.137,-11.34l0.005,-0.003c0.008,-0.089 0.012,-0.181 0.019,-0.27c0.071,-0.875 0.131,-1.753 0.18,-2.635c0.005,-0.105 0.014,-0.209 0.019,-0.314c0.051,-0.98 0.087,-1.963 0.11,-2.951c0.001,-0.068 0.005,-0.134 0.008,-0.202l-0.005,0.003c-32.485,16.646 -68.701,24.806 -104.915,24.034Z" style="fill:#0c1014;fill-rule:nonzero;"/><path d="M235.958,395.711c1.242,0 2.434,-1.093 2.376,-2.376c-0.057,-1.287 -1.044,-2.376 -2.376,-2.376c-1.243,0 -2.433,1.093 -2.375,2.376c0.057,1.288 1.043,2.376 2.375,2.376Z" style="fill:#bf3e26;fill-rule:nonzero;"/><path d="M222.194,375.359c-0.496,0.497 -0.82,1.391 -0.55,2.081c0.026,0.067 0.051,0.133 0.078,0.2c0.254,0.633 0.582,0.962 1.215,1.215c0.778,0.311 1.684,0.124 2.281,-0.472c1.138,-1.137 0.608,-3.147 -0.944,-3.574c-0.736,-0.202 -1.541,0.011 -2.08,0.55Z" style="fill:#bf3e26;fill-rule:nonzero;"/><path d="M212.602,404.693c-2.63,-0 -2.634,4.087 -0,4.087c2.63,-0 2.633,-4.087 -0,-4.087Z" style="fill:#bf3e26;fill-rule:nonzero;"/><path d="M183.886,362.332c1.006,-0 1.971,-0.886 1.924,-1.925c-0.047,-1.042 -0.845,-1.925 -1.924,-1.925c-1.007,0 -1.972,0.886 -1.925,1.925c0.046,1.043 0.846,1.925 1.925,1.925Z" style="fill:#bf3e26;fill-rule:nonzero;"/><path d="M172.399,346.681c2.538,-0 2.542,-3.944 0,-3.944c-2.538,-0 -2.542,3.944 0,3.944Z" style="fill:#bf3e26;fill-rule:nonzero;"/><path d="M165.124,371.209c1.044,0 2.044,-0.917 1.996,-1.996c-0.048,-1.08 -0.877,-1.995 -1.996,-1.995c-1.044,-0 -2.044,0.918 -1.995,1.995c0.048,1.082 0.876,1.996 1.995,1.996Z" style="fill:#bf3e26;fill-rule:nonzero;"/><path d="M127.878,359.29c0.665,-0.281 0.985,-0.864 1.052,-1.563c0.039,-0.42 -0.019,-0.786 -0.177,-1.176c-0.186,-0.459 -0.396,-0.833 -0.841,-1.093c-0.392,-0.229 -0.97,-0.327 -1.409,-0.184c-0.952,0.308 -1.54,1.259 -1.278,2.25c0.072,0.275 0.132,0.541 0.279,0.794c0.128,0.217 0.331,0.428 0.505,0.619c0.46,0.505 1.267,0.607 1.869,0.353Z" style="fill:#bf3e26;fill-rule:nonzero;"/><path d="M127.219,341.321c1.031,-0 2.02,-0.908 1.972,-1.973c-0.048,-1.068 -0.867,-1.971 -1.972,-1.971c-1.032,-0 -2.02,0.907 -1.972,1.971c0.047,1.069 0.866,1.973 1.972,1.973Z" style="fill:#bf3e26;fill-rule:nonzero;"/><path d="M93.142,397.97c-2.905,-0 -2.91,4.514 -0,4.514c2.905,0 2.909,-4.514 -0,-4.514Z" style="fill:#bf3e26;fill-rule:nonzero;"/><path d="M112.669,413.516c1.691,0 2.679,-1.846 1.888,-3.289l-0.054,-0.096c-0.758,-1.382 -2.91,-1.382 -3.668,0l-0.053,0.096c-0.792,1.443 0.196,3.289 1.887,3.289Z" style="fill:#bf3e26;fill-rule:nonzero;"/><path d="M106.16,393.227c0.945,-0 1.85,-0.831 1.806,-1.806c-0.044,-0.978 -0.793,-1.806 -1.806,-1.806c-0.945,0 -1.849,0.831 -1.805,1.806c0.043,0.978 0.793,1.806 1.805,1.806Z" style="fill:#bf3e26;fill-rule:nonzero;"/><path d="M158.091,417.648l-0.107,-0.072c-0.498,-0.333 -1.303,-0.333 -1.8,0l-0.108,0.072c-0.741,0.496 -1.163,1.358 -0.917,2.254c0.224,0.814 1.055,1.504 1.925,1.465c0.805,-0.036 1.507,-0.477 1.823,-1.227c0.401,-0.949 0.021,-1.932 -0.816,-2.492Z" style="fill:#bf3e26;fill-rule:nonzero;"/><path d="M176.228,409.261c-0.882,-0 -1.728,0.776 -1.687,1.687c0.041,0.914 0.741,1.687 1.687,1.687c0.882,-0 1.728,-0.776 1.687,-1.687c-0.041,-0.914 -0.741,-1.687 -1.687,-1.687Z" style="fill:#bf3e26;fill-rule:nonzero;"/><path d="M200.733,341.822c2.691,0 2.695,-4.181 -0,-4.181c-2.691,-0 -2.695,4.181 -0,4.181Z" style="fill:#bf3e26;fill-rule:nonzero;"/><path d="M190.426,325.374c1.094,-0 2.141,-0.962 2.091,-2.09c-0.051,-1.134 -0.919,-2.091 -2.091,-2.091c-1.094,-0 -2.142,0.961 -2.091,2.091c0.05,1.132 0.919,2.09 2.091,2.09Z" style="fill:#bf3e26;fill-rule:nonzero;"/><path d="M227.288,356.628c0.393,0.603 1.107,0.94 1.825,0.742c0.658,-0.181 1.217,-0.854 1.186,-1.557c-0.029,-0.652 -0.387,-1.221 -0.994,-1.477c-0.761,-0.321 -1.572,-0.021 -2.017,0.661l-0.071,0.108c-0.26,0.399 -0.26,1.016 0,1.415l0.071,0.108Z" style="fill:#bf3e26;fill-rule:nonzero;"/><path d="M228.622,455.423c-0.197,-0.14 -0.449,-0.215 -0.673,-0.306c-0.659,-0.272 -1.536,0.057 -2.009,0.53c-0.526,0.526 -0.719,1.294 -0.531,2.01c0.062,0.235 0.173,0.476 0.287,0.693c0.651,1.226 2.417,1.372 3.359,0.432c0.387,-0.387 0.625,-0.964 0.625,-1.512c0,-0.805 -0.428,-1.399 -1.058,-1.847Z" style="fill:#bf3e26;fill-rule:nonzero;"/><path d="M218.824,439.393c-0.476,-0.201 -1.053,-0.284 -1.559,-0.126c-0.746,0.072 -1.459,0.586 -1.825,1.211c-0.401,0.684 -0.517,1.808 0,2.48c0.144,0.186 0.267,0.389 0.435,0.555c0.323,0.317 0.715,0.52 1.142,0.648c0.66,0.199 1.437,0.071 2.03,-0.269c0.57,-0.328 1.021,-0.891 1.199,-1.526c0.197,-0.705 0.047,-1.348 -0.263,-1.983c-0.225,-0.46 -0.704,-0.799 -1.159,-0.99Z" style="fill:#bf3e26;fill-rule:nonzero;"/><path d="M196.138,458.325c-3.577,0 -3.584,5.561 0,5.561c3.577,-0 3.584,-5.561 0,-5.561Z" style="fill:#bf3e26;fill-rule:nonzero;"/><path d="M207.567,474.938c-0.058,-0.04 -0.115,-0.08 -0.173,-0.12c-0.742,-0.508 -1.972,-0.321 -2.572,0.332c-0.249,0.271 -0.433,0.586 -0.546,0.937c-0.154,0.474 -0.072,1.219 0.214,1.635l0.119,0.173c0.426,0.619 1.073,1.106 1.867,1.072c0.573,-0.026 1.115,-0.22 1.529,-0.634c0.392,-0.392 0.633,-0.975 0.633,-1.53c0,-0.804 -0.429,-1.425 -1.071,-1.865Z" style="fill:#bf3e26;fill-rule:nonzero;"/><path d="M172.016,448.08c-2.965,-0 -2.97,4.609 0,4.609c2.966,0 2.971,-4.609 0,-4.609Z" style="fill:#bf3e26;fill-rule:nonzero;"/><path d="M164.953,493.217c-0.22,0.038 -0.449,0.063 -0.665,0.118c-0.358,0.091 -0.641,0.27 -0.933,0.48c-0.655,0.473 -1.049,1.116 -0.936,1.953c0.104,0.77 0.649,1.414 1.405,1.632c0.53,0.152 0.974,0.197 1.538,0.112c0.248,-0.038 0.494,-0.083 0.741,-0.125c0.504,-0.089 1.043,-0.569 1.292,-0.995c0.271,-0.462 0.386,-1.145 0.218,-1.666c-0.389,-1.202 -1.463,-1.718 -2.66,-1.509Z" style="fill:#bf3e26;fill-rule:nonzero;"/><path d="M149.426,495.145c-0.82,0 -1.606,0.722 -1.568,1.569c0.038,0.85 0.689,1.569 1.568,1.569c0.82,-0 1.606,-0.722 1.568,-1.569c-0.038,-0.85 -0.689,-1.569 -1.568,-1.569Z" style="fill:#bf3e26;fill-rule:nonzero;"/><path d="M150.575,473.734c-1.206,0 -2.361,1.06 -2.305,2.304c0.056,1.25 1.013,2.304 2.305,2.304c1.205,0 2.36,-1.059 2.304,-2.304c-0.056,-1.248 -1.012,-2.304 -2.304,-2.304Z" style="fill:#bf3e26;fill-rule:nonzero;"/><path d="M120.353,477.64c0.012,-0.061 0.024,-0.124 0.036,-0.186c0.171,-0.875 0.024,-1.727 -0.629,-2.381c-0.653,-0.652 -1.505,-0.799 -2.381,-0.629c-0.062,0.013 -0.124,0.024 -0.185,0.037c-0.86,0.167 -1.571,0.981 -1.794,1.793c-0.244,0.884 0.012,1.852 0.66,2.5c0.648,0.647 1.615,0.904 2.499,0.66c0.812,-0.224 1.627,-0.935 1.794,-1.794Z" style="fill:#bf3e26;fill-rule:nonzero;"/><path d="M108.36,483.599c-1.799,-0.496 -3.506,1.211 -3.01,3.01c0.226,0.823 0.886,1.483 1.709,1.71c0.434,0.115 0.867,0.115 1.301,-0c0.415,-0.117 0.775,-0.327 1.08,-0.631c0.495,-0.383 0.673,-0.958 0.709,-1.563c0.069,-1.147 -0.672,-2.22 -1.789,-2.526Z" style="fill:#bf3e26;fill-rule:nonzero;"/><path d="M121.858,490.892c-1.243,0 -2.433,1.093 -2.376,2.376c0.058,1.288 1.044,2.376 2.376,2.376c1.243,-0 2.434,-1.093 2.376,-2.376c-0.057,-1.287 -1.044,-2.376 -2.376,-2.376Z" style="fill:#bf3e26;fill-rule:nonzero;"/><path d="M108.333,453.625c0.453,0.292 1.319,0.445 1.834,0.24c0.57,-0.227 0.972,-0.416 1.367,-0.927c0.35,-0.454 0.564,-0.994 0.557,-1.58c-0.008,-0.643 -0.269,-1.293 -0.72,-1.754c-0.499,-0.509 -1.1,-0.673 -1.78,-0.736c-0.209,0.028 -0.417,0.056 -0.626,0.085c-0.306,0.073 -0.573,0.212 -0.8,0.42c-0.388,0.3 -0.73,0.729 -0.843,1.221c-0.022,0.096 -0.032,0.191 -0.043,0.286c-0.036,0.117 -0.065,0.24 -0.083,0.373c-0.068,0.507 -0.003,1.074 0.283,1.517c0.222,0.345 0.51,0.632 0.854,0.855Z" style="fill:#bf3e26;fill-rule:nonzero;"/><path d="M88.547,464.559c1.206,-0 2.361,-1.06 2.305,-2.304c-0.056,-1.249 -1.013,-2.305 -2.305,-2.305c-1.205,0 -2.36,1.059 -2.304,2.305c0.056,1.248 1.013,2.304 2.304,2.304Z" style="fill:#bf3e26;fill-rule:nonzero;"/><path d="M84.311,437.992c1.124,-0.657 1.675,-2.048 1.343,-3.3l-0.024,-0.088c-0.174,-0.656 -0.696,-1.376 -1.305,-1.697c-0.634,-0.335 -1.492,-0.563 -2.189,-0.287l-0.077,0.031c-0.483,0.191 -0.903,0.396 -1.29,0.751c-0.469,0.431 -0.721,1.065 -0.804,1.678c-0.148,1.108 0.364,2.367 1.396,2.912c0.913,0.483 2.04,0.532 2.95,0Z" style="fill:#bf3e26;fill-rule:nonzero;"/><path d="M90.2,380.309c-0.038,0.621 0.259,1.363 0.712,1.793c0.649,0.615 1.474,0.852 2.36,0.637c0.886,-0.214 1.535,-1.045 1.652,-1.916c0.122,-0.912 -0.293,-1.739 -1.042,-2.254c-0.167,-0.139 -0.347,-0.254 -0.555,-0.323c-0.449,-0.189 -0.994,-0.267 -1.47,-0.113c-0.99,0.32 -1.593,1.144 -1.657,2.176Z" style="fill:#bf3e26;fill-rule:nonzero;"/><path d="M195.755,419.264c-2.11,-0 -2.113,3.278 0,3.278c2.11,0 2.114,-3.278 0,-3.278Z" style="fill:#bf3e26;fill-rule:nonzero;"/><path d="M238.638,433.813c-2.109,0 -2.113,3.279 0,3.279c2.109,0 2.113,-3.279 0,-3.279Z" style="fill:#bf3e26;fill-rule:nonzero;"/><path d="M165.673,327.402c0.244,0.316 0.592,0.594 0.992,0.685c0.87,0.198 1.661,-0.149 2.157,-0.878c0.38,-0.558 0.361,-1.299 0.11,-1.894c-0.344,-0.815 -1.031,-1.173 -1.882,-1.252c-0.47,-0.043 -1.055,0.249 -1.377,0.571c-0.338,0.338 -0.592,0.893 -0.571,1.378c0.02,0.435 0.191,0.868 0.461,1.219l0.11,0.171Z" style="fill:#bf3e26;fill-rule:nonzero;"/><path d="M152.851,386.046l-0.13,0.18c-0.396,0.55 -0.326,1.409 0,1.967c0.347,0.592 0.996,0.964 1.683,0.964c0.686,0 1.335,-0.372 1.682,-0.964c0.326,-0.558 0.396,-1.417 -0,-1.967l-0.13,-0.18c-0.38,-0.528 -0.872,-0.89 -1.552,-0.89c-0.681,-0 -1.173,0.362 -1.553,0.89Z" style="fill:#bf3e26;fill-rule:nonzero;"/><path d="M128.367,373.344c-1.044,0 -2.043,0.918 -1.995,1.996c0.048,1.081 0.877,1.995 1.995,1.995c1.044,0 2.044,-0.917 1.996,-1.995c-0.048,-1.082 -0.877,-1.996 -1.996,-1.996Z" style="fill:#bf3e26;fill-rule:nonzero;"/><path d="M113.818,344.719c0.475,-0.021 1.051,-0.173 1.361,-0.564c0.18,-0.228 0.349,-0.432 0.463,-0.7c0.11,-0.261 0.159,-0.529 0.166,-0.814c0.025,-0.974 -0.862,-1.862 -1.837,-1.837c-0.639,0.017 -1.036,0.25 -1.514,0.63c-0.361,0.286 -0.564,0.924 -0.564,1.361c0,0.472 0.21,1.036 0.564,1.36c0.367,0.337 0.848,0.587 1.361,0.564Z" style="fill:#bf3e26;fill-rule:nonzero;"/><path d="M184.728,470.302l-0.077,0.009c-0.412,0.048 -0.779,0.116 -1.151,0.312c-0.433,0.228 -0.748,0.652 -0.933,1.09c-0.342,0.809 -0.202,1.874 0.472,2.493c0.592,0.543 1.428,0.803 2.218,0.585c0.481,-0.132 0.885,-0.428 1.186,-0.817c0.333,-0.431 0.428,-0.838 0.489,-1.382l0.009,-0.077c0.058,-0.503 -0.284,-1.23 -0.648,-1.564c-0.404,-0.372 -0.995,-0.713 -1.565,-0.649Z" style="fill:#bf3e26;fill-rule:nonzero;"/><path d="M147.512,446.311c-1.33,0 -2.604,1.169 -2.543,2.543c0.062,1.376 1.117,2.541 2.543,2.541c1.329,0 2.603,-1.169 2.542,-2.541c-0.062,-1.378 -1.117,-2.543 -2.542,-2.543Z" style="fill:#bf3e26;fill-rule:nonzero;"/></g></g><g><path d="M309.237,335.277c-5.114,1.959 -7.646,5.401 -5.832,10.94" style="fill:none;stroke:#332a32;stroke-width:3.41px;stroke-linecap:round;stroke-miterlimit:1.5;"/><path d="M409.37,337.856c3.542,2.324 7.795,6.148 6.271,10.915" style="fill:none;stroke:#332a32;stroke-width:3.41px;stroke-linecap:round;stroke-miterlimit:1.5;"/></g><g><ellipse cx="303.49" cy="236.381" rx="59.411" ry="57.169" style="fill:#fcfbdb;"/><clipPath id="_clip2"><ellipse cx="303.49" cy="236.381" rx="59.411" ry="57.169"/></clipPath><g clip-path="url(#_clip2)"><path d="M290.316,292.686c0.598,-10.638 7.947,-93.013 17.49,-106.201c3.201,-4.424 7.962,-10.264 12.795,-12.095c15.168,-5.749 32.863,11.152 42.448,22.652c5.79,6.946 11.431,15.807 13.706,25.222c6.085,25.181 -3.448,57.156 -23.447,69.756c-7.948,5.007 -16.216,8.516 -25.337,8.344c-13.104,-0.247 -26.295,-3.252 -38.694,-8.143c-0.21,-0.083 1.039,0.465 1.039,0.465Z" style="fill:#332a32;"/></g><ellipse cx="303.49" cy="236.381" rx="59.411" ry="57.169" style="fill:none;stroke:#332a32;stroke-width:3.6px;stroke-linecap:round;stroke-miterlimit:1.5;"/><ellipse cx="319.324" cy="230.282" rx="7.346" ry="7.346" style="fill:#fcfbdb;stroke:#332a32;stroke-width:3.6px;stroke-linecap:round;stroke-miterlimit:1.5;"/><ellipse cx="313.954" cy="254.91" rx="4.898" ry="4.285" style="fill:#fcfbdb;stroke:#332a32;stroke-width:3.6px;stroke-linecap:round;stroke-miterlimit:1.5;"/></g><g><ellipse cx="408.637" cy="239.754" rx="59.411" ry="57.169" style="fill:#fcfbdb;"/><clipPath id="_clip3"><ellipse cx="408.637" cy="239.754" rx="59.411" ry="57.169"/></clipPath><g clip-path="url(#_clip3)"><path d="M396.805,295.612c0.598,-10.638 7.947,-93.013 17.49,-106.201c3.201,-4.424 7.962,-10.264 12.795,-12.095c15.168,-5.749 32.863,11.152 42.448,22.652c5.79,6.946 11.431,15.807 13.706,25.222c6.085,25.181 -3.448,57.156 -23.447,69.755c-7.949,5.008 -16.217,8.517 -25.337,8.345c-13.104,-0.247 -26.295,-3.252 -38.694,-8.143c-0.21,-0.083 1.039,0.465 1.039,0.465Z" style="fill:#332a32;"/></g><ellipse cx="408.637" cy="239.754" rx="59.411" ry="57.169" style="fill:none;stroke:#332a32;stroke-width:3.6px;stroke-linecap:round;stroke-miterlimit:1.5;"/><path d="M420.167,229.218c3.929,-1.004 7.933,1.37 8.937,5.298c1.003,3.929 -1.371,7.933 -5.299,8.937c-3.929,1.004 -7.933,-1.371 -8.937,-5.299c-1.003,-3.928 1.371,-7.933 5.299,-8.936Z" style="fill:#fcfbdb;stroke:#332a32;stroke-width:3.6px;stroke-linecap:round;stroke-miterlimit:1.5;"/><path d="M419.57,253.752c2.619,-0.67 5.22,0.648 5.806,2.939c0.586,2.292 -1.065,4.695 -3.684,5.364c-2.619,0.67 -5.221,-0.647 -5.806,-2.939c-0.586,-2.291 1.065,-4.695 3.684,-5.364Z" style="fill:#fcfbdb;stroke:#332a32;stroke-width:3.6px;stroke-linecap:round;stroke-miterlimit:1.5;"/></g><g><path d="M359.504,346.013c21.363,0 40.03,-4.994 40.03,3.029c0,8.022 -18.005,24.832 -39.368,24.832c-21.363,-0 -40.03,-16.81 -40.03,-24.832c0,-8.023 18.006,-3.029 39.368,-3.029Z" style="fill:#fcfbdb;stroke:#332a32;stroke-width:3.6px;stroke-linecap:round;stroke-miterlimit:1.5;"/><path d="M336.493,344.436l-1.654,20.455" style="fill:none;stroke:#332a32;stroke-width:3.6px;stroke-linecap:round;stroke-miterlimit:1.5;"/><path d="M379.218,346.855l1.556,20.461" style="fill:none;stroke:#332a32;stroke-width:3.6px;stroke-linecap:round;stroke-miterlimit:1.5;"/><path d="M359.775,346.228l-0.717,25.346" style="fill:none;stroke:#332a32;stroke-width:3.6px;stroke-linecap:round;stroke-miterlimit:1.5;"/></g><path d="M503.081,120.208c1.966,12.068 3.188,23.58 -1.016,35.304c-3.446,9.613 -12.672,20.439 -10.266,31.182c3.325,14.852 24.072,15.923 27.354,0.885c1.509,-6.919 -0.931,-15.273 -2.421,-21.981c-3.317,-14.924 -7.311,-31.403 -13.651,-45.39Z" style="fill:#89f5ff;stroke:#1bcdf5;stroke-width:3.02px;stroke-linecap:round;stroke-miterlimit:1.5;"/><g><g><path d="M69.182,365.406c-3.168,8.047 -20.031,7.963 -22.826,12.768c-2.795,4.806 2.782,11.381 6.057,16.066c3.275,4.685 10.403,6.899 13.592,12.044c4.08,6.585 18.261,24.603 10.891,27.464c-7.369,2.862 -42.581,0.122 -55.11,-10.293c-12.528,-10.415 -22.098,-37.672 -20.061,-52.198c2.036,-14.526 21.674,-28.064 32.281,-34.958c8.945,-5.814 25.495,-11.255 31.358,-6.404c5.862,4.851 6.986,27.465 3.818,35.511Z" style="fill:#f5e11b;stroke:#332a32;stroke-width:2.9px;stroke-linecap:round;stroke-miterlimit:1.5;"/></g><g><path d="M73.454,399.743c-1.738,-0.503 -4.097,-2.898 -6.049,-2.647c-3.807,0.489 -4.312,6.302 -4.731,8.804c-1.386,8.275 2.434,16.812 7.076,23.46c2.217,3.175 5.782,8.688 9.718,9.899c3.606,1.11 12.278,0.673 11.795,-4.421c-0.351,-3.696 3.444,-2.324 6.852,-0.76c6.481,2.974 11.326,7.728 16.091,12.874c2.16,2.333 5.441,6.652 9.088,6.335c5.267,-0.457 6.877,-8.047 5.766,-12.128c-1.23,-4.515 -3.523,-7.928 -6.291,-11.609c-1.062,-1.411 -3.591,-3.683 -3.667,-5.53c-0.094,-2.294 2.358,-4.883 3.813,-6.326c3.437,-3.41 7.665,-6.006 10.923,-9.608c6.21,-6.866 10.896,-15.9 14.265,-24.483c1.891,-4.818 4.55,-10.668 2.51,-15.861c-1.778,-4.527 -5.452,-6.065 -9.845,-4.14c-0.757,0.332 -8.316,6.191 -8.821,5.015c-1.612,-3.759 1.059,-24.224 -4.186,-27.858c-3.596,-2.491 -8.301,0.013 -10.821,2.983c-0.296,0.349 -3.943,6.56 -4.119,6.285c-1.776,-2.784 -3.827,-8.012 -8.195,-6.624c-9.027,2.869 -9.426,17.042 -11.505,24.473c-3.336,11.922 -12.792,22.094 -19.667,31.867Z" style="fill:#fcfbdb;stroke:#332a32;stroke-width:3.15px;stroke-linecap:round;stroke-miterlimit:1.5;"/><path d="M75.872,411.902c-2.664,-3.818 -4.312,-7.263 -2.687,-11.204" style="fill:none;stroke:#332a32;stroke-width:3.15px;stroke-linecap:round;stroke-miterlimit:1.5;"/><path d="M90.756,432.968c-2.602,-0.859 -8.077,-7.298 -8.558,-10.38" style="fill:none;stroke:#332a32;stroke-width:3.15px;stroke-linecap:round;stroke-miterlimit:1.5;"/><path d="M114.053,397.437c8.775,-6.076 11.862,-21.367 19.092,-29.022" style="fill:none;stroke:#332a32;stroke-width:3.15px;stroke-linecap:round;stroke-miterlimit:1.5;"/><path d="M100.971,384.817c6.643,-9.829 7.393,-23.025 12.843,-35.918" style="fill:none;stroke:#332a32;stroke-width:3.15px;stroke-linecap:round;stroke-miterlimit:1.5;"/></g></g><path d="M775.761,380.3l-12.15,26.745l16.112,10.136c5.48,-4.828 8.446,-7.505 15.685,-6.598c-1.881,-1.223 -3.638,-3.561 -5.258,-7.131c-0,0 -0.962,2.718 -5.773,0.312c-9.144,-4.574 -8.616,-23.464 -8.616,-23.464Z" style="fill:#f26862;stroke:#332a32;stroke-width:0.72px;stroke-linecap:round;stroke-miterlimit:1.5;"/></g></svg>